<svg width="375" height="812" viewBox="0 0 375 812" fill="none" xmlns="http://www.w3.org/2000/svg">
<mask id="mask0_106_551" style="mask-type:alpha" maskUnits="userSpaceOnUse" x="0" y="0" width="375" height="812">
<rect width="375" height="812" fill="white"/>
</mask>
<g mask="url(#mask0_106_551)">
<path d="M289.678 328.675C344.883 390.516 185.079 498.239 92.1028 472.305C-15.4014 448.367 -120 408 -120 328.675C-120 249.35 -32.8345 169.085 92.1028 185.044C217.04 201.003 202.512 199.008 289.678 328.675Z" fill="#FF3333" fill-opacity="0.2"/>
<path d="M428.085 784.426C456.934 821.54 373.425 886.189 324.839 870.626C268.66 856.259 214 832.033 214 784.426C214 736.82 259.55 688.649 324.839 698.227C390.127 707.805 382.535 706.607 428.085 784.426Z" fill="#FF3333" fill-opacity="0.2"/>
<path d="M398.366 561.208C409.014 643.421 351.544 626.248 289.821 561.208C283.97 541.342 214.979 533.281 234.58 502.501C254.181 471.721 343.751 418.946 388.335 460.786C394.133 488.723 390.055 497.042 398.366 561.208Z" fill="#C4C4C4" fill-opacity="0.2"/>
<path d="M65.2193 811.619C23.2841 869.594 -24.6519 830.219 -26.1047 777.483C-20.6375 762.656 -31.5489 768.144 -10.0462 747.995C11.4565 727.846 73.7665 698.812 76.9183 733.217C68.1255 753.828 98.505 772.181 65.2193 811.619Z" fill="#C4C4C4" fill-opacity="0.2"/>
<path d="M415.708 -25.9963C570.415 32.4649 411.483 74.6382 395.383 159.648C392.77 227.84 313.192 260.284 258.694 222.127C204.197 183.971 122.369 48.3352 211.228 10.8378C265.586 15.8747 309.965 -78.0174 415.708 -25.9963Z" fill="#C4C4C4" fill-opacity="0.1"/>
</g>
</svg>
