<svg width="375" height="812" viewBox="0 0 375 812" fill="none" xmlns="http://www.w3.org/2000/svg">
<mask id="mask0_106_558" style="mask-type:alpha" maskUnits="userSpaceOnUse" x="0" y="0" width="375" height="812">
<rect width="375" height="812" fill="white"/>
</mask>
<g mask="url(#mask0_106_558)">
<path d="M116.281 48.5863C122.847 86.4437 33.6095 89.7712 3.39217 56.8138C-33.0277 21.088 -64.2809 -20.3965 -44.8519 -51.6342C-25.4229 -82.8718 28.5198 -93.156 73.7508 -56.3078C118.982 -19.4596 113.756 -23.799 116.281 48.5863Z" fill="#FF3333" fill-opacity="0.2"/>
<path d="M328.178 524.235C317.556 509.052 348.302 482.604 366.191 488.971C386.875 494.849 407 504.759 407 524.235C407 543.71 390.229 563.416 366.191 559.498C342.153 555.58 344.948 556.07 328.178 524.235Z" fill="#FF3333" fill-opacity="0.2"/>
<path d="M65.3657 262.208C76.0142 344.421 18.5438 327.248 -43.1792 262.208C-49.0295 242.342 -118.021 234.281 -98.42 203.501C-78.8194 172.721 10.7512 119.946 55.3346 161.786C61.1328 189.723 57.0547 198.042 65.3657 262.208Z" fill="#C4C4C4" fill-opacity="0.2"/>
<path d="M65.2193 811.619C23.2841 869.594 -24.6519 830.219 -26.1047 777.483C-20.6375 762.656 -31.5489 768.144 -10.0462 747.995C11.4565 727.846 73.7665 698.812 76.9183 733.217C68.1255 753.828 98.505 772.181 65.2193 811.619Z" fill="#C4C4C4" fill-opacity="0.2"/>
<path d="M415.708 -25.9963C570.415 32.4649 411.483 74.6382 395.383 159.648C392.77 227.84 313.192 260.284 258.694 222.127C204.197 183.971 122.369 48.3352 211.228 10.8378C265.586 15.8747 309.965 -78.0174 415.708 -25.9963Z" fill="#C4C4C4" fill-opacity="0.1"/>
</g>
</svg>
