<svg width="375" height="812" viewBox="0 0 375 812" fill="none" xmlns="http://www.w3.org/2000/svg">
<mask id="mask0_106_536" style="mask-type:alpha" maskUnits="userSpaceOnUse" x="0" y="0" width="375" height="812">
<rect width="375" height="812" fill="white"/>
</mask>
<g mask="url(#mask0_106_536)">
<path d="M308.678 87.6749C363.883 149.516 204.079 257.239 111.103 231.305C3.59862 207.367 -101 167 -101 87.6749C-101 8.34991 -13.8345 -71.9146 111.103 -55.9557C236.04 -39.9967 221.512 -41.9916 308.678 87.6749Z" fill="#FF3333" fill-opacity="0.2"/>
<path d="M391.366 709.208C402.014 791.421 344.544 774.248 282.821 709.208C276.97 689.342 207.979 681.281 227.58 650.501C247.181 619.721 336.751 566.946 381.335 608.786C387.133 636.723 383.055 645.042 391.366 709.208Z" fill="#C4C4C4" fill-opacity="0.2"/>
<path d="M65.2193 811.619C23.2841 869.594 -24.6519 830.219 -26.1047 777.483C-20.6375 762.656 -31.5489 768.144 -10.0462 747.995C11.4565 727.846 73.7665 698.812 76.9183 733.217C68.1255 753.828 98.505 772.181 65.2193 811.619Z" fill="#C4C4C4" fill-opacity="0.2"/>
<path d="M413.708 142.004C568.415 200.465 409.483 242.638 393.383 327.648C390.77 395.84 311.192 428.284 256.694 390.127C202.197 351.971 120.369 216.335 209.228 178.838C263.586 183.875 307.965 89.9826 413.708 142.004Z" fill="#C4C4C4" fill-opacity="0.2"/>
</g>
</svg>
