<svg width="235" height="235" viewBox="0 0 235 235" fill="none" xmlns="http://www.w3.org/2000/svg">
<path d="M186.99 81.75C186.38 100.88 188.21 124.23 185.88 147.49C183.91 167.23 178.6 185.75 164.5 200.62C151.28 214.56 134.31 220.83 115.81 223.61C94.94 226.75 73.9 225.07 52.94 225.47C49.39 225.54 47.88 223.88 47.9 220.28C47.99 206.13 48 191.97 47.9 177.82C47.87 173.88 49.62 172.57 53.37 172.6C66.36 172.71 79.36 172.66 92.35 172.63C95.18 172.62 98.04 172.69 100.83 172.34C117.65 170.26 125.74 161.61 127.92 143.71C128.79 136.58 129 129.44 128.99 122.28C128.96 87.31 128.97 52.34 128.98 17.37C128.98 10.36 129.83 9.47001 136.64 9.46001C150.8 9.44001 164.96 9.44001 179.12 9.46001C186.17 9.47001 186.96 10.25 186.97 17.15C186.99 37.29 186.99 57.44 186.99 81.75Z" fill="#949494"/>
</svg>
