<?xml version="1.0" encoding="utf-8"?>
<!-- Generator: Adobe Illustrator 25.3.0, SVG Export Plug-In . SVG Version: 6.00 Build 0)  -->
<svg version="1.1" id="Capa_1" xmlns="http://www.w3.org/2000/svg" xmlns:xlink="http://www.w3.org/1999/xlink" x="0px" y="0px"
	 viewBox="0 0 235 235" style="enable-background:new 0 0 235 235;" xml:space="preserve">
<style type="text/css">
	.st0{fill:#EC1D24;}
</style>
<path class="st0" d="M186.99,81.75c-0.61,19.13,1.22,42.48-1.11,65.74c-1.97,19.74-7.28,38.26-21.38,53.13
	c-13.22,13.94-30.19,20.21-48.69,22.99c-20.87,3.14-41.91,1.46-62.87,1.86c-3.55,0.07-5.06-1.59-5.04-5.19
	c0.09-14.15,0.1-28.31,0-42.46c-0.03-3.94,1.72-5.25,5.47-5.22c12.99,0.11,25.99,0.06,38.98,0.03c2.83-0.01,5.69,0.06,8.48-0.29
	c16.82-2.08,24.91-10.73,27.09-28.63c0.87-7.13,1.08-14.27,1.07-21.43c-0.03-34.97-0.02-69.94-0.01-104.91
	c0-7.01,0.85-7.9,7.66-7.91c14.16-0.02,28.32-0.02,42.48,0c7.05,0.01,7.84,0.79,7.85,7.69C186.99,37.29,186.99,57.44,186.99,81.75z"
	/>
</svg>
