<svg width="960" height="188" viewBox="0 0 960 188" fill="none" xmlns="http://www.w3.org/2000/svg">
<g clip-path="url(#clip0_21:40)">
<path d="M297.893 53.7897C297.893 14.1236 257.127 0.540931 221.792 0.540931C197.333 0.540931 139.704 6.51756 136.444 60.8548C136.557 62.009 136.929 63.1228 137.533 64.1135C138.074 65.202 139.163 65.202 140.252 65.202H182.107C182.611 65.2147 183.112 65.1249 183.579 64.9381C184.047 64.7513 184.472 64.4714 184.828 64.1154C185.184 63.7594 185.464 63.3347 185.651 62.8672C185.838 62.3996 185.928 61.899 185.915 61.3957C187.545 42.3773 204.942 38.0301 219.62 38.0301C240.277 38.0301 250.606 44.5477 250.606 57.0485C250.606 70.0902 240.277 72.2605 219.62 74.9784C214.182 75.5193 208.75 76.6077 203.312 77.1487C177.765 79.8665 130.471 85.2956 130.471 134.204C130.471 169.523 163.628 187.993 196.792 187.993C214.73 187.993 240.277 182.558 256.585 167.346C267.119 157.937 280.536 152.381 294.64 151.586C295.729 151.586 296.27 151.045 297.359 150.498C297.9 149.957 298.448 148.868 297.9 148.327C297.392 146.563 297.209 144.721 297.359 142.892L297.893 53.7897ZM210.915 150.511C192.436 150.511 182.107 144.534 180.47 132.581C178.299 116.821 194.059 110.845 207.648 108.674C211.96 107.864 216.317 107.32 220.696 107.045H221.237C230.497 106.444 239.636 104.616 248.415 101.609V122.798C248.969 142.898 226.141 150.511 210.915 150.511ZM118.519 5.97663V100.521C118.519 140.187 109.279 185.83 36.9787 185.83H3.26055C2.82709 185.847 2.39467 185.775 1.99064 185.617C1.58661 185.459 1.21977 185.219 0.913321 184.912C0.606876 184.605 0.367498 184.238 0.210333 183.834C0.0531685 183.43 -0.0183619 182.998 0.000267501 182.564V143.446C0.045373 142.74 0.34633 142.074 0.846815 141.574C1.3473 141.074 2.01301 140.773 2.71937 140.728H40.2588C64.1763 140.728 69.0667 126.057 69.0667 99.4324V5.97663C69.0723 5.43363 69.1921 4.89788 69.4183 4.40416C69.6445 3.91044 69.9721 3.4698 70.3797 3.11085C70.7874 2.7519 71.266 2.48267 71.7845 2.32063C72.3031 2.1586 72.8499 2.10739 73.3895 2.17032H114.704C115.207 2.15855 115.707 2.24901 116.174 2.43621C116.641 2.62341 117.065 2.90346 117.421 3.25938C117.776 3.61529 118.055 4.03965 118.242 4.50673C118.428 4.97382 118.518 5.47389 118.505 5.97663H118.519ZM582.758 58.1369V180.935C582.753 181.48 582.633 182.019 582.405 182.514C582.177 183.01 581.847 183.452 581.437 183.812C581.026 184.171 580.544 184.44 580.022 184.6C579.501 184.76 578.951 184.808 578.409 184.741H537.095C536.591 184.754 536.09 184.664 535.623 184.477C535.155 184.291 534.73 184.011 534.374 183.655C534.018 183.299 533.738 182.874 533.551 182.406C533.364 181.939 533.274 181.438 533.287 180.935V69.5492C533.287 60.8548 531.115 37.4892 503.931 38.0367C478.924 38.0367 476.212 58.6844 476.212 70.0968V181.476C476.167 182.525 475.765 183.528 475.072 184.318C474.38 185.109 473.439 185.639 472.404 185.823H431.089C430.586 185.836 430.085 185.746 429.617 185.559C429.15 185.372 428.725 185.092 428.369 184.736C428.012 184.38 427.732 183.956 427.545 183.488C427.359 183.021 427.269 182.52 427.281 182.017V70.6377C427.281 59.2254 424.562 38.5776 399.562 38.5776C372.385 38.5776 370.207 61.9432 370.207 70.6377V182.023C370.202 182.569 370.081 183.107 369.853 183.603C369.626 184.099 369.296 184.541 368.885 184.9C368.474 185.259 367.992 185.528 367.471 185.688C366.949 185.848 366.399 185.897 365.858 185.83H324.543C323.555 185.765 322.623 185.343 321.923 184.643C321.222 183.942 320.8 183.011 320.735 182.023V59.2254C320.748 21.7362 353.338 1.62939 399.549 1.62939C413.954 1.07639 428.238 4.4586 440.864 11.4123C444.158 13.4741 447.872 14.7745 451.733 15.2186C455.595 14.7745 459.309 13.4741 462.603 11.4123C475.287 4.60982 489.529 1.23749 503.918 1.62939C550.123 0.540931 582.758 20.6477 582.758 58.1369ZM763.776 53.2487C763.776 13.5826 723.01 0 688.216 0C663.737 0 606.115 5.97663 602.855 60.3138C602.782 60.9038 602.842 61.5025 603.03 62.0663C603.219 62.6301 603.531 63.1448 603.944 63.5726C604.485 64.6611 605.574 64.6611 606.663 64.6611H647.977C649.027 64.6157 650.03 64.2139 650.821 63.5219C651.612 62.8299 652.143 61.8891 652.326 60.8548C653.957 41.8364 671.353 37.4892 685.484 37.4892C706.141 37.4892 716.469 44.0067 716.469 56.5075C716.469 69.5492 706.682 71.1786 685.484 73.8965C680.045 74.4374 674.614 74.9849 669.176 76.0668C643.628 78.7847 595.786 84.7613 596.334 133.122C596.334 168.441 629.491 186.912 662.655 186.912C684.568 187.312 705.926 180.004 722.997 166.264C733.539 156.529 747.246 150.932 761.592 150.504C762.012 150.496 762.425 150.393 762.801 150.205C763.176 150.017 763.505 149.747 763.763 149.416C764.256 148.601 764.448 147.639 764.304 146.698C763.796 144.934 763.613 143.092 763.763 141.262L763.776 53.2487ZM676.785 149.422C658.306 149.422 647.977 143.446 646.34 131.492C644.169 115.733 659.929 109.756 673.518 107.586C677.867 106.497 682.217 106.497 687.107 105.416H687.648C696.915 104.869 706.062 103.039 714.826 99.9799V121.169C714.833 141.83 692.004 149.422 676.785 149.422ZM903.467 3.80631V42.9249C903.385 43.7132 902.998 44.4385 902.389 44.9461C901.78 45.4538 900.997 45.7037 900.206 45.6427H863.248C839.33 45.6427 834.44 60.3138 834.44 86.9382V180.394C834.435 180.939 834.314 181.478 834.087 181.973C833.859 182.469 833.529 182.911 833.118 183.271C832.707 183.63 832.226 183.899 831.704 184.059C831.182 184.219 830.632 184.267 830.091 184.2H788.776C788.273 184.213 787.772 184.123 787.304 183.936C786.836 183.75 786.411 183.47 786.055 183.114C785.699 182.758 785.419 182.333 785.232 181.865C785.045 181.398 784.956 180.897 784.968 180.394V85.8497C784.962 46.1771 794.201 0.540931 865.954 0.540931H899.659C901.83 1.08846 903.467 2.17032 903.467 3.80631Z" fill="#EC1D24"/>
<path d="M917.055 23.9131C917.017 21.0481 917.554 18.2045 918.633 15.5501C919.712 12.8957 921.313 10.4844 923.34 8.45832C925.367 6.43228 927.779 4.83264 930.435 3.75379C933.09 2.67495 935.935 2.13878 938.802 2.17692C944.422 2.1839 949.809 4.41852 953.783 8.39065C957.757 12.3628 959.993 17.7481 960 23.3656V23.3656C959.995 28.9842 957.76 34.3712 953.786 38.3448C949.812 42.3184 944.423 44.5539 938.802 44.5609C935.996 44.7194 933.188 44.3021 930.55 43.3347C927.912 42.3674 925.5 40.8704 923.463 38.936C921.425 37.0017 919.806 34.6709 918.704 32.0872C917.602 29.5035 917.041 26.7217 917.055 23.9131V23.9131ZM957.822 23.9131C957.889 21.3734 957.446 18.8461 956.52 16.4802C955.594 14.1143 954.203 11.9577 952.43 10.1378C950.656 8.31785 948.536 6.87137 946.194 5.88371C943.853 4.89605 941.337 4.38721 938.795 4.38721C936.253 4.38721 933.737 4.89605 931.395 5.88371C929.054 6.87137 926.934 8.31785 925.16 10.1378C923.387 11.9577 921.996 14.1143 921.07 16.4802C920.144 18.8461 919.701 21.3734 919.768 23.9131V23.9131C919.706 26.428 920.157 28.9292 921.091 31.2648C922.026 33.6005 923.426 35.722 925.206 37.5005C926.986 39.279 929.109 40.6775 931.446 41.6111C933.783 42.5447 936.286 42.9939 938.802 42.9315C943.828 42.8698 948.631 40.8461 952.185 37.2926C955.739 33.739 957.762 28.9374 957.822 23.9131V23.9131ZM929.555 11.9599H939.884C942.242 11.9165 944.543 12.6825 946.404 14.1302C947.074 14.7591 947.611 15.5155 947.984 16.355C948.357 17.1945 948.558 18.1 948.576 19.0184C948.611 20.5784 948.08 22.0984 947.08 23.2967C946.08 24.4951 944.679 25.2906 943.138 25.5359L949.13 34.237H944.233L938.802 26.631H934.452V34.237H930.103L929.555 11.9599ZM939.343 22.8247C939.884 22.8916 940.434 22.8434 940.956 22.6832C941.478 22.523 941.959 22.2544 942.37 21.895C942.781 21.5356 943.111 21.0936 943.339 20.5979C943.566 20.1021 943.687 19.5639 943.692 19.0184V19.0184C943.692 16.848 942.062 15.7596 939.343 15.7596H933.905V22.8247H939.343Z" fill="#EC1D24"/>
</g>
<defs>
<clipPath id="clip0_21:40">
<rect width="960" height="188" fill="white"/>
</clipPath>
</defs>
</svg>
