<svg width="40" height="40" viewBox="0 0 40 40" fill="none" xmlns="http://www.w3.org/2000/svg">
<path fill-rule="evenodd" clip-rule="evenodd" d="M10.7378 5.04054C10.4779 5.12019 10.1211 5.4951 10.0487 5.76465C10.0069 5.92005 9.99301 10.1467 10.0032 19.6253L10.0178 33.2624L10.1522 33.479C10.2261 33.5981 10.39 33.7641 10.5163 33.8478C10.7075 33.9746 10.8087 34 11.1223 34C11.4359 34 11.5371 33.9746 11.7284 33.8478C11.8546 33.7641 12.0185 33.5981 12.0924 33.479C12.2127 33.2851 12.2288 33.1837 12.2465 32.5107L12.2662 31.7589H13.3879H14.5096L14.5294 32.5107C14.547 33.1837 14.5632 33.2851 14.6835 33.479C14.7574 33.5981 14.9213 33.7641 15.0475 33.8478C15.2388 33.9746 15.34 34 15.6536 34C15.9671 34 16.0683 33.9746 16.2596 33.8478C16.3859 33.7641 16.5497 33.5981 16.6236 33.479C16.7439 33.2851 16.7601 33.1837 16.7778 32.5107L16.7975 31.7589H17.9192H19.0409L19.0606 32.5107C19.0783 33.1837 19.0944 33.2851 19.2147 33.479C19.2886 33.5981 19.4525 33.7641 19.5788 33.8478C19.77 33.9746 19.8712 34 20.1848 34C20.4984 34 20.5996 33.9746 20.7909 33.8478C20.9171 33.7641 21.081 33.5981 21.1549 33.479C21.2752 33.2851 21.2913 33.1837 21.309 32.5107L21.3287 31.7589H22.4504H23.5721L23.5919 32.5107C23.6095 33.1837 23.6257 33.2851 23.746 33.479C23.8199 33.5981 23.9838 33.7641 24.11 33.8478C24.3006 33.9741 24.4028 34 24.7119 34C25.158 34 25.4338 33.8561 25.6686 33.5008C25.811 33.2854 25.8218 33.2234 25.8403 32.5149L25.86 31.7589H26.9817H28.1034L28.1231 32.5107C28.1408 33.1837 28.1569 33.2851 28.2772 33.479C28.3511 33.5981 28.515 33.7641 28.6413 33.8478C28.8325 33.9746 28.9337 34 29.2473 34C29.5609 34 29.6621 33.9746 29.8534 33.8478C29.9796 33.7641 30.1435 33.5981 30.2174 33.479L30.3518 33.2624V19.4999V5.73742L30.1998 5.50741C29.9659 5.15327 29.689 5.00814 29.2473 5.00814C28.8057 5.00814 28.5288 5.15321 28.2948 5.5073C28.1524 5.72272 28.1416 5.78474 28.1231 6.49319L28.1034 7.24919H26.9817H25.86L25.8403 6.49319C25.8218 5.78474 25.811 5.72272 25.6686 5.5073C25.4345 5.15321 25.1577 5.00814 24.7161 5.00814C24.2744 5.00814 23.9976 5.15321 23.7635 5.5073C23.6211 5.72272 23.6103 5.78474 23.5919 6.49319L23.5721 7.24919H22.4504H21.3287L21.309 6.49745C21.2913 5.82445 21.2752 5.72301 21.1549 5.52914C21.081 5.41 20.9171 5.24405 20.7909 5.16036C20.5996 5.03356 20.4984 5.00814 20.1848 5.00814C19.8712 5.00814 19.77 5.03356 19.5788 5.16036C19.4525 5.24405 19.2886 5.41 19.2147 5.52914C19.0944 5.72301 19.0783 5.82445 19.0606 6.49745L19.0409 7.24919H17.9192H16.7975L16.7778 6.49319C16.7593 5.78474 16.7485 5.72272 16.6061 5.5073C16.3713 5.15202 16.0955 5.00814 15.6494 5.00814C15.3403 5.00814 15.2381 5.03401 15.0475 5.16036C14.9213 5.24405 14.7574 5.41 14.6835 5.52914C14.5632 5.72301 14.547 5.82445 14.5294 6.49745L14.5096 7.24919H13.3879H12.2662L12.2465 6.49319C12.228 5.78474 12.2172 5.72272 12.0748 5.5073C11.9913 5.38089 11.8324 5.22141 11.7218 5.15299C11.4905 5.00973 11.0153 4.95543 10.7378 5.04054ZM28.1145 19.5041V29.4895H20.1848H12.2551V19.5041V9.51861H20.1848H28.1145V19.5041ZM19.7883 13.8935C19.6378 13.9385 19.0127 14.5293 17.194 16.3455C15.8761 17.6615 14.7482 18.8178 14.6875 18.9152C14.5398 19.1523 14.4942 19.534 14.5764 19.8451C14.6371 20.0745 14.8804 20.3376 17.032 22.4999C18.3455 23.82 19.4997 24.9498 19.5969 25.0106C19.8336 25.1586 20.2147 25.2042 20.5252 25.1219C20.7543 25.061 21.0169 24.8174 23.1757 22.6622C24.4935 21.3465 25.6215 20.1903 25.6821 20.093C25.8298 19.8558 25.8754 19.4741 25.7932 19.1631C25.7325 18.9336 25.4892 18.6706 23.3377 16.5082C22.0242 15.1881 20.8671 14.0566 20.7664 13.9936C20.5506 13.8588 20.0689 13.8095 19.7883 13.8935ZM21.6576 18.0574L23.1012 19.5044L21.643 20.965L20.1848 22.4257L18.7266 20.965L17.2684 19.5044L18.712 18.0574C19.506 17.2617 20.1688 16.6106 20.1848 16.6106C20.2008 16.6106 20.8636 17.2617 21.6576 18.0574Z" fill="white"/>
</svg>
