<svg width="40" height="40" viewBox="0 0 40 40" fill="none" xmlns="http://www.w3.org/2000/svg">
<path fill-rule="evenodd" clip-rule="evenodd" d="M13.5541 5.11215C12.9335 5.27477 12.494 5.53202 12.0098 6.01619C11.5187 6.50734 11.267 6.94235 11.1031 7.58284C10.6276 9.44206 11.8459 11.3512 13.7468 11.7257C14.1606 11.8072 14.2026 11.8274 14.1838 11.9363C14.1724 12.0026 13.448 16.7261 12.5741 22.433C11.4733 29.6214 10.9947 32.8856 11.0164 33.0576C11.0572 33.382 11.2333 33.6592 11.5184 33.8479C11.7099 33.9746 11.8112 34 12.1251 34C12.439 34 12.5404 33.9746 12.7318 33.8479C13.1852 33.5479 13.1414 33.7381 13.9116 28.7145C14.2979 26.1952 14.6458 23.9108 14.685 23.6379L14.7561 23.1418H20.0633H25.3704L25.4416 23.6379C25.4807 23.9108 25.8287 26.1952 26.2149 28.7145C26.9851 33.7381 26.9414 33.5479 27.3947 33.8479C27.5862 33.9746 27.6875 34 28.0014 34C28.3153 34 28.4166 33.9746 28.6081 33.8479C28.8931 33.6593 29.0693 33.382 29.1102 33.0576C29.1319 32.8854 28.6542 29.6279 27.5524 22.433C26.6783 16.7261 25.954 12.0026 25.9426 11.9363C25.9239 11.8275 25.9659 11.8072 26.3797 11.7257C27.7026 11.465 28.7763 10.4127 29.0501 9.10832C29.1642 8.56495 29.1561 8.10159 29.0234 7.58284C28.8595 6.94235 28.6079 6.50734 28.1167 6.01619C27.6256 5.52505 27.1906 5.27336 26.5501 5.10949C26.1269 5.0013 25.9069 4.99762 20.04 5.00062C14.2488 5.00363 13.9487 5.00879 13.5541 5.11215ZM26.3183 7.42844C26.4374 7.50244 26.6032 7.66647 26.6869 7.79286C26.8136 7.98434 26.839 8.08566 26.839 8.39956C26.839 8.71345 26.8136 8.81478 26.6869 9.00626C26.6032 9.13264 26.4374 9.29668 26.3183 9.37067L26.1019 9.50522H20.0633H14.0246L13.8082 9.37067C13.379 9.10384 13.1773 8.57403 13.313 8.06996C13.3914 7.77857 13.74 7.40712 14.0082 7.32905C14.1228 7.2957 16.4924 7.27841 20.1483 7.28431L26.1019 7.29389L26.3183 7.42844ZM23.6354 11.8331C23.6354 11.8504 23.9416 13.8658 24.3158 16.3117C24.69 18.7576 24.9962 20.7846 24.9962 20.8163C24.9962 20.8547 23.3594 20.8737 20.0633 20.8737C16.7671 20.8737 15.1303 20.8547 15.1303 20.8163C15.1303 20.7846 15.4365 18.7576 15.8107 16.3117C16.1849 13.8658 16.4911 11.8504 16.4911 11.8331C16.4911 11.8158 18.0986 11.8016 20.0633 11.8016C22.0279 11.8016 23.6354 11.8158 23.6354 11.8331Z" fill="white"/>
</svg>
