<svg width="40" height="40" viewBox="0 0 40 40" fill="none" xmlns="http://www.w3.org/2000/svg">
<path fill-rule="evenodd" clip-rule="evenodd" d="M12.9736 6.05821C11.0851 6.45876 9.72717 7.83419 9.36498 9.71312C9.30102 10.0449 9.28474 10.8596 9.28474 13.7227V17.3159L8.52852 17.3356C7.81987 17.3541 7.75784 17.365 7.54235 17.5076C7.18817 17.7421 7.04305 18.0195 7.04305 18.462C7.04305 18.9045 7.18817 19.1819 7.54235 19.4164C7.75784 19.5591 7.81987 19.5699 8.52852 19.5884L9.28474 19.6082V20.7347V21.8612L7.507 21.8783L5.7292 21.8955L5.4993 22.0478C5.14511 22.2823 5 22.5597 5 23.0022C5 23.4446 5.14517 23.7221 5.4993 23.9565C5.7078 24.0944 5.78839 24.1105 6.36504 24.1288L7.00089 24.149L7.03057 25.1504C7.05259 25.8927 7.09016 26.2693 7.17585 26.6059C7.69751 28.6546 9.29688 30.2684 11.3083 30.7759L11.5442 30.8354L11.5637 31.6433C11.5814 32.3761 11.5957 32.4714 11.7178 32.6679C11.7919 32.7871 11.9561 32.9531 12.0826 33.0368C12.2742 33.1636 12.3756 33.189 12.6898 33.189C13.004 33.189 13.1054 33.1636 13.2971 33.0368C13.4236 32.9531 13.5877 32.7871 13.6618 32.6679C13.7823 32.474 13.7985 32.3725 13.8162 31.6993L13.836 30.9474H19.5H25.164L25.1838 31.6993C25.2015 32.3725 25.2177 32.474 25.3382 32.6679C25.4123 32.7871 25.5764 32.9531 25.7029 33.0368C25.8946 33.1636 25.996 33.189 26.3102 33.189C26.6244 33.189 26.7258 33.1636 26.9174 33.0368C27.0439 32.9531 27.2081 32.7871 27.2822 32.6679C27.4043 32.4714 27.4186 32.3761 27.4363 31.6433L27.4558 30.8354L27.6917 30.776C28.9458 30.4605 30.2488 29.5606 30.9522 28.5243C31.6894 27.4382 31.9853 26.4086 31.9853 24.9304V24.1494L32.628 24.129C33.2121 24.1105 33.2918 24.0947 33.5007 23.9565C33.8561 23.7213 34 23.445 34 22.998C34 22.6883 33.9741 22.5859 33.8477 22.3949C33.764 22.2684 33.598 22.1042 33.4788 22.0302L33.2622 21.8955L22.4073 21.8807L11.5522 21.866L11.5677 15.9218L11.5832 9.97769L11.7628 9.59859C12.0127 9.07098 12.3344 8.74238 12.851 8.48712C13.2557 8.28707 13.3103 8.27515 13.8219 8.27515C14.3128 8.27515 14.3998 8.29212 14.7431 8.45477C14.9515 8.55352 15.2393 8.74227 15.3824 8.87422C15.694 9.16149 16.0196 9.79388 16.0717 10.2132L16.108 10.5054L15.3495 10.5253C14.6695 10.5432 14.5686 10.5592 14.3744 10.6799C14.2552 10.7539 14.0892 10.9181 14.0055 11.0446C13.8791 11.2356 13.8532 11.338 13.8532 11.6477C13.8532 12.0948 13.9972 12.371 14.3526 12.6063L14.5827 12.7585H17.2299H19.8772L20.1072 12.6063C20.4627 12.371 20.6067 12.0948 20.6067 11.6477C20.6067 11.338 20.5808 11.2356 20.4544 11.0446C20.3707 10.9181 20.2047 10.7539 20.0855 10.6799C19.8919 10.5595 19.7899 10.5431 19.1246 10.5256L18.3803 10.506L18.345 10.1284C18.2144 8.7295 17.4608 7.48012 16.2846 6.71227C15.8572 6.43322 15.4704 6.2645 14.904 6.10991C14.4625 5.98943 13.4284 5.96173 12.9736 6.05821ZM29.7153 24.8942C29.7153 26.1866 29.454 26.8937 28.6937 27.6582C28.2047 28.1501 27.7729 28.4001 27.1276 28.5652C26.7024 28.674 26.4737 28.6773 19.5 28.6773C12.5263 28.6773 12.2976 28.674 11.8724 28.5652C11.2407 28.4036 10.7976 28.1467 10.3038 27.6558C9.54784 26.9042 9.28474 26.1911 9.28474 24.8942V24.1372H19.5H29.7153V24.8942Z" fill="white"/>
</svg>
