<svg width="40" height="40" viewBox="0 0 40 40" fill="none" xmlns="http://www.w3.org/2000/svg">
<path fill-rule="evenodd" clip-rule="evenodd" d="M11.85 6.11227C11.2288 6.27504 10.789 6.53252 10.3043 7.01712C9.81275 7.5087 9.56083 7.9441 9.39682 8.58516C9.29069 9.00019 9.28474 9.22498 9.28474 12.8077C9.28474 16.3904 9.29069 16.6152 9.39682 17.0302C9.56083 17.6713 9.81275 18.1067 10.3043 18.5983C10.7959 19.0899 11.2313 19.3418 11.8724 19.5058C12.282 19.6106 12.509 19.6179 15.3378 19.6179H18.365V20.7519V21.886L12.0514 21.9012L5.73777 21.9163L5.52115 22.051C5.40197 22.125 5.23597 22.2892 5.15226 22.4157C5.02542 22.6074 5 22.7088 5 23.023C5 23.3371 5.02542 23.4386 5.15226 23.6302C5.23597 23.7567 5.40197 23.9209 5.52115 23.9949C5.71501 24.1155 5.8166 24.1317 6.48785 24.1493L7.23794 24.1691L7.254 27.1855L7.27006 30.202L7.40473 30.4186C7.47879 30.5378 7.64292 30.7038 7.76936 30.7875C7.98462 30.9301 8.04721 30.941 8.75008 30.9594L9.50085 30.9791L9.52048 31.7256C9.53802 32.3931 9.55436 32.495 9.67479 32.6887C9.74885 32.8079 9.91303 32.9739 10.0395 33.0576C10.2312 33.1844 10.3326 33.2099 10.6468 33.2099C10.9609 33.2099 11.0624 33.1844 11.254 33.0576C11.3805 32.9739 11.5447 32.8079 11.6188 32.6887C11.7393 32.4948 11.7555 32.3933 11.7732 31.7201L11.7929 30.9682H19.5H27.2071L27.2268 31.7201C27.2445 32.3933 27.2607 32.4948 27.3812 32.6887C27.4553 32.8079 27.6195 32.9739 27.746 33.0576C27.9376 33.1844 28.0391 33.2099 28.3532 33.2099C28.6674 33.2099 28.7688 33.1844 28.9605 33.0576C29.087 32.9739 29.2512 32.8079 29.3252 32.6887C29.4456 32.495 29.462 32.3931 29.4795 31.7256L29.4992 30.9791L30.2499 30.9594C30.9528 30.941 31.0154 30.9301 31.2306 30.7875C31.3571 30.7038 31.5212 30.5378 31.5953 30.4186L31.7299 30.202L31.746 27.1855L31.7621 24.1691L32.5121 24.1493C33.1834 24.1317 33.285 24.1155 33.4788 23.9949C33.598 23.9209 33.764 23.7567 33.8477 23.6302C33.9746 23.4386 34 23.3371 34 23.023C34 22.7088 33.9746 22.6074 33.8477 22.4157C33.764 22.2892 33.598 22.125 33.4788 22.051L33.2622 21.9163L26.9486 21.9012L20.635 21.886V20.7519V19.6179H23.6622C26.491 19.6179 26.718 19.6106 27.1276 19.5058C27.7687 19.3418 28.2041 19.0899 28.6957 18.5983C29.1872 18.1067 29.4392 17.6713 29.6032 17.0302C29.7093 16.6152 29.7153 16.3904 29.7153 12.8077C29.7153 9.22498 29.7093 9.00019 29.6032 8.58516C29.4392 7.9441 29.1872 7.5087 28.6957 7.01712C28.2041 6.52554 27.7687 6.27362 27.1276 6.10961C26.702 6.00081 26.4791 5.99764 19.4767 6.00064C12.5626 6.00365 12.247 6.00825 11.85 6.11227ZM26.8957 8.43063C27.0149 8.50469 27.1809 8.66887 27.2646 8.79537L27.4168 9.02544V12.8077V16.59L27.2646 16.82C27.1809 16.9465 27.0149 17.1107 26.8957 17.1848L26.6791 17.3194H19.5H12.3209L12.1043 17.1848C11.9851 17.1107 11.8191 16.9466 11.7354 16.8201L11.5832 16.5901L11.5674 12.9374C11.5566 10.4501 11.5711 9.2121 11.6129 9.05694C11.6871 8.7813 12.0439 8.40702 12.3045 8.3312C12.4196 8.29772 15.2104 8.28058 19.5851 8.28642L26.6791 8.29596L26.8957 8.43063ZM18.365 26.4281V28.6981H13.9384H9.51174V26.4281V24.158H13.9384H18.365V26.4281ZM29.4883 26.4281V28.6981H25.0616H20.635V26.4281V24.158H25.0616H29.4883V26.4281Z" fill="white"/>
</svg>
