<svg width="40" height="40" viewBox="0 0 40 40" fill="none" xmlns="http://www.w3.org/2000/svg">
<path fill-rule="evenodd" clip-rule="evenodd" d="M5.73735 10.0459C5.46923 10.1235 5.12041 10.4951 5.04191 10.7867C4.90612 11.291 5.10787 11.821 5.53724 12.0879C5.73105 12.2084 5.83247 12.2245 6.50527 12.2422L7.2568 12.262V17.5506C7.2568 22.6316 7.26123 22.8564 7.36882 23.2773C7.43048 23.5183 7.5636 23.8733 7.66473 24.0663C7.90579 24.5264 8.59391 25.2145 9.05401 25.4556C9.50879 25.6938 10.1805 25.8635 10.669 25.8635C10.8824 25.8635 11.057 25.8764 11.057 25.8923C11.057 25.9081 10.72 26.5909 10.3081 27.4095C9.58082 28.8549 9.55904 28.9086 9.55655 29.2667C9.55343 29.7089 9.69715 29.985 10.0531 30.2205C10.2453 30.3478 10.3456 30.3727 10.6651 30.3727C10.9972 30.3727 11.0794 30.3504 11.2932 30.2025C11.5223 30.044 11.611 29.8897 12.5884 27.9482L13.6377 25.8641H19.5082H25.3787L26.428 27.9482C27.4054 29.8897 27.4941 30.044 27.7232 30.2025C27.9363 30.3499 28.0196 30.3727 28.3471 30.3727C28.7995 30.3727 29.0742 30.2303 29.3103 29.8736C29.4377 29.6811 29.4621 29.5829 29.4598 29.2708C29.4573 28.9075 29.4382 28.8601 28.7083 27.4095C28.2964 26.5909 27.9594 25.9081 27.9594 25.8923C27.9594 25.8764 28.134 25.8635 28.3473 25.8635C28.8351 25.8635 29.5069 25.6941 29.9624 25.4561C30.4171 25.2186 31.1041 24.5303 31.3498 24.0663C31.4519 23.8733 31.5859 23.5183 31.6476 23.2773C31.7552 22.8564 31.7596 22.6316 31.7596 17.5506V12.262L32.5111 12.2422C33.1839 12.2245 33.2853 12.2084 33.4791 12.0879C33.5983 12.0139 33.7642 11.8498 33.8478 11.7233C33.9746 11.5318 34 11.4305 34 11.1165C34 10.8025 33.9746 10.7011 33.8478 10.5096C33.7642 10.3831 33.5983 10.219 33.4791 10.145L33.2626 10.0104L19.5933 10.0011C11.0733 9.99534 5.85362 10.0122 5.73735 10.0459ZM18.3824 13.0024C18.4001 13.6752 18.4163 13.7766 18.5368 13.9704C18.6108 14.0895 18.7749 14.2554 18.9013 14.3391C19.0922 14.4654 19.1945 14.4913 19.5041 14.4913C19.9508 14.4913 20.2269 14.3474 20.462 13.9922C20.6046 13.7769 20.6155 13.7149 20.634 13.0066L20.6537 12.2508H25.0723H29.4908V14.5196V16.7884H19.5082H9.52558V14.5196V12.2508H13.9441H18.3627L18.3824 13.0024ZM18.3824 19.8087C18.4001 20.4815 18.4163 20.5829 18.5368 20.7767C18.6108 20.8958 18.7749 21.0617 18.9013 21.1454C19.0922 21.2717 19.1945 21.2976 19.5041 21.2976C19.9508 21.2976 20.2269 21.1537 20.462 20.7986C20.6046 20.5832 20.6155 20.5212 20.634 19.813L20.6537 19.0572H25.0751H29.4965L29.4795 20.9473L29.4624 22.8375L29.3103 23.0673C29.2266 23.1937 29.0607 23.3577 28.9416 23.4318L28.7251 23.5664H19.5082H10.2913L10.0748 23.4318C9.95568 23.3577 9.78978 23.1937 9.70612 23.0673L9.55394 22.8375L9.53692 20.9473L9.51991 19.0572H13.9413H18.3627L18.3824 19.8087Z" fill="white"/>
</svg>
