<svg width="40" height="40" viewBox="0 0 40 40" fill="none" xmlns="http://www.w3.org/2000/svg">
<path fill-rule="evenodd" clip-rule="evenodd" d="M8.01185 9.04974C7.75731 9.12762 7.39703 9.50195 7.32425 9.76419C7.28409 9.90874 7.26308 11.7236 7.2607 15.2477L7.25719 20.5152L6.84978 20.7086C6.28497 20.9767 5.6603 21.6022 5.37444 22.186C5.04854 22.8516 5 23.1969 5 24.8481C5 26.4993 5.04854 26.8445 5.37444 27.5101C5.65826 28.0897 6.28435 28.7184 6.84576 28.9875L7.2492 29.181L7.27055 30.0306C7.29004 30.8057 7.30369 30.8991 7.42631 31.0963C7.50022 31.2153 7.66408 31.3809 7.79033 31.4645C7.9816 31.5911 8.08282 31.6165 8.39637 31.6165C8.70993 31.6165 8.81114 31.5911 9.00241 31.4645C9.12866 31.3809 9.29252 31.2153 9.36643 31.0963C9.48673 30.9028 9.50287 30.8015 9.52055 30.1297L9.54026 29.3792H19.4977H29.4551L29.4748 30.1339C29.4932 30.8412 29.504 30.9031 29.6464 31.1181C29.8813 31.4728 30.157 31.6165 30.6031 31.6165C30.9122 31.6165 31.0144 31.5906 31.205 31.4645C31.3312 31.3809 31.4951 31.2153 31.569 31.0963C31.6916 30.8991 31.7053 30.8057 31.7248 30.0306L31.7461 29.181L32.1496 28.9875C32.9905 28.5844 33.7115 27.644 33.9121 26.6888C34.0293 26.1307 34.0293 23.5655 33.9121 23.0073C33.7109 22.0492 32.9891 21.1094 32.1465 20.7086L31.7399 20.5152L31.7217 15.1303L31.7034 9.74539L31.5514 9.51583C31.3175 9.16229 31.0406 9.0174 30.5989 9.0174C30.1573 9.0174 29.8805 9.16223 29.6464 9.51572C29.504 9.73077 29.4932 9.79268 29.4748 10.4999L29.4551 11.2547H19.4977H9.54026L9.52055 10.5042C9.50287 9.83233 9.48673 9.73106 9.36643 9.53752C9.09932 9.10786 8.51248 8.89654 8.01185 9.04974ZM29.4662 16.9186V20.3169H28.2484C27.5787 20.3169 27.0307 20.3105 27.0307 20.3028C27.0307 20.295 27.0684 20.1101 27.1147 19.8921C27.2294 19.3505 27.2215 18.8874 27.0887 18.3683C26.925 17.7285 26.6736 17.294 26.183 16.8034C25.6924 16.3128 25.2579 16.0613 24.6181 15.8977C24.1997 15.7907 23.9758 15.7858 19.4977 15.7858C15.0195 15.7858 14.7956 15.7907 14.3772 15.8977C13.7374 16.0613 13.3029 16.3128 12.8123 16.8034C11.9613 17.6544 11.6355 18.7346 11.8806 19.8921C11.9269 20.1101 11.9646 20.295 11.9646 20.3028C11.9646 20.3105 11.4167 20.3169 10.7469 20.3169H9.52915V16.9186V13.5202H19.4977H29.4662V16.9186ZM24.4083 18.2316C24.7618 18.4656 24.9067 18.7425 24.9067 19.1841C24.9067 19.6258 24.7618 19.9027 24.4083 20.1366L24.1787 20.2886H19.5018H14.8249L14.6087 20.1542C14.18 19.8877 13.9785 19.3584 14.1141 18.8549C14.1924 18.5639 14.5405 18.1929 14.8086 18.1146C14.9221 18.0815 16.7892 18.064 19.5868 18.07L24.1787 18.0797L24.4083 18.2316ZM31.1833 22.7452C31.3022 22.8191 31.4679 22.983 31.5514 23.1092L31.7034 23.3389V24.8481V26.3573L31.5514 26.5869C31.4679 26.7131 31.3022 26.877 31.1833 26.9509L30.9671 27.0853H19.4977H8.02822L7.81202 26.9509C7.69308 26.877 7.52741 26.7133 7.44387 26.5871L7.29191 26.3576L7.27412 24.9851C7.26262 24.0968 7.27871 23.5297 7.3196 23.3777C7.39573 23.095 7.74813 22.7226 8.01185 22.6462C8.12773 22.6126 12.5029 22.5957 19.5826 22.6015L30.9671 22.6108L31.1833 22.7452Z" fill="white"/>
</svg>
