<svg width="40" height="40" viewBox="0 0 40 40" fill="none" xmlns="http://www.w3.org/2000/svg">
<path fill-rule="evenodd" clip-rule="evenodd" d="M20.1278 5.03333C19.7373 5.16046 19.4858 5.47662 18.5884 6.968C17.6699 8.49462 17.1439 9.73536 17.085 10.5146C17.0167 11.4178 17.3826 12.3413 18.0858 13.0401C18.5801 13.5313 19.0174 13.7839 19.6559 13.9472C20.4563 14.1519 21.3266 14.0457 22.0793 13.6513C22.5864 13.3857 23.238 12.7182 23.4946 12.2016C23.9253 11.3348 23.9749 10.5385 23.6574 9.59082C23.239 8.3419 21.556 5.45381 21.0726 5.15501C20.8529 5.01926 20.3643 4.95635 20.1278 5.03333ZM11.0509 7.30254C10.6605 7.42967 10.4089 7.74583 9.51157 9.23722C8.59305 10.7638 8.06705 12.0046 8.00811 12.7838C7.9398 13.687 8.30577 14.6105 9.00894 15.3093C9.50323 15.8005 9.94051 16.0531 10.5791 16.2165C11.3795 16.4211 12.2498 16.3149 13.0025 15.9205C13.5095 15.6549 14.1611 14.9875 14.4178 14.4708C14.8484 13.604 14.8981 12.8077 14.5806 11.86C14.1622 10.6111 12.4792 7.72303 11.9957 7.42423C11.7761 7.28847 11.2875 7.22556 11.0509 7.30254ZM29.2047 7.30254C28.8142 7.42967 28.5626 7.74583 27.6653 9.23722C26.7468 10.7638 26.2208 12.0046 26.1618 12.7838C26.0935 13.687 26.4595 14.6105 27.1626 15.3093C27.6569 15.8005 28.0942 16.0531 28.7328 16.2165C29.5332 16.4211 30.4035 16.3149 31.1562 15.9205C31.6632 15.6549 32.3148 14.9875 32.5715 14.4708C33.0021 13.604 33.0518 12.8077 32.7343 11.86C32.3159 10.6111 30.6329 7.72303 30.1494 7.42423C29.9298 7.28847 29.4412 7.22556 29.2047 7.30254ZM20.8347 8.86762C21.0167 9.19478 21.2587 9.67341 21.3725 9.93131C21.7206 10.7205 21.629 11.2463 21.0801 11.6095C20.8892 11.7358 20.7868 11.7617 20.4772 11.7617C20.0371 11.7617 19.7544 11.6181 19.5316 11.2815C19.3027 10.9357 19.2998 10.5957 19.5212 10.0598C19.725 9.56648 20.4105 8.2728 20.4681 8.2728C20.4877 8.2728 20.6526 8.54045 20.8347 8.86762ZM11.7578 11.1368C11.9398 11.464 12.1818 11.9426 12.2956 12.2005C12.6438 12.9897 12.5521 13.5155 12.0032 13.8787C11.8123 14.0051 11.7099 14.0309 11.4004 14.0309C10.9602 14.0309 10.6776 13.8873 10.4547 13.5507C10.2259 13.2049 10.223 12.8649 10.4444 12.329C10.6482 11.8357 11.3336 10.542 11.3913 10.542C11.4108 10.542 11.5758 10.8097 11.7578 11.1368ZM29.9115 11.1368C30.0935 11.464 30.3355 11.9426 30.4493 12.2005C30.7975 12.9897 30.7059 13.5155 30.1569 13.8787C29.966 14.0051 29.8636 14.0309 29.5541 14.0309C29.1139 14.0309 28.8313 13.8873 28.6084 13.5507C28.3796 13.2049 28.3767 12.8649 28.5981 12.329C28.8019 11.8357 29.4873 10.542 29.545 10.542C29.5645 10.542 29.7295 10.8097 29.9115 11.1368ZM17.8187 16.3914C17.5499 16.4706 17.2015 16.8421 17.1231 17.1333C16.9873 17.6377 17.1891 18.1678 17.6186 18.4347C17.8124 18.5552 17.9138 18.5714 18.5868 18.5891L19.3385 18.6088V20.8744V23.1399L16.3176 23.1238L13.2967 23.1078L13.0801 22.9732C12.961 22.8991 12.7951 22.7351 12.7114 22.6087C12.5689 22.3935 12.5579 22.3309 12.5396 21.6286L12.52 20.8783L13.277 20.8584C13.9557 20.8406 14.0566 20.8246 14.2507 20.7039C14.3698 20.6299 14.5358 20.4658 14.6195 20.3393C14.7462 20.1478 14.7717 20.0464 14.7717 19.7323C14.7717 19.4183 14.7462 19.3169 14.6195 19.1253C14.5358 18.9989 14.3698 18.8347 14.2507 18.7607L14.0342 18.6261H11.3921H8.74997L8.51998 18.7783C8.16587 19.0126 8.02076 19.2899 8.02076 19.7323C8.02076 20.1747 8.16582 20.4519 8.51987 20.6864C8.73527 20.829 8.79728 20.8398 9.50567 20.8583L10.2616 20.8781V21.6293C10.2616 22.9178 10.525 23.6303 11.2808 24.3861C11.7722 24.8775 12.2075 25.1294 12.8483 25.2933C13.2578 25.398 13.4847 25.4054 16.3125 25.4054H19.3385V26.3676V27.3298L19.0974 27.3945C18.0712 27.6697 17.1862 28.1734 16.4695 28.8902C15.7654 29.5942 15.2102 30.5661 14.9715 31.5128L14.912 31.7485L14.1043 31.7681C13.3718 31.7857 13.2765 31.8001 13.0801 31.9221C12.961 31.9962 12.7951 32.1603 12.7114 32.2867C12.5846 32.4783 12.5592 32.5797 12.5592 32.8938C12.5592 33.2078 12.5846 33.3092 12.7114 33.5008C12.7951 33.6272 12.961 33.7913 13.0801 33.8654L13.2967 34H20.4772H27.6577L27.8877 33.8478C28.2418 33.6134 28.3869 33.3361 28.3869 32.8938C28.3869 32.4514 28.2419 32.1741 27.8879 31.9397C27.67 31.7955 27.6158 31.7865 26.8461 31.7681L26.0342 31.7485L25.9709 31.5128C25.59 30.0925 24.7404 28.913 23.5384 28.1357C23.0519 27.821 22.3782 27.5239 21.8488 27.3906L21.6077 27.3298V26.3676V25.4054H24.6337C27.4614 25.4054 27.6884 25.398 28.0978 25.2933C28.7387 25.1294 29.1739 24.8775 29.6653 24.3861C30.4211 23.6303 30.6845 22.9178 30.6845 21.6293V20.8781L31.4362 20.8583C32.1091 20.8406 32.2106 20.8244 32.4044 20.7039C32.5235 20.6299 32.6895 20.4658 32.7732 20.3393C32.9 20.1478 32.9254 20.0464 32.9254 19.7323C32.9254 19.4183 32.9 19.3169 32.7732 19.1253C32.6895 18.9989 32.5235 18.8347 32.4044 18.7607L32.1879 18.6261H29.5458H26.9037L26.6737 18.7783C26.3196 19.0126 26.1745 19.2899 26.1745 19.7323C26.1745 20.1747 26.3195 20.4519 26.6736 20.6864C26.8892 20.8291 26.9506 20.8398 27.6648 20.8584L28.4261 20.8783L28.4066 21.6243C28.389 22.2914 28.3727 22.3932 28.2523 22.5868C28.1783 22.706 28.0142 22.8719 27.8878 22.9556L27.6578 23.1078L24.6328 23.1238L21.6077 23.1399V20.8744V18.6088L22.3593 18.5891C23.0323 18.5714 23.1337 18.5552 23.3276 18.4347C23.4467 18.3607 23.6126 18.1966 23.6963 18.0701C23.8231 17.8785 23.8485 17.7772 23.8485 17.4631C23.8485 17.1491 23.8231 17.0477 23.6963 16.8561C23.6126 16.7296 23.4467 16.5655 23.3276 16.4915L23.111 16.3569L20.5582 16.3467C19.0463 16.3406 17.9292 16.3589 17.8187 16.3914ZM21.1822 29.5753C21.8261 29.7104 22.3656 30.0102 22.8577 30.5059C23.238 30.8892 23.65 31.508 23.65 31.6962C23.65 31.7416 22.7631 31.7592 20.4731 31.7592C18.183 31.7592 17.2962 31.7416 17.2962 31.6962C17.2962 31.508 17.7081 30.8892 18.0885 30.5059C18.9244 29.6637 20.0256 29.3325 21.1822 29.5753Z" fill="white"/>
</svg>
