<svg width="40" height="40" viewBox="0 0 40 40" fill="none" xmlns="http://www.w3.org/2000/svg">
<path fill-rule="evenodd" clip-rule="evenodd" d="M12.3149 6.04585C12.0469 6.12379 11.6984 6.4951 11.6199 6.78644C11.4843 7.29034 11.6859 7.81996 12.1149 8.0867C12.3112 8.20868 12.4064 8.22302 13.1383 8.24065L13.9452 8.26015L14.0084 8.49571C14.3661 9.82964 15.1995 11.0369 16.2589 11.756C16.7231 12.071 17.4457 12.4155 17.9362 12.5556C18.1508 12.6169 18.336 12.6767 18.3478 12.6885C18.3596 12.7003 18.3625 13.6166 18.3544 14.7247L18.3395 16.7394L17.9012 16.4123C16.236 15.1694 14.1157 14.7571 12.0957 15.2833C11.6048 15.4111 10.796 15.7742 10.3108 16.0846C9.24212 16.7682 8.30485 17.929 7.78945 19.2072L7.60586 19.6626L7.26294 19.7867C6.16287 20.1851 5.31238 21.1542 5.07636 22.2781C4.91419 23.0506 5.00987 23.786 5.36781 24.517C5.65184 25.097 6.27839 25.7262 6.84021 25.9955L7.24395 26.1891L7.26532 27.0393C7.28482 27.815 7.29848 27.9084 7.42119 28.1059C7.49516 28.2249 7.65914 28.3907 7.78548 28.4743C7.97689 28.601 8.07818 28.6264 8.39196 28.6264C8.70575 28.6264 8.80704 28.601 8.99845 28.4743C9.12479 28.3907 9.28877 28.2249 9.36274 28.1059C9.48545 27.9084 9.49911 27.815 9.51861 27.0393L9.53998 26.1891L9.94372 25.9955C10.5055 25.7262 11.1321 25.097 11.4161 24.517C11.9149 23.4983 11.903 22.3607 11.3833 21.3833C11.1548 20.9535 10.6396 20.3932 10.2458 20.1461C10.0835 20.0443 9.94094 19.9539 9.92904 19.9454C9.91708 19.9368 10.0191 19.7312 10.1558 19.4885C10.4504 18.9651 11.2078 18.1785 11.6895 17.8955C13.0666 17.0866 14.9059 17.1496 16.2901 18.0531C17.2599 18.6863 17.889 19.5645 18.2401 20.7752C18.3113 21.0206 18.3348 21.4348 18.3498 22.7032L18.3688 24.3186L17.9574 24.5122C17.6521 24.6557 17.4349 24.8166 17.1157 25.1357C16.0551 26.1955 15.8113 27.6912 16.4773 29.0515C16.7613 29.6315 17.3879 30.2607 17.9497 30.53L18.3534 30.7235L18.3748 31.5738C18.3943 32.3495 18.4079 32.4429 18.5307 32.6403C18.6046 32.7594 18.7686 32.9252 18.8949 33.0088C19.0857 33.135 19.188 33.1608 19.4973 33.1608C19.9437 33.1608 20.2196 33.0171 20.4546 32.6622C20.5996 32.4434 20.6077 32.3927 20.6281 31.5781L20.6494 30.7235L21.0532 30.53C21.615 30.2607 22.2416 29.6315 22.5256 29.0515C23.1916 27.6912 22.9478 26.1955 21.8872 25.1357C21.568 24.8166 21.3508 24.6557 21.0455 24.5122L20.634 24.3186L20.6531 22.7032C20.673 21.0089 20.6852 20.9123 20.9741 20.14C21.1463 19.6799 21.5895 19.0271 22.0048 18.6219C23.4383 17.2236 25.6535 16.9204 27.3133 17.8955C27.795 18.1785 28.5525 18.9651 28.8471 19.4885C28.9838 19.7312 29.0858 19.9368 29.0738 19.9454C29.0619 19.9539 28.9194 20.0443 28.757 20.1461C28.5947 20.248 28.3141 20.4894 28.1335 20.6827C27.1557 21.7292 26.9451 23.2065 27.5867 24.517C27.8708 25.097 28.4973 25.7262 29.0591 25.9955L29.4629 26.1891L29.4843 27.0393C29.5038 27.815 29.5174 27.9084 29.6401 28.1059C29.7141 28.2249 29.8781 28.3907 30.0044 28.4743C30.1958 28.601 30.2971 28.6264 30.6109 28.6264C30.9247 28.6264 31.026 28.601 31.2174 28.4743C31.3437 28.3907 31.5077 28.2249 31.5817 28.1059C31.7044 27.9084 31.7181 27.815 31.7376 27.0393L31.7589 26.1891L32.1627 25.9955C33.0042 25.5921 33.7258 24.651 33.9265 23.6951C34.2767 22.0272 33.3474 20.3688 31.7356 19.7851C31.3943 19.6616 31.3861 19.6536 31.262 19.3234C30.6635 17.7313 29.52 16.459 28.0319 15.7293C26.9665 15.2069 25.9985 15.0081 24.8294 15.0714C23.3247 15.1531 22.1138 15.6238 20.7909 16.6413L20.6351 16.7612V14.7181V12.675L20.8759 12.6156C21.3568 12.4969 22.1388 12.1481 22.6045 11.8445C23.7712 11.084 24.6189 9.8963 24.9945 8.49571L25.0577 8.26015L25.8646 8.24065C26.5965 8.22302 26.6917 8.20868 26.8879 8.0867C27.007 8.01273 27.1727 7.84876 27.2564 7.72242C27.383 7.531 27.4084 7.42971 27.4084 7.11593C27.4084 6.80214 27.383 6.70085 27.2564 6.50944C27.1727 6.3831 27.007 6.21912 26.8879 6.14515L26.6716 6.01065L19.5865 6.00113C15.2171 5.99529 12.4299 6.01241 12.3149 6.04585ZM22.6756 8.31246C22.6756 8.50047 22.264 9.11869 21.884 9.50169C20.5432 10.8525 18.4596 10.8525 17.1189 9.50169C16.7389 9.11869 16.3273 8.50047 16.3273 8.31246C16.3273 8.26712 17.2134 8.24955 19.5014 8.24955C21.7895 8.24955 22.6756 8.26712 22.6756 8.31246ZM9.01461 22.0441C9.35254 22.2677 9.49724 22.5503 9.49724 22.9866C9.49724 23.4286 9.35225 23.7057 8.99845 23.9398C8.68223 24.1491 8.12868 24.1572 7.80719 23.9574C7.37811 23.6906 7.1765 23.161 7.31219 22.6571C7.39019 22.3674 7.73707 21.9963 8.00716 21.9137C8.30434 21.8227 8.7715 21.8832 9.01461 22.0441ZM31.2335 22.0441C31.5715 22.2677 31.7162 22.5503 31.7162 22.9866C31.7162 23.4286 31.5712 23.7057 31.2174 23.9398C30.9012 24.1491 30.3476 24.1572 30.0261 23.9574C29.5971 23.6906 29.3954 23.161 29.5311 22.6571C29.6091 22.3674 29.956 21.9963 30.2261 21.9137C30.5233 21.8227 30.9904 21.8832 31.2335 22.0441ZM20.1241 26.5786C20.462 26.8022 20.6067 27.0847 20.6067 27.5211C20.6067 27.9631 20.4617 28.2401 20.1079 28.4743C19.7917 28.6835 19.2382 28.6917 18.9167 28.4919C18.4876 28.2251 18.286 27.6955 18.4217 27.1916C18.4997 26.9019 18.8465 26.5308 19.1166 26.4482C19.4138 26.3572 19.881 26.4177 20.1241 26.5786Z" fill="white"/>
</svg>
