<svg width="40" height="40" viewBox="0 0 40 40" fill="none" xmlns="http://www.w3.org/2000/svg">
<path fill-rule="evenodd" clip-rule="evenodd" d="M18.2253 5.11175C17.6053 5.27422 17.1662 5.53124 16.6824 6.01497C15.927 6.77046 15.6647 7.4809 15.6647 8.77122V9.52466L13.2103 9.54109L10.756 9.55752L10.5264 9.70951C10.1729 9.94353 10.028 10.2205 10.028 10.6622C10.028 11.104 10.1729 11.3809 10.5265 11.6149L10.7562 11.7669H20.1925H29.6289L29.8451 11.6324C29.9641 11.5585 30.1298 11.3946 30.2133 11.2683C30.3399 11.077 30.3653 10.9758 30.3653 10.6622C30.3653 10.3486 30.3399 10.2473 30.2133 10.056C30.1298 9.92977 29.9641 9.76588 29.8451 9.69195L29.6289 9.55752L27.1788 9.54109L24.7286 9.52466V8.77122C24.7286 7.4809 24.4663 6.77046 23.7109 6.01497C23.2202 5.52427 22.7856 5.2728 22.1456 5.10908C21.7609 5.01068 21.5229 4.9976 20.1734 5.00032C18.8509 5.00304 18.5816 5.01839 18.2253 5.11175ZM21.936 7.44352C22.0622 7.52707 22.226 7.69277 22.2999 7.81174C22.4202 8.00531 22.4364 8.1066 22.454 8.77858L22.4738 9.5292H20.2022H17.9307L17.931 8.89188C17.9312 8.54139 17.9583 8.1573 17.9913 8.03845C18.0644 7.77526 18.4254 7.40091 18.6791 7.3254C18.7837 7.29419 19.4877 7.27464 20.2859 7.2807L21.7065 7.29152L21.936 7.44352ZM10.7481 14.1248C10.3725 14.2338 10.0011 14.751 10 15.1667C9.99926 15.4306 12.3317 31.2817 12.4131 31.566C12.6501 32.3938 13.3614 33.2436 14.1364 33.625C14.9105 34.006 14.8135 34 20.1967 34C25.5798 34 25.4828 34.006 26.257 33.625C27.0319 33.2436 27.7432 32.3938 27.9802 31.566C28.1352 31.0248 30.4034 15.3105 30.3676 15.0261C30.3277 14.7086 30.1255 14.3983 29.8451 14.2239L29.6289 14.0895L20.2816 14.0801C14.4862 14.0743 10.8636 14.0913 10.7481 14.1248ZM27.9342 16.483C27.9163 16.5686 27.4413 19.8126 26.8787 23.6917C26.316 27.5708 25.8302 30.8415 25.799 30.96C25.7264 31.236 25.3661 31.5976 25.0864 31.6753C24.7869 31.7585 15.6064 31.7585 15.3069 31.6753C15.0272 31.5976 14.6669 31.236 14.5943 30.96C14.5631 30.8415 14.0773 27.5708 13.5146 23.6917C12.952 19.8126 12.477 16.5686 12.4591 16.483L12.4266 16.3272H20.1967H27.9667L27.9342 16.483ZM17.5461 18.6539C17.2845 18.7339 16.9293 19.1077 16.856 19.3801C16.8143 19.5351 16.7999 21.0402 16.8105 24.1558L16.826 28.7052L16.9604 28.9214C17.0343 29.0404 17.1982 29.2061 17.3245 29.2897C17.5158 29.4163 17.617 29.4417 17.9307 29.4417C18.2443 29.4417 18.3455 29.4163 18.5368 29.2897C18.6631 29.2061 18.827 29.0404 18.9009 28.9214L19.0353 28.7052V24.0316V19.358L18.9009 19.1417C18.6337 18.712 18.0468 18.5006 17.5461 18.6539ZM22.0781 18.6539C21.8165 18.7339 21.4613 19.1077 21.388 19.3801C21.3462 19.5351 21.3319 21.0402 21.3425 24.1558L21.358 28.7052L21.4924 28.9214C21.5663 29.0404 21.7302 29.2061 21.8565 29.2897C22.0478 29.4163 22.149 29.4417 22.4627 29.4417C22.7763 29.4417 22.8775 29.4163 23.0688 29.2897C23.1951 29.2061 23.359 29.0404 23.4329 28.9214L23.5673 28.7052V24.0316V19.358L23.4329 19.1417C23.1657 18.712 22.5788 18.5006 22.0781 18.6539Z" fill="white"/>
</svg>
