<svg width="40" height="40" viewBox="0 0 40 40" fill="none" xmlns="http://www.w3.org/2000/svg">
<path fill-rule="evenodd" clip-rule="evenodd" d="M14.5746 5.04591C14.3213 5.1198 13.959 5.49476 13.8856 5.75911C13.8492 5.89015 13.8254 6.67479 13.8252 7.74626L13.8249 9.51691L11.9284 9.53393L10.032 9.55096L9.78608 9.72121C9.55709 9.87972 9.4677 10.0352 8.4918 11.9722L7.44355 14.053L6.58632 14.072C5.76694 14.0902 5.71898 14.0978 5.49924 14.2433C5.14511 14.4778 5 14.7553 5 15.1977C5 15.6402 5.14517 15.9177 5.4993 16.1521C5.70814 16.2903 5.78799 16.3061 6.37123 16.3246L7.0132 16.345L7.02813 24.8132L7.04305 33.2814L7.19532 33.5114C7.27903 33.638 7.44502 33.8021 7.5642 33.8762L7.78082 34.0108H19.5041H31.2275L31.4575 33.8586C31.584 33.7749 31.7482 33.6089 31.8223 33.4897L31.9569 33.2731L31.9719 24.809L31.9868 16.345L32.6288 16.3246C33.212 16.3061 33.2919 16.2903 33.5007 16.1521C33.8561 15.9169 34 15.6406 34 15.1936C34 14.8839 33.9741 14.7815 33.8477 14.5905C33.764 14.464 33.598 14.2998 33.4788 14.2257C33.2806 14.1025 33.1901 14.0895 32.4094 14.072L31.5565 14.053L30.5082 11.9722C29.5323 10.0352 29.4429 9.87972 29.2139 9.72121L28.968 9.55096L27.0744 9.53393L25.1808 9.51691L25.1638 7.63276C25.1469 5.76263 25.1458 5.74702 25.0121 5.53199C24.938 5.41281 24.7739 5.24681 24.6474 5.1631L24.4173 5.01084L19.5893 5.00114C16.643 4.99523 14.6885 5.01266 14.5746 5.04591ZM22.9164 9.14377L22.9335 11.035L23.0857 11.265C23.1694 11.3914 23.3354 11.5555 23.4546 11.6296C23.671 11.7641 23.6734 11.7643 25.773 11.781L27.8747 11.7977L28.4261 12.9022C28.7294 13.5097 28.9775 14.0193 28.9775 14.0347C28.9775 14.0501 24.7126 14.0627 19.5 14.0627C14.2874 14.0627 10.0225 14.0501 10.0225 14.0347C10.0225 14.0193 10.2706 13.5097 10.5739 12.9022L11.1253 11.7977L13.227 11.781C15.3266 11.7643 15.329 11.7641 15.5454 11.6296C15.6646 11.5555 15.8306 11.3914 15.9143 11.265L16.0665 11.035L16.0836 9.14377L16.1006 7.25252H19.5H22.8994L22.9164 9.14377ZM29.7153 24.051V31.7692H28.5802H27.4452V26.5855C27.4452 21.6091 27.4407 21.3843 27.3331 20.9635C27.1691 20.3224 26.9172 19.887 26.4256 19.3954C25.934 18.9038 25.4986 18.6519 24.8576 18.4879C24.4376 18.3805 24.2131 18.3758 19.5 18.3758C14.7869 18.3758 14.5624 18.3805 14.1424 18.4879C13.5014 18.6519 13.066 18.9038 12.5744 19.3954C12.0828 19.887 11.8309 20.3224 11.6669 20.9635C11.5593 21.3843 11.5548 21.6091 11.5548 26.5855V31.7692H10.4198H9.28474V24.051V16.3328H19.5H29.7153V24.051ZM24.6474 20.8265C24.7739 20.9102 24.938 21.0762 25.0121 21.1954L25.1468 21.412L25.1621 26.5906L25.1775 31.7692L22.5515 31.766L19.9256 31.7629L20.3398 31.6544C20.9587 31.4923 21.4007 31.2339 21.8882 30.7496C22.5916 30.0505 22.9577 29.1267 22.8894 28.2232C22.8304 27.4436 22.3042 26.2024 21.3853 24.6752C20.3201 22.9047 20.1396 22.7173 19.5 22.7173C18.8604 22.7173 18.6799 22.9047 17.6147 24.6752C16.6958 26.2024 16.1696 27.4436 16.1106 28.2232C16.0423 29.1267 16.4084 30.0505 17.1118 30.7496C17.5993 31.2339 18.0413 31.4923 18.6602 31.6544L19.0744 31.7629L16.4496 31.766L13.8249 31.7692L13.8252 26.7041C13.8254 23.3132 13.8453 21.5675 13.8856 21.4225C13.959 21.1582 14.3213 20.7832 14.5746 20.7093C14.6885 20.6761 16.643 20.6586 19.5893 20.6645L24.4173 20.6742L24.6474 20.8265ZM19.9026 26.6473C20.4539 27.6626 20.6459 28.1635 20.6112 28.4957C20.5752 28.8407 20.4021 29.1233 20.1072 29.3185C19.9163 29.4448 19.8138 29.4707 19.5041 29.4707C19.0639 29.4707 18.7811 29.3271 18.5582 28.9903C18.3292 28.6444 18.3263 28.3043 18.5478 27.7682C18.7605 27.2533 19.4384 25.9805 19.5 25.9805C19.5223 25.9805 19.7035 26.2806 19.9026 26.6473Z" fill="white"/>
</svg>
