<svg width="40" height="40" viewBox="0 0 40 40" fill="none" xmlns="http://www.w3.org/2000/svg">
<path fill-rule="evenodd" clip-rule="evenodd" d="M16.8447 5.04588C16.591 5.12056 16.229 5.49552 16.1557 5.75958C16.1193 5.89057 16.0954 6.67447 16.0953 7.74401L16.0949 9.51193L15.3335 9.53168C14.1827 9.56153 14.3201 9.4158 13.0318 11.9731L11.9833 14.0542L11.0128 14.0729C10.0697 14.091 10.0357 14.0959 9.81235 14.2438C9.45822 14.4783 9.31311 14.7558 9.31311 15.1982C9.31311 15.6408 9.45828 15.9182 9.81252 16.1526L10.0426 16.3049H19.5H28.9574L29.1875 16.1526C29.543 15.9174 29.6869 15.6411 29.6869 15.1941C29.6869 14.8844 29.661 14.7819 29.5346 14.591C29.4509 14.4645 29.2849 14.3003 29.1657 14.2262C28.9638 14.1007 28.8838 14.0903 27.9829 14.0729L27.0167 14.0542L25.9682 11.9731C24.6802 9.41648 24.8168 9.56153 23.6692 9.53174L22.9107 9.51205L22.8937 7.62631L22.8767 5.74057L22.7244 5.51061C22.6407 5.38417 22.4747 5.22005 22.3556 5.14599L22.1389 5.01131L19.5851 5.00116C18.0727 4.99508 16.9552 5.01336 16.8447 5.04588ZM20.635 8.38803V9.52306H19.5H18.365V8.38803V7.253H19.5H20.635V8.38803ZM23.8847 12.9002C24.1887 13.509 24.4374 14.0198 24.4374 14.0352C24.4374 14.0506 22.2156 14.0632 19.5 14.0632C16.7844 14.0632 14.5626 14.0506 14.5626 14.0352C14.5626 14.0198 14.8113 13.509 15.1153 12.9002L15.6679 11.7931H19.5H23.3321L23.8847 12.9002ZM14.5746 20.4801C14.3196 20.5582 13.9586 20.9332 13.8856 21.196C13.8525 21.315 13.8254 21.6991 13.8252 22.0495L13.8249 22.6865L9.77711 22.7021L5.72943 22.7178L5.49936 22.87C5.37286 22.9537 5.20873 23.1197 5.13467 23.2389L5 23.4555V28.3645V33.2735L5.13467 33.4902C5.20873 33.6093 5.37291 33.7753 5.49941 33.859L5.72948 34.0113H19.5H33.2705L33.5006 33.859C33.6271 33.7753 33.7913 33.6093 33.8653 33.4902L34 33.2735V28.3645V23.4555L33.8653 23.2389C33.7913 23.1197 33.6271 22.9537 33.5006 22.87L33.2706 22.7178L29.2284 22.7021L25.1862 22.6865L25.1665 21.936C25.1488 21.2643 25.1326 21.1627 25.0121 20.9689C24.938 20.8497 24.7739 20.6837 24.6474 20.6C24.4557 20.4731 24.3543 20.4477 24.0401 20.4477C23.7259 20.4477 23.6245 20.4731 23.4329 20.6C23.3064 20.6837 23.1422 20.8497 23.0681 20.9689C22.9476 21.1628 22.9314 21.2643 22.9137 21.9374L22.894 22.6894H19.5H16.106L16.0863 21.9332C16.0678 21.2245 16.0569 21.1625 15.9143 20.947C15.8306 20.8206 15.6714 20.661 15.5606 20.5926C15.3288 20.4493 14.8527 20.395 14.5746 20.4801ZM18.365 28.3645V31.7696H12.8033H7.24168V28.3645V24.9595H12.8033H18.365V28.3645ZM31.7583 28.3645V31.7696H26.1967H20.635V28.3645V24.9595H26.1967H31.7583V28.3645ZM12.3045 27.2903C12.0341 27.373 11.6868 27.7446 11.6087 28.0346C11.4728 28.5392 11.6747 29.0695 12.1043 29.3365C12.4262 29.5366 12.9804 29.5285 13.2971 29.3189C13.6513 29.0845 13.7965 28.8071 13.7965 28.3645C13.7965 27.9277 13.6516 27.6448 13.3132 27.4209C13.0698 27.2598 12.6021 27.1992 12.3045 27.2903ZM25.9249 27.2903C25.6545 27.373 25.3072 27.7446 25.2291 28.0346C25.0932 28.5392 25.2951 29.0695 25.7247 29.3365C26.0466 29.5366 26.6008 29.5285 26.9174 29.3189C27.2717 29.0845 27.4168 28.8071 27.4168 28.3645C27.4168 27.9277 27.2719 27.6448 26.9336 27.4209C26.6902 27.2598 26.2224 27.1992 25.9249 27.2903Z" fill="white"/>
</svg>
