<svg width="40" height="40" viewBox="0 0 40 40" fill="none" xmlns="http://www.w3.org/2000/svg">
<path fill-rule="evenodd" clip-rule="evenodd" d="M5.73968 6.04587C5.47999 6.12107 5.12274 6.49539 5.0489 6.76961C5.0071 6.92483 4.99275 8.49952 5.00336 11.7777L5.01878 16.5594L5.15337 16.7758C5.22738 16.8949 5.39146 17.0608 5.51787 17.1445L5.74779 17.2966H19.5053H33.2627L33.4792 17.1621C33.5983 17.0881 33.7642 16.924 33.8478 16.7976L34 16.5676V11.6535V6.73943L33.8478 6.50951C33.7642 6.3831 33.5983 6.21902 33.4792 6.14501L33.2627 6.01042L19.5945 6.00112C11.0752 5.99534 5.85595 6.01218 5.73968 6.04587ZM18.3751 11.6535V15.0564H12.8171H7.25901V11.6535V8.25065H12.8171H18.3751V11.6535ZM31.7598 11.6535V15.0564H26.2017H20.6437V11.6535V8.25065H26.2017H31.7598V11.6535ZM12.3186 10.58C12.0483 10.6627 11.7013 11.034 11.6232 11.3239C11.4874 11.828 11.6892 12.358 12.1185 12.6249C12.4402 12.8249 12.9941 12.8167 13.3105 12.6073C13.6645 12.373 13.8096 12.0958 13.8096 11.6535C13.8096 11.2169 13.6648 10.9342 13.3266 10.7105C13.0834 10.5495 12.6159 10.489 12.3186 10.58ZM25.9301 10.58C25.6599 10.6627 25.3128 11.034 25.2347 11.3239C25.099 11.828 25.3007 12.358 25.73 12.6249C26.0517 12.8249 26.6056 12.8167 26.922 12.6073C27.276 12.373 27.4211 12.0958 27.4211 11.6535C27.4211 11.2169 27.2763 10.9342 26.9382 10.7105C26.6949 10.5495 26.2275 10.489 25.9301 10.58ZM20.9387 19.2546C20.3179 19.4172 19.8784 19.6745 19.394 20.1588C18.9028 20.6501 18.651 21.0852 18.4871 21.7258C18.3824 22.1352 18.3751 22.3621 18.3751 25.1891V28.2142H17.2464H16.1176L16.0979 27.4628C16.0802 26.79 16.064 26.6886 15.9436 26.4948C15.8696 26.3757 15.7055 26.2098 15.5791 26.1262C15.3875 25.9994 15.2862 25.974 14.9722 25.974C14.6582 25.974 14.5569 25.9994 14.3654 26.1262C14.239 26.2098 14.0749 26.3757 14.0009 26.4948C13.8804 26.6886 13.8642 26.7901 13.8466 27.4613L13.8269 28.2113L9.7915 28.2269L5.75607 28.2426L5.53959 28.3772C5.42049 28.4512 5.2546 28.6153 5.17095 28.7417L5.01878 28.9716V31.6171V34.2626L5.17095 34.4925C5.2546 34.619 5.42049 34.783 5.53959 34.8571L5.75607 34.9916H19.5094H33.2627L33.4792 34.8571C33.5983 34.783 33.7642 34.619 33.8478 34.4925L34 34.2626V31.6171V28.9716L33.8478 28.7417C33.7642 28.6153 33.5983 28.4512 33.4792 28.3772L33.2627 28.2426L29.2273 28.2269L25.1919 28.2113L25.1722 27.4613C25.1545 26.7901 25.1384 26.6886 25.0179 26.4948C24.9439 26.3757 24.7798 26.2098 24.6534 26.1262C24.4619 25.9994 24.3605 25.974 24.0466 25.974C23.7326 25.974 23.6312 25.9994 23.4397 26.1262C23.3133 26.2098 23.1492 26.3757 23.0752 26.4948C22.9548 26.6886 22.9386 26.79 22.9209 27.4628L22.9012 28.2142H21.7705H20.6399L20.656 25.1942L20.672 22.1741L20.8066 21.9576C20.8806 21.8385 21.0447 21.6726 21.1711 21.589C21.362 21.4627 21.4643 21.4368 21.7738 21.4368C22.443 21.4368 22.8054 21.7888 22.9123 22.5428C23.0192 23.2967 23.3815 23.6487 24.0507 23.6487C24.3602 23.6487 24.4626 23.6228 24.6534 23.4965C24.7798 23.4129 24.94 23.2527 25.0092 23.1406C25.2836 22.6967 25.195 21.7948 24.7987 20.9971C24.5421 20.4806 23.8907 19.8133 23.3838 19.5478C22.6334 19.1546 21.7326 19.0466 20.9387 19.2546ZM31.7598 31.6171V32.7514H19.5094H7.25901V31.6171V30.4828H19.5094H31.7598V31.6171Z" fill="white"/>
</svg>
