<svg width="40" height="40" viewBox="0 0 40 40" fill="none" xmlns="http://www.w3.org/2000/svg">
<path fill-rule="evenodd" clip-rule="evenodd" d="M19.5776 5.03145C19.3383 5.10873 19.0994 5.3011 18.9556 5.53253C18.8287 5.73653 18.823 5.79832 18.7957 7.25088L18.7673 8.75763L18.6152 8.98731C18.3809 9.34109 18.1038 9.48606 17.6617 9.48606C16.9973 9.48606 16.6345 9.13234 16.5278 8.38049C16.4212 7.62864 16.0584 7.27492 15.3939 7.27492C14.5049 7.27492 14.0959 7.97755 14.3417 9.08244C14.4913 9.75475 14.7756 10.2664 15.2759 10.7637C16.134 11.6163 17.2128 11.9415 18.3705 11.6962C18.5887 11.65 18.7749 11.6122 18.7842 11.6122C18.7935 11.6122 18.7935 12.4987 18.7842 13.5824C18.7674 15.5432 18.7667 15.5536 18.6328 15.769C18.5588 15.888 18.3948 16.0538 18.2684 16.1375C18.0769 16.2642 17.9756 16.2896 17.6617 16.2896C16.9961 16.2896 16.6344 15.9356 16.5271 15.1792C16.4212 14.4325 16.0567 14.0784 15.3939 14.0784C14.5049 14.0784 14.0959 14.7811 14.3417 15.886C14.4913 16.5583 14.7756 17.07 15.2759 17.5672C16.134 18.4198 17.2128 18.745 18.3705 18.4998C18.5887 18.4535 18.7737 18.4157 18.7815 18.4157C18.7893 18.4157 18.7943 20.4376 18.7925 22.9089L18.7893 27.402L18.3899 27.5927C17.8928 27.83 17.314 28.3644 17.0221 28.8555C16.7496 29.314 16.5986 29.8135 16.5309 30.4801C16.4691 31.09 16.3534 31.3253 16.0006 31.5588C15.8098 31.6851 15.7074 31.7109 15.398 31.7109C14.7308 31.7109 14.3669 31.3587 14.2607 30.6102C14.1907 30.1167 14.0504 29.8621 13.7327 29.6519C13.5412 29.5252 13.4399 29.4998 13.1261 29.4998C12.8122 29.4998 12.7109 29.5252 12.5194 29.6519C12.0393 29.9696 11.8953 30.5046 12.0738 31.3073C12.2235 31.9796 12.5078 32.4913 13.0081 32.9885C13.5021 33.4794 13.9391 33.7319 14.5773 33.8951C15.6966 34.1814 16.8571 33.8742 17.7175 33.0639C18.3676 32.4517 18.6991 31.7337 18.7941 30.7322C18.8519 30.1235 18.9676 29.887 19.3229 29.6519C19.5144 29.5252 19.6157 29.4998 19.9296 29.4998C20.2435 29.4998 20.3448 29.5252 20.5362 29.6519C20.8916 29.887 21.0073 30.1235 21.065 30.7322C21.1601 31.7337 21.4916 32.4517 22.1416 33.0639C23.0021 33.8742 24.1626 34.1814 25.2819 33.8951C25.9201 33.7319 26.3571 33.4794 26.8511 32.9885C27.3514 32.4913 27.6357 31.9796 27.7853 31.3073C27.9639 30.5046 27.8199 29.9696 27.3398 29.6519C27.1483 29.5252 27.047 29.4998 26.7331 29.4998C26.0691 29.4998 25.7057 29.854 25.5992 30.6053C25.5299 31.0937 25.3886 31.3493 25.0719 31.5588C24.8805 31.6855 24.7791 31.7109 24.4653 31.7109C24.1514 31.7109 24.0501 31.6855 23.8586 31.5588C23.5058 31.3253 23.3901 31.09 23.3282 30.4801C23.2606 29.8135 23.1096 29.314 22.8371 28.8555C22.5452 28.3644 21.9664 27.83 21.4693 27.5927L21.0699 27.402L21.0667 24.0428C21.0649 22.1952 21.0699 20.6835 21.0777 20.6835C21.0855 20.6835 21.2705 20.7214 21.4887 20.7676C22.0309 20.8824 22.4945 20.8745 23.0141 20.7416C23.6523 20.5784 24.0893 20.326 24.5833 19.835C25.0835 19.3378 25.3679 18.8261 25.5175 18.1538C25.696 17.3511 25.5521 16.8161 25.0719 16.4984C24.8805 16.3717 24.7791 16.3463 24.4653 16.3463C23.8013 16.3463 23.4379 16.7005 23.3314 17.4519C23.2621 17.9402 23.1208 18.1958 22.8041 18.4053C22.6126 18.532 22.5113 18.5574 22.1974 18.5574C21.8836 18.5574 21.7822 18.532 21.5908 18.4053C21.4644 18.3217 21.3004 18.1559 21.2264 18.0368C21.0925 17.8214 21.0918 17.8111 21.075 15.8502C21.0657 14.7666 21.0657 13.88 21.075 13.88C21.0843 13.88 21.2705 13.9178 21.4887 13.9641C22.2751 14.1306 23.086 14.0179 23.8027 13.6423C24.3095 13.3769 24.9607 12.7099 25.2172 12.1935C25.6251 11.3725 25.7049 10.474 25.4096 10.0279C25.1836 9.68631 24.9029 9.54276 24.4611 9.54276C23.8016 9.54276 23.4377 9.89892 23.3314 10.6483C23.2621 11.1367 23.1208 11.3922 22.8041 11.6018C22.6126 11.7285 22.5113 11.7539 22.1974 11.7539C21.8836 11.7539 21.7822 11.7285 21.5908 11.6018C21.4644 11.5182 21.3004 11.3523 21.2264 11.2333L21.0919 11.0169L21.0635 8.38049L21.0352 5.74412L20.9006 5.52771C20.7084 5.21861 20.4015 5.03332 20.035 5.0052C19.8679 4.99233 19.662 5.00418 19.5776 5.03145Z" fill="white"/>
</svg>
