<svg width="40" height="40" viewBox="0 0 40 40" fill="none" xmlns="http://www.w3.org/2000/svg">
<path fill-rule="evenodd" clip-rule="evenodd" d="M5.73736 6.04587C5.46924 6.12352 5.12042 6.49509 5.04192 6.78674C4.90608 7.29109 5.108 7.82136 5.53725 8.08754C5.7242 8.20353 5.84093 8.22469 6.39184 8.2425L7.02993 8.26309V15.0572V21.8512L6.38759 21.8717C5.80389 21.8901 5.7242 21.9059 5.51541 22.0441C5.16149 22.2783 5.0164 22.5556 5.0164 22.9979C5.0164 23.4401 5.16149 23.7174 5.51541 23.9517C5.72414 24.0898 5.804 24.1056 6.3864 24.1241L7.02755 24.1445L7.04292 29.2005L7.05829 34.2567L7.19289 34.4732C7.26691 34.5923 7.431 34.7582 7.55743 34.8418L7.78737 34.994H11.5675H15.3476L15.5775 34.8418C15.704 34.7582 15.8681 34.5923 15.9421 34.4732L16.0767 34.2567L16.0947 31.8461C16.1138 29.2805 16.0819 28.7581 15.8506 27.8474C15.3784 25.9873 14.1585 24.2632 12.5654 23.2044L12.0654 22.8721L12.6383 22.568C13.8808 21.9083 15.1194 20.9839 16.1623 19.9376C17.3965 18.6996 18.2625 17.4902 19.0156 15.9532C19.2709 15.4321 19.4926 15.0058 19.5082 15.0058C19.5238 15.0058 19.7455 15.4321 20.0007 15.9532C20.7543 17.4909 21.6356 18.7223 22.852 19.9365C23.2122 20.2961 23.7239 20.7641 23.989 20.9766C24.6366 21.4957 25.858 22.3045 26.4534 22.6086C26.7199 22.7447 26.9364 22.8688 26.9345 22.8844C26.9326 22.9 26.7094 23.0532 26.4385 23.2248C26.1188 23.4272 25.7156 23.7657 25.2901 24.189C24.0987 25.3739 23.431 26.5895 23.0682 28.2338C22.9458 28.7883 22.9406 28.9215 22.9402 31.5341L22.9397 34.2567L23.0743 34.4732C23.1483 34.5923 23.3124 34.7582 23.4389 34.8418L23.6688 34.994H27.4489H31.229L31.459 34.8418C31.5854 34.7582 31.7495 34.5923 31.8235 34.4732L31.9581 34.2567L31.9735 29.2005L31.9888 24.1445L32.6257 24.1239C33.3603 24.1002 33.5824 24.0058 33.8478 23.6048C33.9746 23.4132 34 23.3119 34 22.9979C34 22.6839 33.9746 22.5825 33.8478 22.391C33.5823 21.9898 33.3604 21.8956 32.6246 21.8718L31.9865 21.8512V15.0572V8.26309L32.6246 8.2425C33.3604 8.21874 33.5823 8.12453 33.8478 7.72335C33.9746 7.53181 34 7.43045 34 7.11645C34 6.80245 33.9746 6.7011 33.8478 6.50955C33.7642 6.38313 33.5983 6.21904 33.4791 6.14502L33.2626 6.01042L19.5933 6.00112C11.0733 5.99534 5.85363 6.01218 5.73736 6.04587ZM18.3723 9.00237C18.3698 10.3302 18.2135 11.4945 17.8832 12.6466C16.8875 16.1192 14.5991 18.9544 11.4316 20.6397C10.9372 20.9027 9.8258 21.3758 9.42633 21.4933L9.29871 21.5308V14.8908V8.25084H13.8363H18.3738L18.3723 9.00237ZM29.7177 14.887C29.7177 18.5369 29.7038 21.5232 29.6868 21.5232C29.6128 21.5232 28.5471 21.1042 28.118 20.9065C27.8592 20.7872 27.3595 20.5184 27.0077 20.3092C23.6594 18.3186 21.3945 14.9519 20.7844 11.0584C20.7355 10.7465 20.6798 9.98713 20.6605 9.37105L20.6255 8.25084H25.1716H29.7177V14.887ZM9.73613 24.3574C10.1587 24.4665 10.7894 24.7613 11.274 25.0762C12.444 25.8366 13.3073 27.0554 13.6786 28.4713C13.7852 28.8777 13.8001 29.1246 13.8215 30.8393L13.8454 32.7536H11.5721H9.29871V28.4959C9.29871 24.4676 9.30404 24.2396 9.39797 24.2669C9.45259 24.2827 9.60471 24.3234 9.73613 24.3574ZM29.7177 28.4997V32.7536H27.4443H25.1709L25.1949 30.8393C25.2163 29.1246 25.2312 28.8777 25.3378 28.4713C25.5834 27.5349 26.06 26.6503 26.6994 25.944C27.3299 25.2477 28.3282 24.6352 29.2923 24.3533C29.4795 24.2986 29.6517 24.2519 29.6751 24.2497C29.6986 24.2475 29.7177 26.16 29.7177 28.4997Z" fill="white"/>
</svg>
