<svg width="40" height="40" viewBox="0 0 40 40" fill="none" xmlns="http://www.w3.org/2000/svg">
<path fill-rule="evenodd" clip-rule="evenodd" d="M5.7481 10.0498C5.49351 10.1277 5.13315 10.5021 5.06035 10.7644C5.01956 10.9111 5.00019 13.2443 5.00002 18.0387C4.99968 24.8828 5.00308 25.1102 5.11156 25.5345C5.27529 26.1744 5.52676 26.6091 6.01748 27.0998C6.77231 27.8546 7.48374 28.1176 8.77052 28.1176H9.5207L9.54041 28.8682C9.55809 29.5402 9.57424 29.6415 9.69456 29.8351C9.76849 29.9541 9.93239 30.1198 10.0587 30.2033C10.2493 30.3295 10.3516 30.3553 10.6607 30.3553C11.1069 30.3553 11.3827 30.2117 11.6175 29.8569C11.76 29.6418 11.7708 29.5799 11.7893 28.8725L11.809 28.1176H19.5025H27.196L27.2157 28.8725C27.2342 29.5799 27.245 29.6418 27.3874 29.8569C27.6215 30.2105 27.8984 30.3553 28.3401 30.3553C28.7818 30.3553 29.0588 30.2105 29.2928 29.8569C29.4353 29.6418 29.4461 29.5799 29.4645 28.8725L29.4843 28.1176H30.2344C31.5197 28.1176 32.2299 27.8553 32.9901 27.0998C33.2955 26.7963 33.4785 26.5543 33.6236 26.2625C34.0279 25.4486 34.0104 25.8439 33.9928 17.8878L33.977 10.7456L33.825 10.5159C33.5909 10.1623 33.314 10.0174 32.8723 10.0174C32.4305 10.0174 32.1536 10.1623 31.9195 10.5158C31.7771 10.7309 31.7663 10.7929 31.7478 11.5003L31.7281 12.2551H19.5025H7.27684L7.25713 11.5045C7.23945 10.8325 7.22331 10.7312 7.10298 10.5376C6.83581 10.1079 6.24884 9.89651 5.7481 10.0498ZM9.5318 17.9203V21.3194H8.39877H7.26574V17.9203V14.5212H8.39877H9.5318V17.9203ZM14.0639 17.9203V21.3194H12.9309H11.7979V17.9203V14.5212H12.9309H14.0639V17.9203ZM18.3694 17.9203V21.3194H17.3497H16.33V17.9203V14.5212H17.3497H18.3694V17.9203ZM22.9016 17.9203V21.3194H21.7685H20.6355V17.9203V14.5212H21.7685H22.9016V17.9203ZM27.2071 17.9203V21.3194H26.1874H25.1676V17.9203V14.5212H26.1874H27.2071V17.9203ZM31.7392 17.9203V21.3194H30.6062H29.4732V17.9203V14.5212H30.6062H31.7392V17.9203ZM31.7306 24.3403C31.7121 25.0478 31.7013 25.1097 31.5589 25.3248C31.4753 25.451 31.3096 25.6148 31.1907 25.6888L30.9744 25.8232H19.4983H8.02227L7.7926 25.6712C7.66632 25.5876 7.50243 25.4219 7.4285 25.303C7.30817 25.1094 7.29203 25.0081 7.27435 24.3361L7.25464 23.5855H19.5025H31.7503L31.7306 24.3403Z" fill="white"/>
</svg>
