<svg width="40" height="40" viewBox="0 0 40 40" fill="none" xmlns="http://www.w3.org/2000/svg">
<path fill-rule="evenodd" clip-rule="evenodd" d="M23.9307 9.03514C23.8524 9.0593 19.6329 11.6763 14.5542 14.8505C4.2331 21.3014 5.01346 20.7609 5.01346 21.4581C5.01346 21.9049 5.15732 22.1811 5.51265 22.4162C5.70392 22.5428 5.80574 22.5684 6.1179 22.5684H6.4932L8.00815 21.6215L9.52311 20.6746V25.0363V29.3981L7.63275 29.4151L5.74238 29.4321L5.51253 29.5843C5.15851 29.8187 5.01346 30.096 5.01346 30.5383C5.01346 30.9806 5.15857 31.2579 5.51265 31.4922L5.74261 31.6444H19.5067H33.2709L33.5008 31.4922C33.6273 31.4085 33.7914 31.2426 33.8654 31.1235L34 30.907V23.7313V16.5555L33.8654 16.339C33.7914 16.2199 33.6273 16.054 33.5009 15.9703L33.271 15.8181L29.3386 15.8024L25.4061 15.7867V13.5207V11.2547L29.3386 11.239L33.271 11.2234L33.5009 11.0712C33.8549 10.8368 34 10.5596 34 10.1172C34 9.67488 33.8549 9.39761 33.5008 9.16328L33.2709 9.01109L28.672 9.0011C26.1426 8.99566 24.009 9.01092 23.9307 9.03514ZM23.1371 16.2435V20.3277H20.8681H18.5991V17.6656V15.0035L20.854 13.5864C22.0941 12.807 23.1152 12.1671 23.123 12.1643C23.1307 12.1616 23.1371 13.9972 23.1371 16.2435ZM16.3301 20.6397V24.8658H14.0611H11.7921V22.0618V19.2579L14.0469 17.8408C15.2871 17.0614 16.3082 16.4215 16.3159 16.4187C16.3237 16.416 16.3301 18.3154 16.3301 20.6397ZM31.7594 23.7313V29.4038H21.7757H11.7921V28.2711V27.1386L14.8127 27.1224L17.8333 27.1064L18.0499 26.9718C18.169 26.8978 18.3349 26.7337 18.4186 26.6073L18.5708 26.3775L18.5878 24.489L18.6048 22.6006L21.6226 22.5844L24.6404 22.5684L24.8569 22.4338C24.976 22.3598 25.1419 22.1957 25.2256 22.0693L25.3778 21.8395L25.3948 19.9491L25.4118 18.0587H28.5856H31.7594V23.7313Z" fill="white"/>
</svg>
