<svg width="40" height="40" viewBox="0 0 40 40" fill="none" xmlns="http://www.w3.org/2000/svg">
<path fill-rule="evenodd" clip-rule="evenodd" d="M20.6879 6.11212C20.0673 6.27472 19.6279 6.53195 19.1437 7.01608C18.6526 7.50718 18.4009 7.94215 18.2371 8.58259C18.1335 8.98797 18.1251 9.21707 18.1251 11.6671C18.1251 14.6208 18.1437 14.7974 18.5329 15.5402C18.7738 16.0001 19.4617 16.688 19.9216 16.9289C20.6251 17.2975 20.9247 17.3367 23.0384 17.3367H24.9286V18.3566V19.3764L15.3287 19.3913L5.72877 19.4061L5.49892 19.5582C5.37249 19.6418 5.20853 19.8077 5.13454 19.9267L5 20.1431V27.2018V34.2604L5.13454 34.4768C5.20853 34.5959 5.37255 34.7617 5.49892 34.8454C5.69039 34.9721 5.7917 34.9975 6.10557 34.9975C6.41944 34.9975 6.52076 34.9721 6.71222 34.8454C6.83859 34.7617 7.00262 34.5959 7.0766 34.4768C7.19703 34.2831 7.21318 34.1817 7.23087 33.5092L7.2506 32.758H11.7752H16.2997L16.3195 33.5092C16.3372 34.1817 16.3533 34.2831 16.4737 34.4768C16.5477 34.5959 16.7117 34.7617 16.8381 34.8454C17.0296 34.9721 17.1309 34.9975 17.4448 34.9975C17.7586 34.9975 17.86 34.9721 18.0514 34.8454C18.1778 34.7617 18.3418 34.5959 18.4158 34.4768L18.5503 34.2604L18.5659 30.1074L18.5815 25.9545H25.1554H31.7293L31.7449 30.1074L31.7605 34.2604L31.895 34.4768C31.969 34.5959 32.1331 34.7617 32.2594 34.8454C32.4509 34.9721 32.5522 34.9975 32.8661 34.9975C33.18 34.9975 33.2813 34.9721 33.4727 34.8454C33.5991 34.7617 33.7631 34.5959 33.8371 34.4768L33.9717 34.2604V27.1976V20.1349L33.8195 19.905C33.7359 19.7786 33.5701 19.6146 33.451 19.5406L33.2346 19.4061L30.2155 19.39L27.1965 19.3739V18.3553V17.3367H29.0867C31.2005 17.3367 31.5 17.2975 32.2035 16.9289C32.6635 16.688 33.3513 16.0001 33.5922 15.5402C33.9814 14.7974 34 14.6208 34 11.6671C34 9.21707 33.9917 8.98797 33.888 8.58259C33.7242 7.94215 33.4725 7.50718 32.9814 7.01608C32.4903 6.52498 32.0553 6.2733 31.4149 6.10945C30.9948 6.00201 30.7766 5.99759 26.0393 6.0006C21.3651 6.00354 21.0796 6.0095 20.6879 6.11212ZM31.2049 8.44578C31.3313 8.52941 31.4953 8.69524 31.5693 8.81431L31.7038 9.03071V11.6671V14.3034L31.5693 14.5198C31.4953 14.6389 31.3313 14.8047 31.2049 14.8884L30.975 15.0405H26.0626H21.1501L20.9202 14.8884C20.7939 14.8047 20.6298 14.6389 20.5558 14.5198L20.4213 14.3034L20.4049 11.7948C20.3939 10.1093 20.4088 9.21072 20.4504 9.05623C20.5252 8.77864 20.8803 8.40507 21.142 8.3287C21.2558 8.29548 23.2084 8.27807 26.1518 8.28397L30.9751 8.29367L31.2049 8.44578ZM16.3109 26.0679V30.4901H11.7752H7.23949V26.0679V21.6456H11.7752H16.3109V26.0679ZM31.7322 22.6661V23.6866H25.1554H18.5787V22.6661V21.6456H25.1554H31.7322V22.6661Z" fill="white"/>
</svg>
