<svg width="40" height="40" viewBox="0 0 40 40" fill="none" xmlns="http://www.w3.org/2000/svg">
<path fill-rule="evenodd" clip-rule="evenodd" d="M15.6336 1.01753C15.5868 1.02887 15.3571 1.06914 15.1231 1.10702C13.8087 1.31975 12.5212 1.99553 11.5169 2.99991C10.5838 3.93305 9.9879 5.00123 9.66334 6.32262C9.55031 6.7829 9.54401 6.98105 9.52388 10.7036L9.50284 14.6026H8.37705H7.25125L7.23151 13.8512C7.21382 13.1785 7.19766 13.0771 7.0772 12.8833C7.00319 12.7642 6.83912 12.5983 6.71271 12.5146C6.52187 12.3883 6.41951 12.3625 6.11003 12.3625C5.66331 12.3625 5.38723 12.5063 5.15216 12.8615L5 13.0915V21.1812V29.271L5.15216 29.5009C5.38723 29.8562 5.66331 30 6.11003 30C6.41951 30 6.52187 29.9741 6.71271 29.8478C6.83912 29.7642 7.00319 29.5983 7.0772 29.4792C7.19766 29.2854 7.21382 29.184 7.23151 28.5113L7.25125 27.7599H16.3141H25.3769L25.3967 28.5113C25.4144 29.184 25.4305 29.2854 25.551 29.4792C25.625 29.5983 25.7891 29.7642 25.9155 29.8478C26.107 29.9746 26.2083 30 26.5223 30C26.8363 30 26.9376 29.9746 27.1291 29.8478C27.2555 29.7642 27.4196 29.5983 27.4936 29.4792L27.6282 29.2627V21.1771V13.0915L27.476 12.8615C27.241 12.5063 26.9649 12.3625 26.5182 12.3625C26.2087 12.3625 26.1063 12.3883 25.9155 12.5146C25.7891 12.5983 25.625 12.7642 25.551 12.8833C25.4305 13.0771 25.4144 13.1785 25.3967 13.8512L25.3769 14.6026H24.2512H23.1254L23.1036 10.7036C23.08 6.47705 23.0897 6.61747 22.7507 5.60765C22.0077 3.39423 20.1015 1.68356 17.7886 1.15455C17.3491 1.054 15.8707 0.960024 15.6336 1.01753ZM17.3925 3.39326C18.575 3.71596 19.4723 4.35862 20.1199 5.34678C20.3868 5.75386 20.5408 6.10179 20.7271 6.71876C20.8126 7.00209 20.8231 7.69733 20.8376 14.1064L20.8536 21.1812H16.3141H11.7746L11.7906 14.1064C11.8051 7.69733 11.8156 7.00209 11.9011 6.71876C12.0879 6.10037 12.2417 5.7534 12.5138 5.33651C13.1817 4.31342 14.2326 3.6027 15.4634 3.3416C15.918 3.24519 16.9513 3.27286 17.3925 3.39326ZM17.0514 6.7267C16.9071 6.77042 16.507 7.13026 15.5874 8.04344C14.8914 8.73454 14.2662 9.38934 14.198 9.49851C14.0088 9.8013 14.0223 10.3645 14.2261 10.6725C14.5086 11.0993 15.0077 11.2809 15.5207 11.1433C15.7429 11.0837 15.9365 10.915 17.0408 9.81888C17.7368 9.12801 18.362 8.47344 18.4302 8.36427C18.6101 8.07639 18.6049 7.51001 18.4197 7.21204C18.1497 6.77785 17.5659 6.57074 17.0514 6.7267ZM17.0514 13.5322C16.9071 13.5759 16.507 13.9357 15.5874 14.8489C14.8914 15.54 14.2662 16.1948 14.198 16.304C14.0088 16.6068 14.0223 17.1699 14.2261 17.4779C14.5086 17.9048 15.0077 18.0863 15.5207 17.9488C15.7429 17.8892 15.9365 17.7205 17.0408 16.6244C17.7368 15.9335 18.362 15.2789 18.4302 15.1697C18.6101 14.8819 18.6049 14.3155 18.4197 14.0175C18.1497 13.5833 17.5659 13.3762 17.0514 13.5322ZM9.52082 19.7776L9.53698 22.6841L9.67156 22.9006C9.74557 23.0197 9.90964 23.1856 10.0361 23.2692L10.266 23.4214H16.3141H22.3622L22.5921 23.2692C22.7186 23.1856 22.8826 23.0197 22.9566 22.9006L23.0912 22.6841L23.1074 19.7776L23.1235 16.8711H24.2558H25.3881V21.1812V25.4914H16.3141H7.24013V21.1812V16.8711H8.3724H9.50471L9.52082 19.7776Z" fill="white"/>
</svg>
