<svg width="40" height="40" viewBox="0 0 40 40" fill="none" xmlns="http://www.w3.org/2000/svg">
<path fill-rule="evenodd" clip-rule="evenodd" d="M8.7375 5.04588C8.46933 5.1236 8.12043 5.4953 8.04192 5.78696C7.9061 6.29129 8.1079 6.82139 8.53735 7.08836C8.7312 7.20886 8.83263 7.22503 9.50558 7.24273L10.2573 7.26247L10.2582 17.9649C10.2594 29.8205 10.2358 29.073 10.6343 29.887C10.9186 30.4675 11.5457 31.0973 12.108 31.3668L12.5121 31.5606L12.5335 32.4115C12.553 33.188 12.5667 33.2814 12.6895 33.479C12.7635 33.5982 12.9276 33.7641 13.0541 33.8478C13.2457 33.9746 13.3471 34 13.6611 34C13.9752 34 14.0766 33.9746 14.2681 33.8478C14.3946 33.7641 14.5587 33.5982 14.6328 33.479C14.7532 33.2852 14.7694 33.1838 14.7871 32.5108L14.8069 31.7591H20.4688H26.1308L26.1506 32.5108C26.1683 33.1838 26.1844 33.2852 26.3049 33.479C26.379 33.5982 26.5431 33.7641 26.6695 33.8478C26.8611 33.9746 26.9625 34 27.2766 34C27.5906 34 27.692 33.9746 27.8836 33.8478C28.01 33.7641 28.1741 33.5982 28.2482 33.479C28.371 33.2814 28.3847 33.188 28.4042 32.4115L28.4256 31.5606L28.8297 31.3668C29.392 31.0973 30.0191 30.4675 30.3034 29.887C30.7019 29.073 30.6783 29.8205 30.6794 17.9649L30.6804 7.26247L31.4321 7.24273C32.105 7.22503 32.2065 7.20886 32.4003 7.08836C32.5195 7.01433 32.6854 6.85021 32.7691 6.72376C32.8959 6.53217 32.9213 6.4308 32.9213 6.11673C32.9213 5.80267 32.8959 5.70129 32.7691 5.50971C32.6854 5.38326 32.5195 5.21914 32.4003 5.1451L32.1838 5.01048L20.5539 5.00112C13.3197 4.99533 8.85357 5.01224 8.7375 5.04588ZM28.4112 10.4283V13.6052H20.4688H12.5265V10.4283V7.25135H20.4688H28.4112V10.4283ZM19.3342 18.1437V20.4129H15.9304H12.5265V18.1437V15.8745H15.9304H19.3342V18.1437ZM28.4112 18.1437V20.4129H25.0073H21.6035V18.1437V15.8745H25.0073H28.4112V18.1437ZM28.3989 25.7031L28.3828 28.724L28.2482 28.9406C28.1741 29.0597 28.01 29.2256 27.8836 29.3093L27.6536 29.4615H20.4688H13.2841L13.0541 29.3093C12.9276 29.2256 12.7635 29.0597 12.6895 28.9406L12.5549 28.724L12.5388 25.7031L12.5227 22.6822H20.4688H28.415L28.3989 25.7031ZM20.0837 25.0122C19.8134 25.0949 19.4662 25.4663 19.3881 25.7563C19.2523 26.2606 19.4541 26.7907 19.8835 27.0577C20.2053 27.2577 20.7594 27.2495 21.0759 27.0401C21.43 26.8057 21.5751 26.5284 21.5751 26.086C21.5751 25.6493 21.4303 25.3665 21.092 25.1427C20.8487 24.9816 20.3811 24.9211 20.0837 25.0122Z" fill="white"/>
</svg>
