<svg width="40" height="40" viewBox="0 0 40 40" fill="none" xmlns="http://www.w3.org/2000/svg">
<path fill-rule="evenodd" clip-rule="evenodd" d="M12.8808 5.14708C12.0969 5.5377 12.0632 6.66152 12.8224 7.09615C13.0478 7.22516 13.1432 7.23949 13.9461 7.26543L14.8236 7.29375L15.515 9.61581C16.2975 12.2434 16.3228 12.3968 16.0613 12.9321C15.947 13.166 15.6976 13.4459 15.0294 14.09C12.7422 16.2952 12.2854 16.8259 11.7387 17.913C10.9231 19.5348 10.7855 21.3191 11.3128 23.4365C11.5173 24.2574 14.6 33.3004 14.7526 33.5268C14.8244 33.6333 15.0073 33.7797 15.1673 33.8587L15.4536 34L20.2739 33.9846L25.0941 33.9692L25.3369 33.7985C25.4705 33.7046 25.6236 33.5517 25.6773 33.4587C25.8139 33.2219 28.913 24.0555 29.0631 23.4442C29.2949 22.5001 29.3642 21.8564 29.3324 20.943C29.2915 19.773 29.1211 19.0548 28.6445 18.0438C28.1273 16.9469 27.5776 16.2639 25.8024 14.5124C24.3428 13.0724 24.1662 12.8269 24.1748 12.2513C24.1802 11.8967 24.31 11.4302 25.5334 7.36839C25.5583 7.28537 25.6775 7.27081 26.461 7.25512C27.3559 7.23717 27.361 7.23638 27.6053 7.06647C28.3464 6.55091 28.2376 5.4323 27.4127 5.08767C27.2272 5.01014 26.3917 5 20.1894 5H13.1759L12.8808 5.14708ZM23.1782 7.30202C23.1782 7.32212 22.9123 8.23322 22.5874 9.32675C22.2625 10.4202 21.966 11.4915 21.9285 11.7074C21.8065 12.4103 21.9274 13.1584 22.273 13.8379C22.5707 14.4232 22.9206 14.8375 24.1368 16.044C24.8433 16.7448 25.5677 17.4967 25.7466 17.7147L26.0718 18.1112L23.1284 18.1258C21.5096 18.1339 18.8388 18.1339 17.1933 18.1258L14.2014 18.1112L15.0793 17.2301C15.5621 16.7455 16.2394 16.0829 16.5844 15.7576C17.9872 14.4347 18.4787 13.5301 18.4766 12.2741C18.4761 11.9957 18.4397 11.6151 18.3956 11.4282C18.3244 11.1267 17.2687 7.54164 17.1927 7.34364C17.1674 7.27772 17.6352 7.26543 20.1704 7.26543C21.8247 7.26543 23.1782 7.28191 23.1782 7.30202ZM27.0506 20.5819C27.1108 20.8829 27.0894 21.6558 27.0068 22.165C26.8947 22.8552 26.7109 23.4816 26.0444 25.4455L25.4581 27.1729L20.1938 27.1873L14.9295 27.2018L14.2391 25.1485C13.4099 22.6823 13.327 22.3431 13.2841 21.2403L13.2515 20.4049H20.1334H27.0152L27.0506 20.5819ZM17.4116 22.8174C16.8288 23.1079 16.6279 23.8079 16.9632 24.3802C17.1741 24.7399 17.6118 24.9626 18.0292 24.9225C18.7908 24.8494 19.2599 24.0219 18.9367 23.3217C18.6619 22.7263 18.0203 22.5141 17.4116 22.8174ZM21.9425 22.8174C21.3597 23.1079 21.1588 23.8079 21.4941 24.3802C21.705 24.7399 22.1426 24.9626 22.5601 24.9225C23.3216 24.8494 23.7907 24.0219 23.4676 23.3217C23.1928 22.7263 22.5512 22.5141 21.9425 22.8174ZM24.6515 29.5091C24.6519 29.5325 24.483 30.0422 24.2761 30.6418L23.8998 31.7321H20.1822H16.4646L16.1073 30.6702C15.9108 30.0861 15.7371 29.5764 15.7214 29.5374C15.6987 29.4811 16.6111 29.4666 20.1718 29.4666C22.6352 29.4666 24.651 29.4857 24.6515 29.5091Z" fill="white"/>
</svg>
