<svg width="40" height="40" viewBox="0 0 40 40" fill="none" xmlns="http://www.w3.org/2000/svg">
<path fill-rule="evenodd" clip-rule="evenodd" d="M10.7375 5.04589C10.4693 5.12373 10.1204 5.49537 10.0419 5.78703C9.90611 6.29136 10.1079 6.82146 10.5373 7.08843C10.7312 7.20893 10.8326 7.2251 11.5056 7.2428L12.2573 7.26254V10.9034C12.2573 13.1103 12.2808 14.7336 12.317 15.025C12.4499 16.0948 12.7102 17.0021 13.1334 17.8706L13.3735 18.3633L12.0594 18.3812L10.7453 18.399L10.5155 18.5512C10.1615 18.7856 10.0164 19.063 10.0164 19.5053C10.0164 19.9476 10.1615 20.2249 10.5155 20.4593C10.7331 20.6035 10.7879 20.6125 11.5514 20.6309L12.3575 20.6503L12.3945 20.9294C12.4149 21.083 12.496 21.4317 12.5748 21.7043C12.9414 22.9733 13.6186 24.1111 14.5779 25.0698C15.2181 25.7096 15.5546 25.976 16.2172 26.368C16.5278 26.5518 16.6226 26.6358 16.5961 26.7041C16.5767 26.7542 16.1098 28.0972 15.5586 29.6885C14.6923 32.1893 14.5564 32.6279 14.5565 32.9222C14.5566 33.3347 14.7101 33.6201 15.0541 33.8478L15.2841 34H20.1954H25.1068L25.3233 33.8654C25.6706 33.6495 25.8424 33.3393 25.8426 32.9277C25.8428 32.6262 25.714 32.2099 24.8406 29.6885C24.2893 28.0972 23.8224 26.7542 23.8031 26.7041C23.7766 26.6358 23.8712 26.552 24.182 26.3686C25.9302 25.3368 27.271 23.6198 27.8244 21.7043C27.9032 21.4317 27.9842 21.083 28.0047 20.9294L28.0416 20.6503L28.8477 20.6309C29.6112 20.6125 29.666 20.6035 29.8837 20.4593C30.2377 20.2249 30.3828 19.9476 30.3828 19.5053C30.3828 19.063 30.2377 18.7856 29.8837 18.5512L29.6539 18.399L28.3336 18.3811L27.0133 18.3632L27.2581 17.8705C27.5553 17.2724 27.8199 16.4861 27.9784 15.7296C28.0775 15.2568 28.1013 14.8928 28.1254 13.4831L28.154 11.8007L28.9039 11.7811C29.6058 11.7628 29.6685 11.7518 29.8836 11.6093C30.2389 11.3741 30.3828 11.0979 30.3828 10.6511C30.3828 10.3415 30.3569 10.2391 30.2305 10.0482C30.1469 9.92179 29.9809 9.75767 29.8618 9.68364C29.6679 9.56314 29.5665 9.54697 28.8936 9.52927L28.1419 9.50953V8.38603V7.26254L28.8936 7.2428C29.5665 7.2251 29.6679 7.20893 29.8618 7.08843C29.9809 7.0144 30.1469 6.85027 30.2305 6.72382C30.3573 6.53224 30.3828 6.43086 30.3828 6.1168C30.3828 5.80274 30.3573 5.70136 30.2305 5.50978C30.1469 5.38333 29.9809 5.21921 29.8618 5.14517L29.6453 5.01055L20.2847 5.00113C14.481 4.99529 10.8532 5.01231 10.7375 5.04589ZM25.8727 8.38048V9.50953L25.1167 9.52927C24.4083 9.54777 24.3463 9.5586 24.1309 9.70123C23.7768 9.93564 23.6318 10.2129 23.6318 10.6553C23.6318 11.0976 23.7768 11.3749 24.1309 11.6093C24.3463 11.7519 24.4083 11.7628 25.1167 11.7813L25.8727 11.801V13.1245C25.8727 13.8524 25.8454 14.644 25.8121 14.8836C25.6453 16.0822 25.2646 17.0073 24.5171 18.0297L24.2679 18.3707H20.2031H16.1383L15.9368 18.1012C15.391 17.3711 15.1203 16.8668 14.8643 16.1029C14.5472 15.1563 14.5272 14.8457 14.5268 10.868L14.5265 7.25142H20.1996H25.8727V8.38048ZM25.7249 20.7959C25.3483 22.4074 24.2222 23.8213 22.713 24.5776C19.9248 25.9747 16.5369 24.8318 15.1273 22.0187C14.9446 21.6542 14.7556 21.1439 14.6742 20.7959L14.6378 20.6399H20.1996H25.7613L25.7249 20.7959ZM20.1996 27.4192C20.5896 27.4192 21.0714 27.4065 21.2703 27.3909L21.6318 27.3625L22.3842 29.5466L23.1365 31.7308L21.6681 31.7459C20.8604 31.7542 19.5387 31.7542 18.7309 31.7459L17.2623 31.7308L17.9937 29.6034C18.396 28.4333 18.7374 27.4428 18.7525 27.4021C18.7736 27.3455 18.8626 27.3389 19.1352 27.3738C19.3306 27.3988 19.8095 27.4192 20.1996 27.4192Z" fill="white"/>
</svg>
