<svg width="40" height="40" viewBox="0 0 40 40" fill="none" xmlns="http://www.w3.org/2000/svg">
<path fill-rule="evenodd" clip-rule="evenodd" d="M16.7482 5.13193C16.6108 5.20445 16.4242 5.36903 16.3336 5.49768C16.186 5.70728 16.1639 5.79777 16.1203 6.3721C16.0041 7.90204 15.6075 8.73128 14.1464 10.4995C13.0839 11.7853 12.6357 12.4821 12.3328 13.3194C11.8674 14.6054 11.8908 15.841 12.3988 16.8106C12.6397 17.2705 13.3276 17.9583 13.7875 18.1993C14.941 18.8037 16.3342 18.7097 17.382 17.957L17.6535 17.7619L18.0234 18.0099C18.2267 18.1463 18.4835 18.2906 18.5938 18.3305L18.7945 18.403V22.8684V27.3339L18.5536 27.3933C17.5781 27.6339 16.4337 28.311 15.7775 29.0358C14.8382 30.0733 14.302 31.3841 14.2919 32.6676C14.2877 33.2002 14.3014 33.2857 14.4217 33.4794C14.4957 33.5984 14.6598 33.7643 14.7861 33.8479L15.016 34H19.9285H24.8409L25.0708 33.8479C25.1972 33.7643 25.3612 33.5984 25.4352 33.4794C25.5555 33.2857 25.5692 33.2002 25.565 32.6676C25.546 30.2567 23.7263 28.0051 21.3033 27.3946L21.0624 27.3339V22.8684V18.403L21.2631 18.3305C21.3734 18.2906 21.6285 18.1473 21.83 18.0123L22.1963 17.7667L22.5626 18.0123C22.764 18.1473 23.0179 18.2901 23.1268 18.3295L23.3249 18.4011L23.3417 20.3935L23.3586 22.3858L23.5107 22.6156C23.7457 22.9706 24.0217 23.1144 24.4683 23.1144C24.7777 23.1144 24.88 23.0885 25.0708 22.9623C25.1972 22.8786 25.3612 22.7128 25.4352 22.5937C25.569 22.3785 25.5698 22.3666 25.5893 20.393L25.6088 18.4086L26.0145 18.215C26.578 17.9461 27.2041 17.3182 27.4891 16.7361C27.9528 15.7891 27.9815 14.7 27.5752 13.4761C27.2798 12.5862 26.8274 11.8526 25.8345 10.6536C24.2603 8.75265 23.8545 7.92455 23.7366 6.3721C23.693 5.79777 23.6709 5.70728 23.5233 5.49768C23.4327 5.36903 23.2461 5.20445 23.1087 5.13193L22.8588 5H19.9285H16.9981L16.7482 5.13193ZM21.6238 7.67889C21.8719 9.02394 22.5387 10.2194 24.0982 12.1155C24.7828 12.9477 24.982 13.2303 25.2236 13.7116C25.6294 14.5202 25.705 15.3776 25.4098 15.8237C25.1833 16.166 24.9022 16.3109 24.4641 16.3109C23.8014 16.3109 23.4368 15.9568 23.3309 15.2101C23.2609 14.7167 23.1207 14.4621 22.8029 14.2518C22.6115 14.1251 22.5102 14.0997 22.1963 14.0997C21.5306 14.0997 21.169 14.4537 21.0617 15.2101C20.9558 15.9568 20.5912 16.3109 19.9285 16.3109C19.2657 16.3109 18.9011 15.9568 18.7952 15.2101C18.7253 14.7167 18.585 14.4621 18.2673 14.2518C18.0758 14.1251 17.9745 14.0997 17.6606 14.0997C16.9949 14.0997 16.6333 14.4537 16.526 15.2101C16.4201 15.9568 16.0556 16.3109 15.3928 16.3109C14.9547 16.3109 14.6736 16.166 14.4471 15.8237C14.1519 15.3776 14.2276 14.5202 14.6333 13.7116C14.8749 13.2303 15.0741 12.9477 15.7587 12.1155C16.7596 10.8986 17.2022 10.2636 17.5768 9.50733C17.9264 8.80118 18.1951 8.02252 18.2663 7.5088L18.2997 7.26784H19.9239H21.548L21.6238 7.67889ZM20.6372 29.5779C21.2807 29.713 21.8198 30.0126 22.3116 30.508C22.6918 30.8911 23.1034 31.5095 23.1034 31.6976C23.1034 31.7429 22.2171 31.7605 19.9285 31.7605C17.6398 31.7605 16.7535 31.7429 16.7535 31.6976C16.7535 31.5095 17.1652 30.8911 17.5453 30.508C18.3807 29.6663 19.4812 29.3353 20.6372 29.5779Z" fill="white"/>
</svg>
