<svg width="40" height="40" viewBox="0 0 40 40" fill="none" xmlns="http://www.w3.org/2000/svg">
<path fill-rule="evenodd" clip-rule="evenodd" d="M11.5605 5.1121C10.9404 5.27456 10.5014 5.53156 10.0177 6.01525C9.52703 6.50591 9.27558 6.9405 9.11187 7.58036C9.00227 8.009 9 8.25087 9 19.4988C9 30.7467 9.00227 30.9886 9.11187 31.4172C9.27558 32.0571 9.52703 32.4916 10.0177 32.9823C10.5084 33.473 10.9429 33.7244 11.5828 33.8881C12.0088 33.9971 12.2402 34 20.3291 34C28.418 34 28.6494 33.9971 29.0754 33.8881C29.7152 33.7244 30.1498 33.473 30.6405 32.9823C31.1311 32.4916 31.3826 32.0571 31.5463 31.4172C31.6559 30.9886 31.6582 30.7467 31.6582 19.4988C31.6582 8.25087 31.6559 8.009 31.5463 7.58036C31.3826 6.9405 31.1311 6.50591 30.6405 6.01525C30.1498 5.52459 29.7152 5.27314 29.0754 5.10943C28.6491 5.00045 28.4233 4.99762 20.3059 5.00068C12.2891 5.00368 11.9582 5.00787 11.5605 5.1121ZM13.5402 8.01393C13.5579 8.68585 13.5741 8.78714 13.6944 8.98069C13.7683 9.09965 13.9322 9.26534 14.0584 9.34889C14.2497 9.47549 14.351 9.50087 14.6645 9.50087C14.9781 9.50087 15.0794 9.47549 15.2706 9.34889C15.3969 9.26534 15.5608 9.09965 15.6347 8.98069C15.755 8.78714 15.7712 8.68585 15.7888 8.01393L15.8085 7.26338H16.9304H18.0522L18.0719 8.01818C18.0903 8.72551 18.1012 8.78742 18.2436 9.0025C18.4784 9.35722 18.7542 9.50087 19.2003 9.50087C19.5094 9.50087 19.6117 9.47504 19.8023 9.34889C19.9285 9.26534 20.0924 9.09965 20.1663 8.98069C20.2867 8.78708 20.3028 8.68591 20.3205 8.01251L20.3402 7.26054L24.484 7.27612L28.6276 7.2917L28.8438 7.42612C28.9628 7.50004 29.1285 7.66386 29.212 7.79006L29.364 8.01959L29.381 9.9073L29.398 11.795H20.3319H11.2658L11.2662 10.0248C11.2663 8.95339 11.2901 8.16936 11.3265 8.03857C11.3998 7.77437 11.7617 7.40012 12.0142 7.32733C12.1166 7.29776 12.4975 7.27131 12.8605 7.26847L13.5205 7.26338L13.5402 8.01393ZM29.3789 22.5151L29.364 30.9695L29.2296 31.1857C29.1557 31.3046 28.9918 31.4703 28.8655 31.5539L28.6359 31.7059H20.3291H12.0223L11.7926 31.5539C11.6664 31.4703 11.5025 31.3046 11.4286 31.1857L11.2941 30.9695L11.2792 22.5151L11.2643 14.0608H20.3291H29.3938L29.3789 22.5151ZM19.6493 16.1259C19.6026 16.1372 19.3732 16.1774 19.1395 16.2153C17.109 16.5439 15.2098 17.9637 14.2547 19.867C13.7524 20.8677 13.5646 21.6818 13.5619 22.8692C13.5598 23.7926 13.6228 24.221 13.8758 25.0021C14.4276 26.7059 15.6853 28.1602 17.3181 28.9825C17.7985 29.2244 18.5408 29.4751 19.1112 29.5881C19.6963 29.704 21.0873 29.6885 21.6886 29.5593C24.0869 29.0443 26.0389 27.298 26.7823 25.0021C27.0319 24.2317 27.0982 23.7897 27.0982 22.8975C27.0982 22.4256 27.0648 21.9074 27.0196 21.6796C26.4822 18.9667 24.4642 16.8717 21.8019 16.2627C21.3629 16.1623 19.8862 16.0684 19.6493 16.1259ZM21.1313 18.4461C22.6881 18.7464 24.008 19.8399 24.5492 21.2776C24.627 21.4846 24.6908 21.6761 24.6908 21.7033C24.6908 21.7304 24.3894 21.7617 24.021 21.7728C23.407 21.7912 23.3322 21.8056 23.1217 21.9449C22.7681 22.1789 22.6232 22.4558 22.6232 22.8975C22.6232 23.3392 22.7681 23.6161 23.1217 23.8501C23.3322 23.9895 23.407 24.0038 24.021 24.0222C24.3894 24.0333 24.6908 24.0646 24.6908 24.0917C24.6908 24.218 24.3863 24.9289 24.1986 25.2409C24.0836 25.4319 23.8097 25.7766 23.5896 26.0069C21.829 27.8502 18.9626 27.8986 17.1589 26.1154C16.2532 25.2201 15.8283 24.1924 15.8283 22.8975C15.8283 21.9089 16.0277 21.2142 16.5345 20.438C17.5316 18.9106 19.3822 18.1086 21.1313 18.4461Z" fill="white"/>
</svg>
