<svg width="40" height="40" viewBox="0 0 40 40" fill="none" xmlns="http://www.w3.org/2000/svg">
<path fill-rule="evenodd" clip-rule="evenodd" d="M21.1648 3.12088C20.4417 3.31034 19.9298 3.61005 19.3656 4.17413C18.7934 4.74633 18.5002 5.25314 18.3093 5.99934C18.1873 6.47616 18.1788 6.7404 18.1788 10.0332V13.5568H16.8641H15.5494L15.5264 12.6815C15.5058 11.8979 15.487 11.7798 15.3467 11.5541C15.2605 11.4153 15.0693 11.2221 14.9221 11.1247C14.699 10.977 14.581 10.9474 14.2153 10.9474C13.8496 10.9474 13.7315 10.977 13.5084 11.1247C13.3612 11.2221 13.1701 11.4153 13.0839 11.5541C12.9436 11.7797 12.9247 11.898 12.9042 12.6793L12.8812 13.5524L9.37002 13.5711L5.85877 13.5898L5.60662 13.7466C5.4679 13.8328 5.27467 14.0239 5.17724 14.1711C5.02959 14.3942 5 14.5123 5 14.878C5 15.2437 5.02959 15.3617 5.17724 15.5848C5.27467 15.732 5.4679 15.9232 5.60662 16.0094C5.83235 16.1497 5.95046 16.1685 6.73405 16.1891L7.60934 16.2121V17.1218C7.60934 19.2588 8.21933 20.8448 9.55511 22.1805C10.1218 22.7471 10.669 23.1259 11.4686 23.5046C12.3979 23.9449 12.9842 24.0671 14.3625 24.1079L15.5337 24.1426L15.5516 30.0302L15.5695 35.9178L15.7262 36.17C15.8124 36.3087 16.0036 36.5019 16.1508 36.5994L16.4186 36.7766H19.5H22.5814L22.8492 36.5994C22.9964 36.5019 23.1876 36.3087 23.2738 36.17L23.4305 35.9178L23.4484 30.0302L23.4663 24.1426L24.6375 24.1079C26.323 24.058 27.2122 23.8021 28.418 23.0201C29.4294 22.3642 30.2068 21.4538 30.769 20.267C31.2087 19.3387 31.3315 18.751 31.3722 17.378L31.4068 16.2117L32.274 16.1889C33.0493 16.1686 33.168 16.1495 33.3934 16.0094C33.5321 15.9232 33.7253 15.732 33.8228 15.5848C33.9704 15.3617 34 15.2437 34 14.878C34 14.5123 33.9704 14.3942 33.8228 14.1711C33.7253 14.0239 33.5321 13.8328 33.3934 13.7466L33.1412 13.5898L29.63 13.5711L26.1188 13.5524L26.0958 12.6793C26.0753 11.898 26.0564 11.7797 25.9161 11.5541C25.8299 11.4153 25.6388 11.2221 25.4916 11.1247C25.2685 10.977 25.1504 10.9474 24.7847 10.9474C24.419 10.9474 24.301 10.977 24.0779 11.1247C23.9307 11.2221 23.7395 11.4153 23.6533 11.5541C23.513 11.7798 23.4942 11.8979 23.4736 12.6815L23.4506 13.5568H22.1336H20.8168L20.8355 10.0391L20.8542 6.52148L21.011 6.26933C21.0972 6.1306 21.2883 5.93738 21.4355 5.83994C21.6578 5.69283 21.7771 5.66271 22.1375 5.66271C22.917 5.66271 23.339 6.07267 23.4636 6.95086C23.5881 7.82905 24.0101 8.23902 24.7896 8.23902C25.15 8.23902 25.2693 8.20889 25.4916 8.06178C25.6388 7.96434 25.8254 7.77779 25.906 7.64726C26.2256 7.13021 26.1224 6.07967 25.6608 5.15048C25.362 4.54888 24.6032 3.7717 24.0128 3.46241C23.1387 3.00448 22.0895 2.87864 21.1648 3.12088ZM28.7483 17.0804C28.7483 18.5848 28.4442 19.4077 27.5592 20.2977C26.9899 20.8703 26.4873 21.1613 25.7363 21.3534C25.2474 21.4784 24.9861 21.4839 19.5 21.4839C14.0139 21.4839 13.7526 21.4784 13.2637 21.3534C12.5175 21.1625 12.0107 20.8693 11.4385 20.2971C10.5571 19.4156 10.2517 18.5879 10.2517 17.0804V16.1992H19.5H28.7483V17.0804ZM20.8212 29.1468V34.1673H19.5H18.1788V29.1468V24.1263H19.5H20.8212V29.1468Z" fill="white"/>
</svg>
