<svg width="40" height="40" viewBox="0 0 40 40" fill="none" xmlns="http://www.w3.org/2000/svg">
<path fill-rule="evenodd" clip-rule="evenodd" d="M15.7979 5.0459C15.5445 5.12005 15.1825 5.49486 15.1092 5.759C15.0705 5.89833 15.0489 7.0104 15.0488 8.88096L15.0484 11.7864L12.0234 11.8025L8.99829 11.8186L8.76836 11.9708C8.64191 12.0545 8.47785 12.2204 8.40382 12.3396L8.2692 12.5561L8.25428 21.0175L8.23936 29.4789L7.48417 29.4986C6.77658 29.5171 6.71446 29.5279 6.49911 29.6705C6.14506 29.905 6 30.1822 6 30.6246C6 31.0669 6.14506 31.3442 6.49911 31.5786L6.72898 31.7308L8.614 31.7478L10.499 31.7648L10.5187 32.5179C10.5371 33.2233 10.548 33.2856 10.6906 33.5009C10.9258 33.8561 11.202 34 11.6488 34C11.9583 34 12.0607 33.9741 12.2516 33.8478C12.3781 33.7641 12.5422 33.5982 12.6162 33.479C12.7367 33.2852 12.7529 33.1838 12.7706 32.5108L12.7903 31.7592H19.5868H26.3833L26.403 32.5108C26.4207 33.1838 26.4369 33.2852 26.5574 33.479C26.6314 33.5982 26.7955 33.7641 26.922 33.8478C27.1136 33.9746 27.2149 34 27.529 34C27.8431 34 27.9444 33.9746 28.136 33.8478C28.2625 33.7641 28.4266 33.5982 28.5006 33.479C28.6211 33.2853 28.6373 33.1837 28.6549 32.5137L28.6746 31.7648L30.5596 31.7478L32.4447 31.7308L32.6745 31.5786C33.0286 31.3442 33.1736 31.0669 33.1736 30.6246C33.1736 30.1822 33.0286 29.905 32.6745 29.6705C32.4592 29.5279 32.3971 29.5171 31.6895 29.4986L30.9343 29.4789L30.9194 21.0175L30.9044 12.5561L30.7698 12.3396C30.6958 12.2204 30.5317 12.0545 30.4053 11.9708L30.1753 11.8186L27.1522 11.8025L24.129 11.7864L24.1129 8.7675L24.0968 5.7485L23.9622 5.53196C23.8882 5.41283 23.7241 5.2469 23.5977 5.16322L23.3678 5.01101L19.6761 5.00114C17.4462 4.99519 15.9106 5.01289 15.7979 5.0459ZM21.856 16.1017V24.9516H19.5868H17.3176V16.1017V7.25184H19.5868H21.856V16.1017ZM15.0484 15.194V16.3286H12.7792H10.51V15.194V14.0594H12.7792H15.0484V15.194ZM28.6636 15.194V16.3286H26.3944H24.1252V15.194V14.0594H26.3944H28.6636V15.194ZM15.0484 24.0439V29.49H12.7792H10.51V24.0439V18.5978H12.7792H15.0484V24.0439ZM28.6636 24.0439V29.49H26.3944H24.1252V24.0439V18.5978H26.3944H28.6636V24.0439ZM21.856 28.3554V29.49H19.5868H17.3176V28.3554V27.2208H19.5868H21.856V28.3554Z" fill="white"/>
</svg>
