<svg width="40" height="40" viewBox="0 0 40 40" fill="none" xmlns="http://www.w3.org/2000/svg">
<path fill-rule="evenodd" clip-rule="evenodd" d="M32.5081 5.04055C32.253 5.11858 31.892 5.49365 31.8191 5.75641C31.7836 5.88433 31.7588 6.60575 31.7587 7.51939L31.7583 9.06587H28.7312C25.9024 9.06587 25.6754 9.07319 25.2657 9.17796C24.6247 9.34197 24.1893 9.59389 23.6977 10.0855C22.9404 10.8428 22.6781 11.5538 22.6781 12.8489V13.606H18.3705H14.063L14.0432 12.854C14.0255 12.1808 14.0094 12.0794 13.8888 11.8855C13.8148 11.7663 13.6506 11.6003 13.5241 11.5166C13.3324 11.3897 13.231 11.3643 12.9168 11.3643C12.6027 11.3643 12.5012 11.3897 12.3096 11.5166C12.1831 11.6003 12.0189 11.7663 11.9448 11.8855C11.8243 12.0794 11.8081 12.1808 11.7904 12.854L11.7707 13.606H9.51174H7.25281L7.23306 12.8498C7.21456 12.1411 7.20372 12.0791 7.06104 11.8636C6.82655 11.5094 6.54914 11.3643 6.10665 11.3643C5.66411 11.3643 5.3867 11.5095 5.15226 11.8637L5 12.0938V22.6862V33.2787L5.15226 33.5087C5.3875 33.8642 5.66377 34.0081 6.1108 34.0081C6.42049 34.0081 6.52293 33.9823 6.71389 33.8559C6.84039 33.7722 7.00458 33.6062 7.07864 33.487C7.21234 33.272 7.21342 33.2565 7.23033 31.3834L7.24736 29.4964H9.51174H11.7761L11.7932 31.3834C11.8101 33.2565 11.8111 33.272 11.9448 33.487C12.0189 33.6062 12.1831 33.7722 12.3096 33.8559C12.5012 33.9827 12.6027 34.0081 12.9168 34.0081C13.231 34.0081 13.3324 33.9827 13.5241 33.8559C13.6506 33.7722 13.8148 33.6062 13.8888 33.487C14.0225 33.272 14.0236 33.2565 14.0405 31.3834L14.0575 29.4964H22.9051H31.7526L31.7697 31.3834C31.7866 33.2565 31.7877 33.272 31.9214 33.487C31.9954 33.6062 32.1596 33.7722 32.2861 33.8559C32.4778 33.9827 32.5792 34.0081 32.8933 34.0081C33.2075 34.0081 33.3089 33.9827 33.5006 33.8559C33.6271 33.7722 33.7913 33.6062 33.8653 33.487L34 33.2704V19.504V5.73762L33.8477 5.50755C33.764 5.38106 33.6048 5.22147 33.4941 5.15303C33.2622 5.00973 32.7861 4.95542 32.5081 5.04055ZM31.7583 12.471V13.606H28.3532H24.9481L24.9485 12.9675C24.9487 12.6164 24.9758 12.2316 25.0089 12.1126C25.0824 11.8479 25.4449 11.4729 25.6979 11.4C25.8037 11.3695 27.1562 11.3439 28.8214 11.341L31.7583 11.3359V12.471ZM11.7818 17.0111V18.1461H9.51174H7.24168V17.0111V15.876H9.51174H11.7818V17.0111ZM31.7583 19.2811V22.6862H28.7312C25.9024 22.6862 25.6754 22.6935 25.2657 22.7983C24.6247 22.9623 24.1893 23.2142 23.6977 23.7058C22.9404 24.4631 22.6781 25.1742 22.6781 26.4693V27.2263H18.365H14.0519V21.5512V15.876H22.9051H31.7583V19.2811ZM11.7818 21.5512V22.6862H9.51174H7.24168V21.5512V20.4162H9.51174H11.7818V21.5512ZM11.7818 26.0913V27.2263H9.51174H7.24168V26.0913V24.9563H9.51174H11.7818V26.0913ZM31.7583 26.0913V27.2263H28.3532H24.9481L24.9485 26.5879C24.9487 26.2368 24.9758 25.852 25.0089 25.7329C25.0824 25.4682 25.4449 25.0933 25.6979 25.0204C25.8037 24.9898 27.1562 24.9643 28.8214 24.9614L31.7583 24.9563V26.0913Z" fill="white"/>
</svg>
