<svg width="40" height="40" viewBox="0 0 40 40" fill="none" xmlns="http://www.w3.org/2000/svg">
<path fill-rule="evenodd" clip-rule="evenodd" d="M9.80323 3.05704C9.36229 3.192 8.93204 3.79247 8.93099 4.27444C8.93079 4.34711 9.52519 8.44688 10.2518 13.3851L11.5729 22.3636V23.8614C11.5729 25.5525 11.6522 26.0387 12.0502 26.7858C12.303 27.2605 12.8561 27.8804 13.2854 28.1703C13.4517 28.2825 13.5968 28.3812 13.608 28.3896C13.6192 28.3979 13.1215 29.418 12.5021 30.6564L11.3758 32.9082L10.8626 32.719C9.67448 32.2809 8.46236 31.6969 7.39346 31.0475C6.85177 30.7184 6.67896 30.6464 6.36657 30.6197C5.89259 30.5792 5.48844 30.7758 5.19818 31.1878C5.02543 31.4331 5 31.5263 5 31.9142C5 32.5319 5.17301 32.7796 5.93546 33.2531C10.688 36.2049 17.3189 37.4173 23.7278 36.5065C27.1816 36.0155 30.4209 34.8882 33.0616 33.2581C33.8225 32.7884 34 32.5342 34 31.9142C34 31.5263 33.9746 31.4331 33.8018 31.1878C33.5186 30.7857 33.108 30.5819 32.6446 30.6134C32.3378 30.6344 32.1752 30.702 31.6176 31.0407C30.5378 31.6967 29.3296 32.2794 28.1374 32.719L27.6242 32.9082L26.4979 30.6564C25.8785 29.418 25.3808 28.3979 25.392 28.3896C25.4032 28.3812 25.5483 28.2825 25.7146 28.1703C25.8808 28.058 26.1781 27.7919 26.3752 27.579C27.2752 26.6066 27.623 25.2429 27.2966 23.9664C27.1057 23.2202 26.8125 22.7134 26.2403 22.1412C25.3588 21.2598 24.5311 20.9544 23.0236 20.9544H22.1424V19.6299V18.3054L24.3388 18.3252C26.5191 18.3449 26.5372 18.3462 26.7875 18.5018C27.1629 18.7352 27.3456 19.0584 27.4271 19.6332C27.5516 20.5114 27.9737 20.9214 28.7531 20.9214C29.1136 20.9214 29.2328 20.8912 29.4551 20.7441C30.0146 20.3739 30.1823 19.7506 29.9743 18.8153C29.8 18.032 29.4687 17.4358 28.8858 16.8565C28.3102 16.2845 27.801 15.9903 27.0574 15.8001C26.5659 15.6744 26.3034 15.6697 19.9016 15.6697H13.2561L12.8032 12.5814C11.5504 4.03703 11.5205 3.84975 11.3701 3.60639C11.0726 3.12501 10.3775 2.88125 9.80323 3.05704ZM19.5 19.6332V20.9544H16.7653H14.0308L13.9497 20.3764C13.9051 20.0585 13.8174 19.464 13.7548 19.0552L13.6408 18.312H16.5704H19.5V19.6332ZM24.1705 23.807C24.5827 24.0799 24.7517 24.4028 24.7517 24.9179C24.7517 25.4331 24.5827 25.756 24.1704 26.0289L23.9026 26.2061H19.5H15.0974L14.8296 26.0289C14.6824 25.9314 14.4913 25.7382 14.4051 25.5995C14.2647 25.3737 14.2459 25.2557 14.2252 24.4704L14.2022 23.5935L19.0524 23.6116L23.9026 23.6298L24.1705 23.807ZM23.8144 31.234C24.461 32.5279 24.9811 33.5955 24.97 33.6065C24.9278 33.6483 22.8678 33.9695 22.1424 34.0473C21.1606 34.1527 17.8394 34.1527 16.8576 34.0473C16.1322 33.9695 14.0722 33.6483 14.03 33.6065C14.0189 33.5955 14.539 32.5279 15.1856 31.234L16.3613 28.8815H19.5H22.6387L23.8144 31.234Z" fill="white"/>
</svg>
