<svg width="40" height="40" viewBox="0 0 40 40" fill="none" xmlns="http://www.w3.org/2000/svg">
<path fill-rule="evenodd" clip-rule="evenodd" d="M5.73887 8.04981C5.47848 8.1295 5.1214 8.50417 5.04874 8.77397C5.00694 8.92931 4.99299 12.5424 5.0032 20.5882L5.01795 32.1786L5.15254 32.3951C5.22655 32.5142 5.39063 32.6801 5.51705 32.7637C5.70858 32.8905 5.80993 32.9159 6.12392 32.9159C6.4379 32.9159 6.53925 32.8905 6.73078 32.7637C6.8572 32.6801 7.02128 32.5142 7.0953 32.3951L7.22989 32.1786L7.24594 29.1584L7.26204 26.1383H9.41346H11.5649L11.581 29.1584L11.597 32.1786L11.7316 32.3951C11.8056 32.5142 11.9697 32.6801 12.0961 32.7637C12.2877 32.8905 12.389 32.9159 12.703 32.9159C13.017 32.9159 13.1183 32.8905 13.3099 32.7637C13.4363 32.6801 13.6004 32.5142 13.6744 32.3951L13.809 32.1786L13.825 27.301C13.843 21.8592 13.8506 21.9855 13.4552 21.1896C13.1986 20.6731 12.5472 20.0058 12.0402 19.7402C11.3446 19.3758 11.0247 19.3323 9.03687 19.3323H7.26051L7.2452 14.0435L7.22989 8.75474L7.0953 8.53825C6.82782 8.108 6.24018 7.89639 5.73887 8.04981ZM32.509 8.04981C32.2541 8.1278 31.8933 8.50264 31.8204 8.76523C31.7802 8.91026 31.7602 10.6883 31.76 14.157L31.7597 19.3323H29.9822C27.9931 19.3323 27.6735 19.3757 26.9777 19.7402C26.4708 20.0058 25.8193 20.6731 25.5628 21.1896C25.1673 21.9855 25.175 21.8592 25.1929 27.301L25.209 32.1786L25.3436 32.3951C25.4176 32.5142 25.5816 32.6801 25.7081 32.7637C25.8996 32.8905 26.001 32.9159 26.3149 32.9159C26.6289 32.9159 26.7303 32.8905 26.9218 32.7637C27.0482 32.6801 27.2123 32.5142 27.2863 32.3951L27.4209 32.1786L27.437 29.1584L27.4531 26.1383H29.6045H31.7559L31.772 29.1584L31.7881 32.1786L31.9226 32.3951C31.9967 32.5142 32.1607 32.6801 32.2872 32.7637C32.4787 32.8905 32.58 32.9159 32.894 32.9159C33.208 32.9159 33.3094 32.8905 33.5009 32.7637C33.6273 32.6801 33.7914 32.5142 33.8654 32.3951L34 32.1786V20.4667V8.75474L33.8654 8.53825C33.5979 8.108 33.0103 7.89639 32.509 8.04981ZM10.0493 14.8587C9.78116 14.9365 9.43241 15.3081 9.35391 15.5997C9.21813 16.1039 9.41987 16.6338 9.84922 16.9007C10.0657 17.0353 10.0658 17.0353 12.2209 17.053L14.3761 17.0707L16.3754 20.0731L18.3746 23.0754V26.8699V30.6645L17.6232 30.6842C16.9504 30.7019 16.849 30.7181 16.6552 30.8386C16.5361 30.9126 16.3702 31.0766 16.2865 31.2031C16.1598 31.3946 16.1344 31.496 16.1344 31.8099C16.1344 32.1239 16.1598 32.2253 16.2865 32.4168C16.3702 32.5432 16.5361 32.7073 16.6552 32.7813L16.8717 32.9159H19.509H22.1463L22.3628 32.7813C22.4819 32.7073 22.6478 32.5432 22.7314 32.4168C22.8582 32.2253 22.8836 32.1239 22.8836 31.8099C22.8836 31.496 22.8582 31.3946 22.7314 31.2031C22.6478 31.0766 22.4819 30.9126 22.3628 30.8386C22.169 30.7181 22.0676 30.7019 21.3948 30.6842L20.6433 30.6645V26.8699V23.0754L22.6426 20.0731L24.6418 17.0707L26.797 17.053C28.9521 17.0353 28.9522 17.0353 29.1687 16.9007C29.2878 16.8267 29.4537 16.6626 29.5374 16.5362C29.6641 16.3447 29.6896 16.2433 29.6896 15.9294C29.6896 15.6154 29.6641 15.514 29.5374 15.3225C29.4537 15.1961 29.2878 15.032 29.1687 14.958L28.9522 14.8234L19.594 14.814C13.7919 14.8081 10.165 14.8251 10.0493 14.8587ZM21.8911 17.0922C21.8911 17.1481 19.5466 20.6368 19.509 20.6368C19.4714 20.6368 17.1269 17.1481 17.1269 17.0922C17.1269 17.0765 18.1988 17.0637 19.509 17.0637C20.8191 17.0637 21.8911 17.0765 21.8911 17.0922ZM11.0413 21.7815C11.1678 21.8652 11.3317 22.0311 11.4057 22.1502C11.5262 22.344 11.5424 22.4454 11.5601 23.1182L11.5798 23.8696H9.41902H7.25824V22.7323V21.595L9.03488 21.6122L10.8116 21.6294L11.0413 21.7815ZM31.7597 22.7353V23.8696H29.6045H27.4493L27.4496 23.2316C27.4498 22.8807 27.4769 22.4961 27.51 22.3772C27.5835 22.1126 27.9458 21.7379 28.1985 21.665C28.3011 21.6354 29.1443 21.6089 30.0724 21.6061L31.7597 21.601V22.7353Z" fill="white"/>
</svg>
