<svg width="40" height="40" viewBox="0 0 40 40" fill="none" xmlns="http://www.w3.org/2000/svg">
<path fill-rule="evenodd" clip-rule="evenodd" d="M16.453 3.04438C16.3548 3.07472 16.1907 3.15914 16.0884 3.23202C15.986 3.30483 14.6418 5.25568 13.1013 7.56716L10.3001 11.7699V12.2111C10.3001 12.5793 10.3294 12.6966 10.4771 12.9197C10.5744 13.0667 10.7673 13.2575 10.9058 13.3436L11.1575 13.5001L14.6696 13.5188L18.1816 13.5375L18.1779 14.7059L18.1742 15.8744L17.6998 16.0997C17.0421 16.4118 16.3147 17.1403 15.9818 17.8201C15.6582 18.4809 15.546 19.0605 15.5446 20.0774L15.5435 20.9166L10.7075 20.9348L5.87154 20.9529L5.60417 21.1298C5.19255 21.4023 5.02384 21.7247 5.02384 22.239C5.02384 22.7532 5.19248 23.0756 5.6041 23.3481C5.85453 23.5139 5.92661 23.5265 6.75018 23.548L7.62901 23.571L7.63013 24.4054C7.63152 25.4125 7.7445 25.9993 8.06062 26.6417C8.46353 27.4606 9.31737 28.2484 10.1231 28.5447C10.293 28.6072 10.4534 28.6763 10.4796 28.6982C10.5058 28.7202 10.4788 28.886 10.4197 29.0666C10.335 29.3255 10.304 29.7995 10.2732 31.3076C10.2352 33.1724 10.2303 33.2266 10.0777 33.472C9.99161 33.6105 9.80081 33.8035 9.6538 33.9007C9.43107 34.0482 9.31321 34.0777 8.94809 34.0777C8.17564 34.0777 7.75294 33.6656 7.62901 32.7916C7.54842 32.2235 7.38406 31.9262 7.01564 31.6825C6.79292 31.535 6.67506 31.5055 6.30994 31.5055C5.94482 31.5055 5.82696 31.535 5.60423 31.6825C5.04567 32.0521 4.87821 32.6744 5.0859 33.6082C5.25995 34.3903 5.59071 34.9855 6.17269 35.5639C6.74734 36.135 7.25572 36.4287 7.99809 36.6186C9.9895 37.1279 12.0612 35.9699 12.7211 33.9788C12.8489 33.5931 12.8669 33.3583 12.9008 31.6374C12.9374 29.7714 12.9421 29.7186 13.0948 29.473C13.1809 29.3345 13.3717 29.1416 13.5187 29.0443L13.7861 28.8673H19.5007H25.2153L25.4827 29.0443C25.6297 29.1416 25.8205 29.3345 25.9066 29.473C26.0593 29.7186 26.064 29.7714 26.1006 31.6374C26.1345 33.3583 26.1525 33.5931 26.2803 33.9788C26.4885 34.6071 26.8633 35.193 27.3503 35.6516C28.3512 36.5942 29.7012 36.9516 31.0033 36.6186C31.7457 36.4287 32.2541 36.135 32.8287 35.5639C33.4107 34.9855 33.7415 34.3903 33.9155 33.6082C34.1253 32.6652 33.9445 32.018 33.3719 31.662C32.9978 31.4295 32.3537 31.439 31.9858 31.6825C31.6173 31.9262 31.453 32.2235 31.3724 32.7916C31.2918 33.3597 31.1274 33.657 30.759 33.9007C30.5363 34.0482 30.4184 34.0777 30.0533 34.0777C29.6882 34.0777 29.5703 34.0482 29.3476 33.9007C29.2006 33.8035 29.0098 33.6105 28.9237 33.472C28.7711 33.2266 28.7662 33.1724 28.7282 31.3076C28.6974 29.7995 28.6664 29.3255 28.5817 29.0666C28.5226 28.886 28.4956 28.7202 28.5218 28.6982C28.548 28.6763 28.7084 28.6072 28.8783 28.5447C29.684 28.2484 30.5379 27.4606 30.9408 26.6417C31.2569 25.9993 31.3699 25.4125 31.3713 24.4054L31.3724 23.571L32.2463 23.548C33.0286 23.5275 33.1465 23.5087 33.3719 23.3686C33.5104 23.2825 33.7033 23.0917 33.8006 22.9447C33.948 22.722 33.9776 22.6041 33.9776 22.239C33.9776 21.8739 33.948 21.756 33.8006 21.5333C33.7033 21.3863 33.5104 21.1955 33.3719 21.1094L33.1202 20.9529L28.289 20.9348L23.4579 20.9166L23.4568 20.0774C23.4554 19.0605 23.3432 18.4809 23.0196 17.8201C22.6867 17.1403 21.9593 16.4118 21.3016 16.0997L20.8272 15.8744L20.8235 14.7059L20.8198 13.5375L24.3318 13.5188L27.8439 13.5001L28.09 13.347C28.5792 13.0428 28.8247 12.4501 28.6822 11.9172C28.6281 11.7149 27.7219 10.2992 25.8381 7.47417C23.6011 4.11923 23.0252 3.29797 22.8206 3.17075L22.5676 3.01345L19.5996 3.00131C17.9673 2.99465 16.5513 3.01404 16.453 3.04438ZM23.1611 8.19946C24.1043 9.61701 24.8858 10.8034 24.8979 10.8358C24.9108 10.8703 22.6647 10.8949 19.5007 10.8949C16.3367 10.8949 14.0906 10.8703 14.1035 10.8358C14.1156 10.8034 14.8971 9.61701 15.8403 8.19946L17.5551 5.62212H19.5007H21.4463L23.1611 8.19946ZM20.2252 18.5042C20.3619 18.5946 20.5442 18.7819 20.6303 18.9204C20.7704 19.1458 20.7892 19.2637 20.8098 20.046L20.8327 20.9199H19.5072H18.1816L18.182 20.1779C18.1822 19.7699 18.2138 19.3227 18.2523 19.1843C18.337 18.879 18.7565 18.4431 19.0529 18.3524C19.3987 18.2465 19.9423 18.3169 20.2252 18.5042ZM28.7242 24.4369C28.7027 25.2605 28.6901 25.3326 28.5243 25.583C28.427 25.7299 28.2341 25.9207 28.0956 26.0067L27.8439 26.1632H19.4959H11.1479L10.8805 25.9863C10.7335 25.889 10.5427 25.6961 10.4567 25.5576C10.3166 25.3322 10.2978 25.2143 10.2772 24.432L10.2542 23.5581H19.5007H28.7472L28.7242 24.4369Z" fill="white"/>
</svg>
