<svg width="40" height="40" viewBox="0 0 40 40" fill="none" xmlns="http://www.w3.org/2000/svg">
<path fill-rule="evenodd" clip-rule="evenodd" d="M13.5621 5.11215C12.9415 5.27477 12.5021 5.53202 12.0178 6.01619C11.5267 6.50734 11.275 6.94235 11.1111 7.58284C11.0016 8.01116 10.9992 8.24749 11.0001 18.3455C11.0013 29.7833 10.9782 29.0768 11.376 29.8892C11.6601 30.4694 12.2869 31.0988 12.8489 31.3682L13.2528 31.5619L13.2742 32.4124C13.2937 33.1884 13.3073 33.2818 13.4301 33.4793C13.5041 33.5984 13.6681 33.7642 13.7945 33.8479C13.986 33.9746 14.0873 34 14.4012 34C14.7151 34 14.8164 33.9746 15.0079 33.8479C15.1343 33.7642 15.2983 33.5984 15.3723 33.4793C15.4928 33.2856 15.5089 33.1842 15.5266 32.5116L15.5463 31.7603H20.0713H24.5962L24.616 32.5116C24.6337 33.1842 24.6498 33.2856 24.7703 33.4793C24.8443 33.5984 25.0083 33.7642 25.1347 33.8479C25.3262 33.9746 25.4275 34 25.7414 34C26.0553 34 26.1566 33.9746 26.3481 33.8479C26.4745 33.7642 26.6385 33.5984 26.7125 33.4793C26.8353 33.2818 26.8489 33.1884 26.8684 32.4124L26.8898 31.5619L27.2937 31.3682C27.8557 31.0988 28.4825 30.4694 28.7666 29.8892C29.1644 29.0768 29.1413 29.7833 29.1425 18.3455C29.1434 8.24749 29.141 8.01116 29.0314 7.58284C28.8676 6.94235 28.6159 6.50734 28.1247 6.01619C27.6336 5.52505 27.1986 5.27336 26.5581 5.10949C26.1349 5.0013 25.9149 4.99762 20.048 5.00062C14.2568 5.00363 13.9568 5.00879 13.5621 5.11215ZM26.3264 7.42844C26.4454 7.50244 26.6113 7.66642 26.6949 7.7928L26.847 8.02267L26.8627 12.0667L26.8783 16.1109H22.3438H17.8092L17.7921 14.3347L17.7749 12.5585L17.6228 12.3288C17.3885 11.9749 17.1113 11.83 16.6692 11.83C16.2271 11.83 15.95 11.9749 15.7157 12.3288L15.5636 12.5585L15.5464 14.3347L15.5293 16.1109H14.3982H13.2672L13.2675 12.1843C13.2677 9.59487 13.2883 8.18415 13.3279 8.04149C13.4012 7.77732 13.7632 7.4027 14.0163 7.32905C14.1308 7.2957 16.5004 7.27841 20.1563 7.28431L26.1099 7.29389L26.3264 7.42844ZM15.5464 20.1551L15.5636 21.9313L15.7157 22.161C15.95 22.5148 16.2271 22.6598 16.6692 22.6598C17.1113 22.6598 17.3885 22.5148 17.6228 22.161L17.7749 21.9313L17.7921 20.1551L17.8092 18.3789H22.3435H26.8777L26.8624 23.5529L26.847 28.7268L26.7125 28.9432C26.6385 29.0623 26.4745 29.2282 26.3481 29.3118L26.1182 29.4639H20.0713H14.0244L13.7945 29.3118C13.6681 29.2282 13.5041 29.0623 13.4301 28.9432L13.2955 28.7268L13.2802 23.5529L13.2649 18.3789H14.3971H15.5293L15.5464 20.1551Z" fill="white"/>
</svg>
