<svg width="40" height="40" viewBox="0 0 40 40" fill="none" xmlns="http://www.w3.org/2000/svg">
<path fill-rule="evenodd" clip-rule="evenodd" d="M19.0515 3.05802C18.7547 3.14885 18.3345 3.58544 18.2496 3.89129C18.2055 4.04983 18.1794 5.15229 18.1792 6.86376L18.1788 9.58427L17.8412 9.35703C16.8777 8.70866 15.6627 8.32789 14.5125 8.31389C13.8541 8.3059 13.7622 8.31977 13.5337 8.46179C13.395 8.548 13.2018 8.73911 13.1043 8.88636C12.9567 9.10944 12.9271 9.22749 12.9271 9.59319C12.9271 9.95889 12.9567 10.0769 13.1043 10.3C13.3764 10.7112 13.6505 10.8459 14.3612 10.918C15.5594 11.0396 16.3654 11.4125 17.09 12.1806C17.8732 13.0107 18.1756 13.8929 18.1777 15.3536L18.1788 16.1925L15.9823 16.2123C13.8021 16.232 13.784 16.2333 13.5337 16.3889C13.395 16.4751 13.2018 16.6661 13.1043 16.8133L12.9271 17.0809L12.9063 18.7351C12.8875 20.2297 12.9229 20.8025 13.0668 21.333L13.1065 21.4795L9.48265 21.4982L5.85877 21.5169L5.60662 21.6736C5.4679 21.7598 5.27467 21.951 5.17724 22.0982C5.02959 22.3213 5 22.4393 5 22.805C5 23.1707 5.02959 23.2888 5.17724 23.5119C5.27467 23.6591 5.4679 23.8502 5.60662 23.9364C5.83235 24.0767 5.95046 24.0956 6.73405 24.1162L7.60934 24.1392L7.61046 27.3531C7.61178 30.9489 7.62896 31.1306 8.04837 31.9873C8.37939 32.6633 9.10961 33.3966 9.76439 33.7104L10.2349 33.936L10.2598 34.9319C10.2835 35.8813 10.293 35.9404 10.462 36.1954C10.7359 36.609 11.0575 36.7766 11.5777 36.7766C11.9382 36.7766 12.0574 36.7464 12.2797 36.5993C12.427 36.5019 12.6181 36.3087 12.7043 36.1699C12.8446 35.9442 12.8634 35.8261 12.884 35.0425L12.907 34.1672H19.5H26.093L26.116 35.0425C26.1366 35.8261 26.1554 35.9442 26.2957 36.1699C26.3819 36.3087 26.573 36.5019 26.7203 36.5993C26.9434 36.747 27.0614 36.7766 27.4271 36.7766C27.7928 36.7766 27.9109 36.747 28.1339 36.5993C28.2812 36.5019 28.4723 36.3087 28.5585 36.1699C28.7015 35.9399 28.7174 35.831 28.7402 34.9269L28.7651 33.936L29.2356 33.7104C29.8904 33.3966 30.6206 32.6633 30.9516 31.9873C31.371 31.1306 31.3882 30.9489 31.3895 27.3531L31.3907 24.1392L32.2659 24.1162C33.0495 24.0956 33.1677 24.0767 33.3934 23.9364C33.5321 23.8502 33.7253 23.6591 33.8228 23.5119C33.9704 23.2888 34 23.1707 34 22.805C34 22.4393 33.9704 22.3213 33.8228 22.0982C33.7253 21.951 33.5321 21.7598 33.3934 21.6736L33.1412 21.5169L29.5174 21.4982L25.8935 21.4795L25.9332 21.333C26.0771 20.8028 26.1125 20.2299 26.0937 18.7401C26.0735 17.1373 26.0685 17.0838 25.9161 16.8388C25.8299 16.7 25.6389 16.5068 25.4917 16.4094L25.2241 16.2321L23.0481 16.2123L20.872 16.1924L20.9143 15.9811C21.0419 15.342 21.6401 14.4972 22.2523 14.0918C22.8199 13.7158 23.2076 13.6136 24.2619 13.562C25.3601 13.5083 25.5751 13.4268 25.8957 12.9424C26.0428 12.7201 26.0729 12.6009 26.0729 12.2404C26.0729 11.7201 25.9054 11.3985 25.4917 11.1247C25.2484 10.9637 25.1559 10.9454 24.4733 10.9238C23.2236 10.8841 22.3474 11.0675 21.3331 11.581L20.8212 11.8403V11.5184C20.8212 10.1519 21.6523 8.94726 22.9281 8.4645C23.2108 8.35755 23.5263 8.31329 24.2619 8.27729C25.3601 8.22359 25.5751 8.14207 25.8957 7.65766C26.0433 7.43457 26.0729 7.31653 26.0729 6.95082C26.0729 6.58512 26.0433 6.46707 25.8957 6.24399C25.5862 5.77629 25.3283 5.66709 24.4683 5.63928C23.2269 5.59918 22.3464 5.78329 21.338 6.29386L20.8309 6.55057L20.8095 5.21485C20.7891 3.94301 20.7806 3.86698 20.6314 3.62692C20.3199 3.12579 19.6354 2.87933 19.0515 3.05802ZM23.4535 19.7217C23.432 20.5466 23.4194 20.6188 23.2533 20.8696C23.1558 21.0168 22.9626 21.2079 22.8239 21.2941L22.5718 21.4508H19.4952H16.4186L16.1508 21.2736C16.0036 21.1761 15.8124 20.9829 15.7262 20.8442C15.5859 20.6185 15.5671 20.5004 15.5465 19.7168L15.5235 18.8415H19.5H23.4765L23.4535 19.7217ZM28.7342 27.3796L28.7153 30.6331L28.5585 30.8852C28.4723 31.0239 28.2812 31.2171 28.1339 31.3146L27.8661 31.4918H19.5H11.1339L10.8661 31.3146C10.7188 31.2171 10.5277 31.0239 10.4415 30.8852L10.2847 30.6331L10.2658 27.3796L10.247 24.1262H19.5H28.753L28.7342 27.3796ZM19.0515 26.5751C18.7368 26.6714 18.3325 27.1039 18.2416 27.4415C18.0834 28.0288 18.3184 28.6461 18.8185 28.9569C19.1932 29.1899 19.8383 29.1803 20.2068 28.9365C20.6192 28.6636 20.7882 28.3407 20.7882 27.8255C20.7882 27.317 20.6195 26.9877 20.2257 26.7271C19.9423 26.5396 19.3979 26.4691 19.0515 26.5751Z" fill="white"/>
</svg>
