<svg width="40" height="40" viewBox="0 0 40 40" fill="none" xmlns="http://www.w3.org/2000/svg">
<path fill-rule="evenodd" clip-rule="evenodd" d="M8.7375 5.04588C8.46933 5.1236 8.12043 5.4953 8.04192 5.78696C7.9061 6.29129 8.1079 6.82139 8.53735 7.08836C8.7312 7.20886 8.83263 7.22503 9.50512 7.24273L10.2563 7.26247L10.271 20.2666L10.2856 33.2708L10.4378 33.5008C10.5215 33.6272 10.6875 33.7913 10.8066 33.8654L11.0231 34H20.473H29.9228L30.1528 33.8478C30.2793 33.7641 30.4434 33.5982 30.5174 33.479L30.652 33.2625L30.6667 20.2625L30.6814 7.26247L31.4325 7.24273C32.105 7.22503 32.2065 7.20886 32.4003 7.08836C32.5195 7.01433 32.6854 6.85021 32.7691 6.72376C32.8959 6.53217 32.9213 6.4308 32.9213 6.11673C32.9213 5.80267 32.8959 5.70129 32.7691 5.50971C32.6854 5.38326 32.5195 5.21914 32.4003 5.1451L32.1838 5.01048L20.5539 5.00112C13.3197 4.99533 8.85357 5.01224 8.7375 5.04588ZM28.4112 19.5052V31.7591H20.4688H12.5265V19.5052V7.25135H20.4688H28.4112V19.5052ZM15.5452 9.58402C15.2845 9.66009 14.928 10.0342 14.8538 10.3097C14.8121 10.4648 14.7976 11.7024 14.8083 14.1888L14.8241 17.8401L14.9763 18.07C15.06 18.1965 15.2259 18.3605 15.3451 18.4346L15.5616 18.5692H20.473H25.3843L25.6143 18.417C25.7408 18.3333 25.9049 18.1674 25.9789 18.0482L26.1136 17.8317V14.0591V10.2865L25.9789 10.0699C25.9049 9.95078 25.7408 9.78484 25.6143 9.70117L25.3844 9.54896L20.5581 9.53926C17.6129 9.53336 15.6591 9.55077 15.5452 9.58402ZM23.8727 14.0591V16.3283H20.4688H17.065V14.0591V11.7898H20.4688H23.8727V14.0591ZM24.6222 20.7006C24.3518 20.7833 24.0047 21.1547 23.9266 21.4447C23.7908 21.949 23.9926 22.4791 24.422 22.7461C24.7438 22.9461 25.2978 22.938 25.6143 22.7285C25.9684 22.4942 26.1136 22.2169 26.1136 21.7745C26.1136 21.3378 25.9687 21.055 25.6305 20.8312C25.3872 20.6701 24.9196 20.6096 24.6222 20.7006ZM17.8145 27.2836C17.5457 27.3627 17.1973 27.7343 17.1189 28.0255C16.9831 28.5298 17.1849 29.0599 17.6143 29.3269L17.8308 29.4615H20.4688H23.1068L23.3234 29.3269C23.4425 29.2529 23.6084 29.0887 23.6921 28.9623C23.8189 28.7707 23.8443 28.6693 23.8443 28.3553C23.8443 28.0412 23.8189 27.9398 23.6921 27.7482C23.6084 27.6218 23.4425 27.4577 23.3234 27.3836L23.1068 27.249L20.5539 27.2389C19.0421 27.2328 17.925 27.2511 17.8145 27.2836Z" fill="white"/>
</svg>
