<svg width="40" height="40" viewBox="0 0 40 40" fill="none" xmlns="http://www.w3.org/2000/svg">
<path fill-rule="evenodd" clip-rule="evenodd" d="M19.1744 5.01856C15.1514 5.45043 11.9301 8.39805 11.1366 12.3735C10.9545 13.2859 10.9545 14.8339 11.1366 15.7463C11.4235 17.1837 11.9944 18.4428 12.8866 19.606L13.2463 20.0749V25.9115V31.7481L12.4904 31.7678C11.782 31.7863 11.72 31.7972 11.5046 31.9398C11.1506 32.1742 11.0055 32.4515 11.0055 32.8938C11.0055 33.3362 11.1506 33.6135 11.5047 33.8478L11.7347 34H20.0537H28.3727L28.6027 33.8478C28.9568 33.6135 29.1019 33.3362 29.1019 32.8938C29.1019 32.4515 28.9569 32.1742 28.6028 31.9398C28.3874 31.7972 28.3254 31.7863 27.6171 31.7678L26.8612 31.7481V25.9115V20.0749L27.2213 19.606C28.1234 18.4313 28.7055 17.1254 28.998 15.6199C29.1512 14.8314 29.1376 13.2089 28.9708 12.3735C28.2373 8.69837 25.4362 5.88401 21.7839 5.15238C21.2281 5.04102 19.6967 4.96251 19.1744 5.01856ZM21.5287 7.4154C23.5264 7.87235 25.2205 9.20337 26.1476 11.0446C26.6255 11.9933 26.8328 12.9059 26.8328 14.0599C26.8328 14.9534 26.7664 15.396 26.5165 16.1676C26.1873 17.1841 25.6393 18.069 24.8511 18.8573C23.8847 19.8237 22.7461 20.4447 21.4152 20.7312C20.8133 20.8609 19.4208 20.8765 18.8341 20.7603C16.0344 20.2058 13.9079 18.0792 13.3533 15.2796C13.2371 14.6928 13.2528 13.3003 13.3824 12.6984C13.6691 11.3668 14.2952 10.2178 15.2545 9.26316C16.2712 8.25129 17.5479 7.58059 18.8624 7.36786C19.0964 7.32996 19.3262 7.28969 19.373 7.27834C19.6102 7.22082 21.089 7.31482 21.5287 7.4154ZM19.6686 9.58237C19.404 9.66338 19.051 10.0367 18.9761 10.315C18.9347 10.4689 18.9193 11.2007 18.9306 12.4878C18.9474 14.4177 18.9483 14.4298 19.0821 14.6452C19.1562 14.7643 19.3203 14.9302 19.4467 15.0139L19.6767 15.1661H21.1883H22.6999L22.9299 15.0139C23.284 14.7796 23.4291 14.5023 23.4291 14.0599C23.4291 13.6176 23.284 13.3403 22.93 13.1059C22.7148 12.9633 22.6523 12.9524 21.948 12.934L21.1957 12.9144L21.1779 11.6009C21.1606 10.3329 21.1553 10.28 21.0253 10.0709C20.7578 9.64058 20.17 9.42892 19.6686 9.58237ZM16.1395 22.2364C16.7455 22.5312 17.5999 22.8195 18.2372 22.9442C18.4718 22.9901 18.7213 23.0398 18.7915 23.0547L18.9192 23.0819V25.1451V27.2083L18.7064 27.2468C18.4152 27.2995 18.1088 27.5108 17.9476 27.7702C17.7475 28.092 17.7557 28.646 17.9651 28.9625C18.0488 29.089 18.2148 29.2531 18.3339 29.3271C18.5476 29.46 18.5703 29.4617 20.0537 29.4617C21.5372 29.4617 21.5599 29.46 21.7736 29.3271C21.8927 29.2531 22.0586 29.089 22.1423 28.9625C22.3517 28.646 22.3599 28.092 22.1599 27.7702C21.9986 27.5108 21.6923 27.2995 21.401 27.2468L21.1883 27.2083V25.1451V23.0819L21.3159 23.0545C21.3862 23.0395 21.6599 22.9851 21.9242 22.9337C22.5248 22.8169 23.3947 22.5169 24.0247 22.2094C24.2899 22.08 24.526 21.9654 24.5495 21.9549C24.5729 21.9444 24.592 24.146 24.592 26.8475V31.7592H20.0537H15.5154V26.8475C15.5154 24.146 15.5346 21.9444 15.558 21.9549C15.5814 21.9655 15.843 22.0922 16.1395 22.2364Z" fill="white"/>
</svg>
