<svg width="40" height="40" viewBox="0 0 40 40" fill="none" xmlns="http://www.w3.org/2000/svg">
<path fill-rule="evenodd" clip-rule="evenodd" d="M5.7375 5.04584C5.46933 5.12356 5.12043 5.49521 5.04192 5.78692C4.9061 6.29126 5.1079 6.82135 5.53735 7.08833C5.7312 7.20883 5.83264 7.225 6.50558 7.2427L7.25727 7.26244L7.25823 17.9649C7.25936 29.8205 7.23576 29.073 7.6343 29.887C7.91858 30.4675 8.54568 31.0973 9.108 31.3668L9.5121 31.5606L9.53348 32.4115C9.553 33.188 9.56667 33.2814 9.6895 33.479C9.76353 33.5982 9.92765 33.7641 10.0541 33.8478C10.2457 33.9746 10.3471 34 10.6611 34C10.9752 34 11.0766 33.9746 11.2681 33.8478C11.3946 33.7641 11.5587 33.5982 11.6328 33.479C11.7533 33.2852 11.7694 33.1838 11.7871 32.5108L11.8069 31.7591H18.6035H25.4001L25.4198 32.5108C25.4375 33.1838 25.4537 33.2852 25.5742 33.479C25.6482 33.5982 25.8123 33.7641 25.9388 33.8478C26.1304 33.9746 26.2318 34 26.5458 34C26.8599 34 26.9613 33.9746 27.1528 33.8478C27.2793 33.7641 27.4434 33.5982 27.5174 33.479C27.6403 33.2814 27.6539 33.188 27.6735 32.4115L27.6948 31.5606L28.0989 31.3668C28.6613 31.0973 29.2884 30.4675 29.5726 29.887C29.9712 29.073 29.9476 29.8205 29.9487 17.9649L29.9497 7.26244L30.7014 7.2427C31.3743 7.225 31.4757 7.20883 31.6696 7.08833C31.7887 7.0143 31.9547 6.85017 32.0383 6.72372C32.1651 6.53214 32.1906 6.43076 32.1906 6.1167C32.1906 5.80263 32.1651 5.70126 32.0383 5.50968C31.9547 5.38322 31.7887 5.2191 31.6696 5.14507L31.4531 5.01044L18.6886 5.00114C10.739 4.9953 5.85368 5.0122 5.7375 5.04584ZM18.6035 18.372V29.4927L14.4437 29.4771L10.284 29.4615L10.054 29.3093C9.9276 29.2256 9.76353 29.0597 9.6895 28.9406L9.55487 28.724L9.54012 17.9877L9.52537 7.25132H14.0644H18.6035V18.372ZM27.6804 8.38594V9.52056H24.2766H20.8727V8.38594V7.25132H24.2766H27.6804V8.38594ZM27.667 20.261L27.6521 28.7323L27.4999 28.9623C27.4162 29.0888 27.2502 29.2529 27.1311 29.3269L26.9146 29.4615L23.8936 29.4776L20.8727 29.4937V20.6417V11.7898H24.2773H27.6819L27.667 20.261ZM14.8145 16.1621C14.5482 16.2436 14.1969 16.6164 14.1211 16.8979C14.0801 17.0501 14.064 17.6181 14.0755 18.5078L14.0934 19.8826L14.2456 20.1124C14.48 20.4664 14.7573 20.6115 15.1996 20.6115C15.642 20.6115 15.9193 20.4664 16.1537 20.1122L16.3059 19.8823V18.3747C16.3059 16.8869 16.3041 16.8644 16.1712 16.6507C15.9037 16.2203 15.3159 16.0087 14.8145 16.1621Z" fill="white"/>
</svg>
