<svg width="40" height="40" viewBox="0 0 40 40" fill="none" xmlns="http://www.w3.org/2000/svg">
<path fill-rule="evenodd" clip-rule="evenodd" d="M19.0669 5.08739C17.2917 5.35914 15.5263 6.35924 13.9623 7.97911C10.7697 11.2857 9.21512 16.5588 10.392 20.0893C11.1994 22.5112 13.1488 24.1811 16.033 24.9215C16.7932 25.1166 17.8217 25.2875 18.5062 25.3323L19.0669 25.3691V26.6207V27.8723L16.8602 30.0855C14.8773 32.0743 14.6467 32.3246 14.5861 32.5534C14.4443 33.0876 14.6703 33.6437 15.1256 33.8815C15.3505 33.999 15.3938 34 20.201 34C24.8675 34 25.0578 33.9959 25.2688 33.8912C25.7266 33.6639 25.9576 33.1018 25.8135 32.566C25.7477 32.3215 25.5539 32.1102 23.5384 30.0855L21.3352 27.8723V26.6122V25.352H21.6158C21.7702 25.352 22.1976 25.3126 22.5657 25.2645C26.949 24.6912 29.5763 22.5977 30.2463 19.1447C30.921 15.6664 29.3321 10.9817 26.4689 8.00826C24.2275 5.68061 21.7019 4.68397 19.0669 5.08739ZM21.1367 7.3695C22.4325 7.63829 23.5681 8.29855 24.7116 9.4478C26.8545 11.6015 28.2695 15.0972 28.1193 17.8665C27.9571 20.8577 26.081 22.4916 22.1858 23.0345C21.4706 23.1341 18.936 23.1345 18.2162 23.0351C14.8474 22.5698 12.9847 21.2687 12.4319 18.9946C12.3636 18.7136 12.3024 18.2167 12.2826 17.7815C12.1431 14.717 13.8964 10.855 16.3376 8.84992C17.9228 7.54785 19.5609 7.04252 21.1367 7.3695ZM18.8967 14.1592C16.0488 14.5438 14.2661 16.0621 14.5711 17.8431C14.8293 19.35 16.4958 20.4646 18.9705 20.7853C20.9721 21.0447 23.0982 20.6592 24.4139 19.7981C26.025 18.7437 26.3319 17.0434 25.1433 15.7559C23.962 14.4762 21.3995 13.8211 18.8967 14.1592ZM21.1367 16.3983C21.7565 16.4742 22.4747 16.6762 22.9145 16.8982C23.2615 17.0733 23.6035 17.357 23.6035 17.4696C23.6035 17.5821 23.2615 17.8658 22.9145 18.041C21.455 18.7777 18.9471 18.7777 17.4875 18.041C17.1406 17.8658 16.7985 17.5821 16.7985 17.4696C16.7985 17.3567 17.1409 17.0732 17.4897 16.897C18.4086 16.4332 19.8327 16.2385 21.1367 16.3983ZM21.1084 30.8811L21.986 31.76H20.201H18.4161L19.2937 30.8811C19.7764 30.3976 20.1847 30.0021 20.201 30.0021C20.2174 30.0021 20.6257 30.3976 21.1084 30.8811Z" fill="white"/>
</svg>
