<svg width="40" height="40" viewBox="0 0 40 40" fill="none" xmlns="http://www.w3.org/2000/svg">
<path fill-rule="evenodd" clip-rule="evenodd" d="M19.381 5.01752C19.3342 5.02885 19.1047 5.06909 18.8709 5.10695C17.5574 5.31953 16.2708 5.99486 15.2671 6.99855C14.333 7.93264 13.7331 9.00927 13.4168 10.319C13.3125 10.7513 13.298 11.0278 13.2763 13.011C13.2488 15.5141 13.2737 15.755 13.6368 16.4964C13.9229 17.0806 14.548 17.7066 15.1131 17.9748L15.5208 18.1683L15.524 19.2848L15.5272 20.4012L13.6385 20.4182L11.7499 20.4353L11.5202 20.5873C11.0284 20.913 10.9003 21.4427 11.0729 22.4366C11.4366 24.5308 12.8079 26.1639 14.8188 26.8977C14.9746 26.9546 15.111 27.0076 15.1218 27.0155C15.1326 27.0234 14.7152 28.311 14.1941 29.8769C13.3361 32.4555 13.2498 32.7502 13.2796 33.0018C13.3908 33.9409 14.5213 34.3344 15.1891 33.6666C15.3835 33.4722 15.4662 33.2518 16.4398 30.3331L17.4824 27.2078H20.0611H22.6397L23.6823 30.3331C24.6559 33.2518 24.7386 33.4722 24.9331 33.6666C25.6009 34.3344 26.7313 33.9409 26.8425 33.0018C26.8723 32.7502 26.7861 32.4555 25.928 29.8769C25.407 28.311 24.9895 27.0245 25.0003 27.0178C25.0112 27.0113 25.2603 26.9098 25.554 26.7923C27.4096 26.0503 28.7013 24.4407 29.0493 22.4366C29.2219 21.4427 29.0937 20.913 28.6019 20.5873L28.3723 20.4353L26.4836 20.4182L24.595 20.4012L24.5981 19.2848L24.6014 18.1683L25.009 17.9748C25.8635 17.5692 26.577 16.6321 26.7818 15.6463C26.9086 15.0361 26.8668 10.9958 26.7277 10.414C26.0814 7.71139 24.1466 5.7519 21.5346 5.15444C21.0954 5.05396 19.618 4.96005 19.381 5.01752ZM21.1387 7.39164C22.3205 7.71411 23.2171 8.35633 23.8643 9.34382C24.1417 9.76689 24.3052 10.1439 24.4721 10.7441C24.5526 11.0338 24.5666 11.3992 24.5666 13.2134V15.3428L24.4146 15.5726C24.331 15.699 24.1652 15.8629 24.0462 15.9369L23.8299 16.0714H20.0611H16.2923L16.0759 15.9369C15.9569 15.8629 15.7912 15.699 15.7076 15.5726L15.5555 15.3428V13.2134C15.5555 11.3992 15.5695 11.0338 15.65 10.7441C15.8173 10.1423 15.9806 9.76666 16.2634 9.33356C16.9308 8.31117 17.981 7.60093 19.211 7.34001C19.6652 7.24366 20.6978 7.27132 21.1387 7.39164ZM22.328 19.3868V20.4069H20.0611H17.7941V19.3868V18.3667H20.0611H22.328V19.3868ZM26.6352 22.7368C26.6352 22.9248 26.2237 23.5429 25.8437 23.9258C25.3521 24.4211 24.8132 24.7205 24.1699 24.8556C23.5846 24.9784 16.5376 24.9784 15.9522 24.8556C15.309 24.7205 14.77 24.4211 14.2784 23.9258C13.8984 23.5429 13.4869 22.9248 13.4869 22.7368C13.4869 22.691 15.2817 22.6739 20.0611 22.6739C24.8405 22.6739 26.6352 22.691 26.6352 22.7368Z" fill="white"/>
</svg>
