<svg width="40" height="40" viewBox="0 0 40 40" fill="none" xmlns="http://www.w3.org/2000/svg">
<path fill-rule="evenodd" clip-rule="evenodd" d="M18.3682 6.03591C15.5525 6.38064 13.0775 7.84424 11.4225 10.143C11.0047 10.7233 10.3487 12.0052 10.1003 12.7264C9.73878 13.7765 9.52612 15.0861 9.52612 16.2623V16.8434L9.14353 16.8791C8.38928 16.9495 7.68537 17.1922 7.06982 17.594C4.69492 19.1444 4.29459 22.4157 6.2288 24.4661C6.43619 24.6859 6.75168 24.9647 6.92988 25.0858C7.18885 25.2616 7.25953 25.3427 7.28169 25.4896C7.53596 27.1737 7.87814 28.1168 8.65908 29.2856C9.24124 30.1569 10.368 31.1784 11.3467 31.7222L11.7835 31.9649L11.8026 33.0985C11.8207 34.1758 11.8284 34.2428 11.9562 34.4485C12.0301 34.5675 12.1941 34.7333 12.3205 34.8169C12.5119 34.9436 12.6132 34.969 12.9269 34.969C13.2407 34.969 13.342 34.9436 13.5334 34.8169C13.6598 34.7333 13.8237 34.5675 13.8977 34.4485C14.0186 34.254 14.0341 34.1548 14.0515 33.4669L14.0707 32.7018H19.5018H24.9329L24.9522 33.4669C24.9696 34.1548 24.9851 34.254 25.106 34.4485C25.18 34.5675 25.3439 34.7333 25.4703 34.8169C25.6617 34.9436 25.763 34.969 26.0768 34.969C26.3905 34.969 26.4918 34.9436 26.6832 34.8169C26.8096 34.7333 26.9735 34.5675 27.0475 34.4485C27.1755 34.2426 27.1829 34.1769 27.2003 33.0936L27.2185 31.9552L27.4764 31.8299C28.306 31.4269 29.4729 30.4402 30.0984 29.6127C31.0451 28.3607 31.4399 27.3579 31.722 25.4896C31.7442 25.3427 31.8148 25.2616 32.0738 25.0858C32.4919 24.8018 33.0973 24.1587 33.3462 23.7341C34.6066 21.5836 33.9973 18.947 31.9266 17.5902C31.3198 17.1927 30.6128 16.9494 29.8602 16.8791L29.4776 16.8434V16.2418C29.4776 11.169 26.0508 6.97816 21.2022 6.12133C20.5683 6.00927 18.9773 5.96132 18.3682 6.03591ZM21.1027 8.4137C23.4053 8.89781 25.3383 10.4213 26.3894 12.5803C26.9567 13.7456 27.151 14.6359 27.1936 16.2658L27.2248 17.4575L26.92 17.6618C25.7985 18.4135 25.0639 19.7015 24.9608 21.0965C24.9418 21.3537 24.9237 21.5641 24.9205 21.5641C24.9174 21.5641 24.7362 21.5263 24.518 21.48C24.2308 21.4192 23.742 21.3957 22.7468 21.395C21.9908 21.3945 21.3723 21.3811 21.3723 21.3653C21.3723 21.3495 21.7091 20.6672 22.1207 19.8491C22.8501 18.3995 22.8692 18.3522 22.8717 17.9891C22.8739 17.6772 22.8495 17.5791 22.7222 17.3868C22.4863 17.0302 22.2118 16.888 21.7598 16.888C21.4321 16.888 21.3494 16.9106 21.1363 17.0585C20.9142 17.2125 20.8249 17.3586 20.2103 18.5742C19.8363 19.3142 19.5174 19.9196 19.5018 19.9196C19.4863 19.9196 19.1674 19.3142 18.7933 18.5742C18.1788 17.3586 18.0895 17.2125 17.8674 17.0585C17.6542 16.9106 17.5715 16.888 17.2439 16.888C16.7919 16.888 16.5173 17.0302 16.2814 17.3868C16.1541 17.5791 16.1298 17.6772 16.132 17.9891C16.1345 18.3522 16.1536 18.3995 16.883 19.8491C17.2946 20.6672 17.6314 21.3495 17.6314 21.3653C17.6314 21.3811 17.0129 21.3945 16.2569 21.395C15.2617 21.3957 14.7729 21.4192 14.4856 21.48C14.2675 21.5263 14.0863 21.5641 14.0832 21.5641C14.08 21.5641 14.0618 21.3537 14.0429 21.0965C13.94 19.7047 13.1981 18.4036 12.0837 17.6607L11.7789 17.4575L11.81 16.2658C11.834 15.3522 11.8696 14.942 11.963 14.5074C12.312 12.8833 13.0105 11.5749 14.1121 10.482C15.3818 9.22213 16.8565 8.51556 18.7083 8.2796C19.1619 8.22178 20.5632 8.30029 21.1027 8.4137ZM10.4573 19.3434C10.9686 19.5826 11.2996 19.9082 11.5533 20.4212L11.765 20.8493L11.7961 23.148C11.8254 25.3113 11.8345 25.4684 11.9505 25.8151C12.1317 26.3569 12.4536 26.8595 12.8712 27.2527C13.3165 27.6721 13.7904 27.9335 14.3777 28.0837C14.7964 28.1908 15.0205 28.1957 19.5018 28.1957C23.9832 28.1957 24.2073 28.1908 24.626 28.0837C25.7648 27.7925 26.6769 26.9399 27.0532 25.8151C27.1691 25.4685 27.1783 25.3112 27.2076 23.1511L27.2387 20.8556L27.4181 20.477C27.6677 19.95 27.989 19.6218 28.5049 19.3669C28.9096 19.1669 28.9632 19.1552 29.4776 19.1552C29.9919 19.1552 30.0455 19.1669 30.4502 19.3669C30.9661 19.6218 31.2874 19.95 31.537 20.477C31.6993 20.8194 31.7164 20.9071 31.7164 21.394C31.7164 21.882 31.6995 21.9683 31.5355 22.3146C31.2949 22.8223 30.9129 23.1969 30.3751 23.4521C29.916 23.6699 29.6381 23.9328 29.5452 24.2374C29.5135 24.3414 29.4734 24.707 29.4562 25.0499C29.384 26.4865 28.8091 27.7923 27.8081 28.7934C26.9663 29.6351 25.9324 30.1692 24.7428 30.3766C24.0104 30.5043 14.997 30.505 14.2651 30.3774C11.5401 29.9022 9.52612 27.5378 9.52612 24.814C9.52612 24.0947 9.31901 23.7819 8.62337 23.4504C8.09097 23.1967 7.70747 22.8196 7.46823 22.3146C7.30419 21.9683 7.28725 21.882 7.28725 21.394C7.28725 20.9071 7.30442 20.8194 7.46664 20.477C7.69438 19.9962 8.01865 19.6443 8.4416 19.4189C8.88807 19.1809 9.13236 19.1271 9.65359 19.1519C9.99379 19.1681 10.175 19.2112 10.4573 19.3434ZM24.416 23.8417C24.7698 24.0758 24.9148 24.3529 24.9148 24.7949C24.9148 25.2369 24.7698 25.5139 24.416 25.7481L24.1862 25.9001H19.506H14.8257L14.6094 25.7656C14.1803 25.4989 13.9787 24.9693 14.1144 24.4654C14.1928 24.1742 14.5411 23.8029 14.8093 23.7246C14.9229 23.6914 16.7914 23.674 19.5911 23.6799L24.1863 23.6896L24.416 23.8417Z" fill="white"/>
</svg>
