<svg width="40" height="40" viewBox="0 0 40 40" fill="none" xmlns="http://www.w3.org/2000/svg">
<path fill-rule="evenodd" clip-rule="evenodd" d="M18.0793 5.10031C17.4914 5.25698 17.0257 5.52322 16.5488 5.97511C16.2144 6.29207 16.0864 6.46597 15.8808 6.88264C15.6309 7.38898 15.6132 7.46408 14.8848 11.1133C14.1763 14.6633 14.1445 14.8524 14.1697 15.3673C14.2399 16.806 15.0897 17.9171 16.5208 18.4421C16.8068 18.547 17.0051 18.5653 18.0821 18.5868L19.3157 18.6115V19.7422V20.873L16.2954 20.8569L13.275 20.8409L13.0585 20.7063C12.9394 20.6322 12.7735 20.4683 12.6898 20.3419L12.5376 20.1121L12.5054 18.4629C12.4763 16.9785 12.4608 16.7769 12.3509 16.445C11.9678 15.2893 10.9942 14.4084 9.8083 14.1445C9.00526 13.9659 8.47004 14.1099 8.15218 14.5903C8.02541 14.7818 8 14.8832 8 15.1972C8 15.8631 8.35411 16.2249 9.11087 16.3323C9.5994 16.4016 9.87779 16.5595 10.0775 16.8808C10.2088 17.0919 10.2129 17.1381 10.2452 18.7422C10.2748 20.216 10.2909 20.4254 10.3997 20.7558C10.6795 21.6056 11.3488 22.3886 12.1033 22.7488L12.5029 22.9395L12.5061 23.7954C12.5113 25.2024 12.7544 25.8826 13.5283 26.6566C14.0196 27.1479 14.4548 27.3997 15.0955 27.5636C15.4888 27.6642 15.7271 27.6757 17.4247 27.6757H19.3157V28.5832V29.4907H17.4247C15.7271 29.4907 15.4888 29.5022 15.0955 29.6027C14.4571 29.766 14.0199 30.0186 13.5256 30.5098C13.0251 31.0072 12.7407 31.5191 12.591 32.1917C12.4124 32.9947 12.5564 33.53 13.0368 33.8478C13.2283 33.9746 13.3297 34 13.6437 34C14.308 34 14.6715 33.6456 14.7781 32.894C14.8473 32.4055 14.9887 32.1498 15.3055 31.9401L15.5353 31.7879L17.4198 31.7709L19.3044 31.7539L19.3243 32.5083C19.342 33.184 19.3581 33.2852 19.4787 33.4791C19.5527 33.5982 19.7168 33.7642 19.8432 33.8478C20.0348 33.9746 20.1361 34 20.4501 34C20.7641 34 20.8655 33.9746 21.057 33.8478C21.1835 33.7642 21.3476 33.5982 21.4216 33.4791C21.5422 33.2852 21.5582 33.184 21.576 32.5083L21.5958 31.7539L23.4804 31.7709L25.365 31.7879L25.5948 31.9401C25.9116 32.1498 26.0529 32.4055 26.1222 32.894C26.1915 33.3825 26.3328 33.6382 26.6497 33.8478C26.8412 33.9746 26.9426 34 27.2566 34C27.5706 34 27.672 33.9746 27.8635 33.8478C28.3439 33.53 28.4879 32.9947 28.3093 32.1917C28.1596 31.5191 27.8751 31.0072 27.3746 30.5098C26.8804 30.0186 26.4432 29.766 25.8048 29.6027C25.4115 29.5022 25.1732 29.4907 23.4756 29.4907H21.5845V28.5832V27.6757H23.4756C25.1732 27.6757 25.4115 27.6642 25.8048 27.5636C26.4455 27.3997 26.8806 27.1479 27.372 26.6566C28.1459 25.8826 28.389 25.2024 28.3942 23.7954L28.3974 22.9395L28.7969 22.7488C29.5515 22.3886 30.2208 21.6056 30.5006 20.7558C30.6094 20.4253 30.6254 20.2161 30.6551 18.7379L30.6882 17.0887L30.8404 16.8589C31.0507 16.5412 31.3055 16.4009 31.799 16.3309C32.5479 16.2247 32.9003 15.8606 32.9003 15.193C32.9003 14.8835 32.8744 14.7811 32.7481 14.5903C32.4302 14.1099 31.895 13.9659 31.092 14.1445C29.9061 14.4084 28.9325 15.2893 28.5494 16.445C28.4395 16.7767 28.424 16.9787 28.3949 18.4586C28.3634 20.0634 28.3593 20.1088 28.228 20.32C28.154 20.4391 27.99 20.605 27.8636 20.6887L27.6337 20.8409L24.6091 20.8569L21.5845 20.873V19.7422V18.6115L22.8182 18.5868C23.8952 18.5653 24.0935 18.547 24.3794 18.4421C24.9387 18.2369 25.3693 17.9752 25.7218 17.6259C26.3583 16.9953 26.6835 16.2769 26.7312 15.3957C26.7574 14.9132 26.718 14.6796 26.0132 11.1417C25.2855 7.48819 25.2615 7.38569 25.0163 6.88264C24.6183 6.06604 23.964 5.499 23.0038 5.13854C22.7108 5.02851 22.5554 5.01994 20.5919 5.00548C18.6633 4.99124 18.4598 4.9989 18.0793 5.10031ZM22.5886 7.43686C23.0209 7.72307 23.0178 7.71257 23.7771 11.4996C24.1622 13.4205 24.4773 15.0967 24.4773 15.2244C24.4773 15.5518 24.2693 15.9286 23.9761 16.1323L23.7302 16.3032H20.4501H17.1701L16.9242 16.1323C16.6322 15.9294 16.423 15.5519 16.4229 15.2277C16.4228 14.8599 17.7776 8.16628 17.9075 7.89289C18.031 7.63305 18.3014 7.39267 18.5605 7.31252C18.6483 7.28535 19.5389 7.268 20.5395 7.2739L22.3588 7.28467L22.5886 7.43686ZM26.1136 23.8938C26.0951 24.6021 26.0842 24.6641 25.9416 24.8795C25.858 25.0058 25.6921 25.1699 25.573 25.2439L25.3565 25.3785H20.446H15.5355L15.3056 25.2263C15.1792 25.1426 15.0151 24.9767 14.9411 24.8576C14.8206 24.6638 14.8044 24.5624 14.7867 23.8896L14.767 23.138H20.4501H26.1333L26.1136 23.8938Z" fill="white"/>
</svg>
