<svg width="40" height="40" viewBox="0 0 40 40" fill="none" xmlns="http://www.w3.org/2000/svg">
<path fill-rule="evenodd" clip-rule="evenodd" d="M13.3323 9.04361C12.8262 9.1289 12.1165 9.40038 11.6667 9.6807C11.151 10.0021 10.5399 10.6084 10.2477 11.0886C9.55869 12.2208 5.63368 18.8721 5.49412 19.144C5.40253 19.3225 5.2599 19.7181 5.17727 20.023L5.02693 20.5774L5.00634 23.48C4.98422 26.591 5.00742 26.9512 5.28236 27.7692C5.66261 28.9005 6.48368 30.0004 7.42469 30.6391C7.9457 30.9927 8.74975 31.358 9.3349 31.5071L9.8419 31.6362H19.4829C28.6681 31.6362 29.1452 31.6312 29.5775 31.5311C31.6817 31.0436 33.3376 29.4209 33.8719 27.3227C33.9986 26.8251 34.001 26.7575 33.9999 23.6965L33.9987 20.5774L33.8468 20.023C33.7632 19.7181 33.6199 19.3225 33.5283 19.144C33.3867 18.8681 29.4218 12.1499 28.7747 11.0895C28.3334 10.3662 27.4239 9.60142 26.6694 9.31917C25.7912 8.99058 26.2451 9.01122 19.6813 9.00096C16.221 8.99551 13.5095 9.01372 13.3323 9.04361ZM25.8699 11.4547C26.3638 11.6887 26.6677 11.9718 26.9522 12.4627C27.0803 12.6837 28.1634 14.5121 29.359 16.5256C31.3046 19.8018 31.5449 20.2332 31.6469 20.632C31.7531 21.047 31.7609 21.259 31.7609 23.7249C31.7609 26.1756 31.7525 26.4047 31.6489 26.8102C31.4874 27.4414 31.2307 27.8843 30.7401 28.3777C30.2513 28.8693 29.8199 29.1191 29.1751 29.284C28.7476 29.3933 28.5132 29.396 19.5112 29.396C10.5092 29.396 10.2748 29.3933 9.84735 29.284C9.20673 29.1201 8.77164 28.8684 8.28041 28.3772C7.78917 27.8859 7.53743 27.4508 7.37354 26.8102C7.26987 26.4047 7.26153 26.1756 7.26153 23.7249C7.26153 21.2615 7.26941 21.0468 7.37518 20.6333C7.4924 20.175 7.34586 20.4298 12.2053 12.2322C12.4313 11.8508 13.0433 11.4284 13.5421 11.3093C13.6618 11.2807 16.3248 11.2625 19.6246 11.2676L25.4943 11.2767L25.8699 11.4547ZM14.5893 13.5776C14.319 13.6603 13.972 14.0315 13.8939 14.3214C13.7556 14.835 13.9323 15.2949 14.3998 15.6381C15.1242 16.1699 15.7327 17.0752 15.9662 17.9687C16.0152 18.1558 16.077 18.5946 16.1036 18.9438C16.1592 19.6728 16.2558 19.8901 16.6359 20.1417C16.8275 20.2685 16.9288 20.2939 17.2427 20.2939C17.5567 20.2939 17.658 20.2685 17.8496 20.1417C18.1928 19.9146 18.3333 19.6476 18.3643 19.1634C18.4301 18.1397 18.0672 16.7395 17.4816 15.7569C17.0275 14.9952 16.3131 14.2021 15.7035 13.783C15.3581 13.5456 14.9434 13.4691 14.5893 13.5776ZM23.6795 13.5734C23.4193 13.6545 22.6379 14.3082 22.2597 14.7613C21.1831 16.0512 20.6773 17.3734 20.6749 18.9044C20.6739 19.4932 20.6869 19.5776 20.8084 19.7731C20.8824 19.8922 21.0464 20.0581 21.1729 20.1417C21.3644 20.2685 21.4657 20.2939 21.7797 20.2939C22.0936 20.2939 22.195 20.2685 22.3865 20.1417C22.7666 19.8901 22.8632 19.6728 22.9188 18.9438C22.9454 18.5946 23.0071 18.1558 23.0558 17.9687C23.2571 17.1951 23.7714 16.3677 24.3626 15.8666C24.9091 15.4033 25.0627 15.2249 25.13 14.9753C25.3208 14.2664 24.8647 13.5975 24.1536 13.5435C23.9864 13.5308 23.7731 13.5443 23.6795 13.5734ZM10.0524 20.3862C9.78445 20.4635 9.43556 20.8351 9.35702 21.1268C9.22426 21.6197 9.4232 22.1618 9.8288 22.4124C9.93655 22.479 10.2076 22.5581 10.4422 22.5914C11.1696 22.6945 11.4681 22.9952 11.5723 23.7297C11.6416 24.2182 11.7995 24.4965 12.1207 24.6962L12.3372 24.8308H19.5112H26.6852L26.9017 24.6962C27.224 24.4958 27.3808 24.2184 27.4508 23.7249C27.5545 22.9939 27.854 22.6943 28.585 22.5907C29.0736 22.5214 29.3292 22.38 29.5388 22.0633C29.6655 21.8717 29.6909 21.7704 29.6909 21.4564C29.6909 21.1425 29.6655 21.0411 29.5388 20.8496C29.2247 20.3751 28.7058 20.2328 27.9045 20.4013C26.9155 20.6093 25.9801 21.322 25.5745 22.1763L25.3808 22.5843H19.5112H13.6416L13.4479 22.1763C13.1795 21.6108 12.5531 20.9853 11.9686 20.6991C11.3091 20.3763 10.5288 20.2488 10.0524 20.3862Z" fill="white"/>
</svg>
