<svg width="40" height="40" viewBox="0 0 40 40" fill="none" xmlns="http://www.w3.org/2000/svg">
<path fill-rule="evenodd" clip-rule="evenodd" d="M12.2451 11.0159C10.882 11.2375 9.80956 11.7651 8.92629 12.6484C8.20559 13.369 7.60615 14.4331 7.42311 15.3165L7.35294 15.6554L6.8939 15.8758C5.98575 16.3119 5.28263 17.2202 5.06785 18.2346C4.89717 19.041 5.05747 20.4436 5.44809 21.5613C5.83083 22.6565 6.41417 23.5691 7.3128 24.4785C8.04824 25.2228 8.85214 25.7883 9.69432 26.1537L10.1903 26.3689L9.87384 26.9924C9.58826 27.5553 9.55725 27.6518 9.55498 27.9844C9.55204 28.4264 9.69579 28.7024 10.0514 28.9377C10.2435 29.0649 10.3437 29.0898 10.6631 29.0898C10.9958 29.0898 11.0766 29.0678 11.2907 28.9187C11.5046 28.7699 11.5992 28.6242 12.0183 27.7997L12.5002 26.8518H19.5008H26.5014L26.9832 27.7997C27.4023 28.6242 27.497 28.7699 27.7108 28.9187C27.925 29.0678 28.0058 29.0898 28.3385 29.0898C28.6579 29.0898 28.758 29.0649 28.9502 28.9377C29.3058 28.7024 29.4495 28.4264 29.4466 27.9844C29.4443 27.6507 29.4136 27.5559 29.1201 26.9783C28.942 26.6275 28.8253 26.3406 28.861 26.3406C28.9978 26.3406 29.9934 25.8306 30.4751 25.5138C31.0987 25.1037 32.2307 23.9869 32.6248 23.3929C33.4648 22.1268 33.9206 20.7578 33.9931 19.2833C34.0507 18.1112 33.7519 17.2847 32.997 16.5277C32.6661 16.1959 32.4607 16.0454 32.1077 15.8758L31.6486 15.6554L31.5786 15.3153C31.5401 15.1282 31.4296 14.7839 31.3331 14.5501C30.6185 12.8187 29.2556 11.632 27.4084 11.1328C26.9554 11.0104 26.9456 11.0102 19.6708 11.0016C15.6646 10.9968 12.323 11.0033 12.2451 11.0159ZM26.7848 13.3316C27.879 13.5613 28.8529 14.3966 29.2523 15.4478L29.3615 15.7351L29.0085 15.9201C28.5462 16.1624 27.8592 16.8488 27.6176 17.3098C27.3916 17.7413 27.21 18.4298 27.21 18.8552C27.21 19.2744 27.0341 19.6235 26.7091 19.8494L26.4633 20.0202H19.5008H12.5383L12.2925 19.8494C11.9675 19.6235 11.7916 19.2744 11.7916 18.8552C11.7916 18.4298 11.61 17.7413 11.3839 17.3098C11.1424 16.8488 10.4554 16.1624 9.9931 15.9201L9.64007 15.7351L9.74924 15.4478C10.1437 14.4098 11.1184 13.5654 12.1884 13.3347C12.7514 13.2134 26.208 13.2105 26.7848 13.3316ZM14.5811 15.5744C14.311 15.6571 13.9641 16.0282 13.8861 16.3179C13.7504 16.8218 13.952 17.3515 14.3812 17.6183C14.7027 17.8181 15.2563 17.81 15.5725 17.6007C15.9263 17.3665 16.0713 17.0894 16.0713 16.6474C16.0713 16.211 15.9266 15.9285 15.5887 15.7048C15.3455 15.5439 14.8783 15.4834 14.5811 15.5744ZM19.1159 15.5744C18.8458 15.6571 18.4989 16.0282 18.4209 16.3179C18.2852 16.8218 18.4869 17.3515 18.916 17.6183C19.2375 17.8181 19.7911 17.81 20.1073 17.6007C20.4611 17.3665 20.6061 17.0894 20.6061 16.6474C20.6061 16.211 20.4614 15.9285 20.1235 15.7048C19.8803 15.5439 19.4131 15.4834 19.1159 15.5744ZM23.6508 15.5744C23.3807 15.6571 23.0337 16.0282 22.9557 16.3179C22.82 16.8218 23.0217 17.3515 23.4508 17.6183C23.7723 17.8181 24.3259 17.81 24.6421 17.6007C24.996 17.3665 25.141 17.0894 25.141 16.6474C25.141 16.211 24.9962 15.9285 24.6583 15.7048C24.4152 15.5439 23.948 15.4834 23.6508 15.5744ZM9.01319 17.9722C9.3601 18.2018 9.4686 18.4366 9.53016 19.0911C9.55992 19.4068 9.63672 19.8215 9.70089 20.0127C10.0327 21.001 10.8545 21.8022 11.905 22.1615L12.2734 22.2876L19.314 22.303C25.3337 22.3163 26.4126 22.3064 26.7545 22.2351C27.9542 21.9849 28.9238 21.1349 29.3053 19.9989C29.3721 19.8001 29.4487 19.3837 29.4757 19.0734C29.5153 18.6177 29.552 18.4681 29.6673 18.2939C29.8921 17.9542 30.174 17.8094 30.6111 17.8094C31.0533 17.8094 31.3303 17.9545 31.5643 18.3086C31.7062 18.5232 31.7161 18.5788 31.7117 19.1377C31.7011 20.4961 31.0956 21.8933 30.0751 22.9137C29.3688 23.62 28.3875 24.1758 27.405 24.426L26.8982 24.555H19.5291C12.5713 24.555 12.1352 24.5491 11.715 24.4506C9.8765 24.0196 8.43953 22.8129 7.69214 21.0726C7.36031 20.3 7.17359 19.0856 7.30969 18.5859C7.38882 18.2955 7.73601 17.9243 8.00567 17.8418C8.30287 17.7508 8.77006 17.8113 9.01319 17.9722Z" fill="white"/>
</svg>
