<svg width="40" height="40" viewBox="0 0 40 40" fill="none" xmlns="http://www.w3.org/2000/svg">
<path fill-rule="evenodd" clip-rule="evenodd" d="M19.5489 5.02954C16.9213 5.37011 14.7781 7.08584 13.8894 9.56019C13.8101 9.78086 13.7147 10.1167 13.6774 10.3065L13.6095 10.6515L12.8034 10.6709C12.0399 10.6893 11.9851 10.6983 11.7675 10.8424C11.4124 11.0776 11.2686 11.3537 11.2686 11.8004C11.2686 12.1099 11.2944 12.2122 11.4208 12.4031C11.5044 12.5295 11.6703 12.6936 11.7894 12.7676C11.9832 12.888 12.0846 12.9042 12.7573 12.9219L13.5088 12.9416V17.2435V21.5455L11.6231 21.5625C9.75119 21.5794 9.7357 21.5805 9.52081 21.7141C9.40171 21.7881 9.23582 21.9522 9.15217 22.0786C9.02541 22.2701 9 22.3715 9 22.6854C9 22.9994 9.02541 23.1008 9.15217 23.2923C9.23582 23.4187 9.40171 23.5828 9.52081 23.6568C9.71455 23.7772 9.81601 23.7934 10.4875 23.8111L11.2377 23.8308L11.2532 28.5468L11.2686 33.2627L11.4032 33.4792C11.4772 33.5983 11.6413 33.7642 11.7677 33.8478C11.9592 33.9746 12.0605 34 12.3745 34C12.6885 34 12.7898 33.9746 12.9814 33.8478C13.1078 33.7642 13.2719 33.5983 13.3459 33.4792L13.4805 33.2627L13.4959 28.5412L13.5114 23.8197H20.3146H27.1178L27.1333 28.5412L27.1487 33.2627L27.2833 33.4792C27.3573 33.5983 27.5214 33.7642 27.6478 33.8478C27.8393 33.9746 27.9406 34 28.2546 34C28.5686 34 28.6699 33.9746 28.8615 33.8478C28.9879 33.7642 29.152 33.5983 29.226 33.4792L29.3606 33.2627L29.376 28.5468L29.3914 23.8308L30.1416 23.8111C30.8131 23.7934 30.9146 23.7772 31.1083 23.6568C31.2274 23.5828 31.3933 23.4187 31.477 23.2923C31.6037 23.1008 31.6291 22.9994 31.6291 22.6854C31.6291 22.3715 31.6037 22.2701 31.477 22.0786C31.3933 21.9522 31.2274 21.7881 31.1083 21.7141C30.8934 21.5805 30.878 21.5794 29.0061 21.5625L27.1203 21.5455V17.2435V12.9416L27.876 12.9219C28.5842 12.9034 28.6462 12.8926 28.8616 12.75C29.2155 12.5156 29.3606 12.2384 29.3606 11.7962C29.3606 11.354 29.2155 11.0768 28.8616 10.8424C28.6439 10.6983 28.5894 10.6893 27.8235 10.6709L27.0151 10.6515L26.9758 10.4157C26.9118 10.0321 26.6322 9.22886 26.407 8.78161C26.0671 8.10676 25.6615 7.54835 25.112 6.99879C24.0697 5.95648 22.7623 5.28742 21.3526 5.07491C20.8421 4.99795 19.9631 4.97583 19.5489 5.02954ZM21.393 7.39216C22.5756 7.71486 23.4729 8.35755 24.1206 9.34575C24.6202 10.1081 24.8209 10.8101 24.8209 11.7962C24.8209 13.078 24.399 14.111 23.5142 14.9958C21.7546 16.7554 18.9086 16.7665 17.1429 15.0206C16.2335 14.1213 15.8083 13.094 15.8083 11.7962C15.8083 10.8072 16.008 10.1108 16.5141 9.33548C17.1821 8.31235 18.233 7.60161 19.4639 7.34049C19.9184 7.24408 20.9518 7.27175 21.393 7.39216ZM16.0334 17.0719C16.0949 17.1715 16.8672 17.6707 17.2803 17.8781C18.2948 18.3872 19.0991 18.5708 20.3146 18.5708C22.0029 18.5708 23.241 18.13 24.6958 17.011L24.8517 16.8911V19.2211V21.5511H20.3146H15.7774V19.2239C15.7774 16.9363 15.7793 16.8975 15.8877 16.9556C15.9483 16.988 16.0139 17.0404 16.0334 17.0719ZM16.5267 26.1515C16.2654 26.228 15.9096 26.6019 15.8352 26.8781C15.7936 27.033 15.7789 28.1014 15.7897 30.1889L15.8058 33.2711L15.9579 33.501C16.1922 33.8549 16.4695 34 16.9117 34C17.3539 34 17.6312 33.8549 17.8655 33.501L18.0176 33.2712L18.0341 30.8141L18.0505 28.3569H20.3146H22.5786L22.5951 30.8141L22.6115 33.2712L22.7637 33.501C22.9988 33.8562 23.2749 34 23.7216 34C24.0311 34 24.1335 33.9741 24.3243 33.8478C24.4507 33.7642 24.6148 33.5983 24.6888 33.4792L24.8234 33.2627V30.0583V26.854L24.6888 26.6375C24.6148 26.5184 24.4508 26.3525 24.3244 26.2688L24.0945 26.1167L20.4038 26.1068C18.1746 26.1008 16.6393 26.1185 16.5267 26.1515Z" fill="white"/>
</svg>
