<svg width="40" height="40" viewBox="0 0 40 40" fill="none" xmlns="http://www.w3.org/2000/svg">
<path fill-rule="evenodd" clip-rule="evenodd" d="M19.3126 5.05825C16.7565 5.34756 14.3043 6.65988 12.6619 8.61751C11.3374 10.1961 10.5246 12.0957 10.3003 14.1369C10.2602 14.5023 10.2398 17.5565 10.2398 23.2182V31.749L9.48425 31.7688C8.77618 31.7873 8.7142 31.7981 8.49889 31.9406C8.14499 32.175 8 32.4521 8 32.8943C8 33.3364 8.14505 33.6136 8.499 33.8479L8.72889 34H20.4467H32.1646L32.3945 33.8479C32.7484 33.6136 32.8935 33.3364 32.8935 32.8943C32.8935 32.4521 32.7485 32.175 32.3946 31.9406C32.1793 31.7981 32.1173 31.7873 31.4092 31.7688L30.6536 31.749V23.2182C30.6536 17.5565 30.6333 14.5023 30.5931 14.1369C30.261 11.1138 28.6519 8.44853 26.1172 6.72288C25.5239 6.31892 24.3341 5.73593 23.6493 5.51354C22.2689 5.06534 20.7029 4.90095 19.3126 5.05825ZM19.3126 9.91446V12.4519L17.5123 10.6498L15.7119 8.84762L15.8536 8.73903C16.1875 8.48329 16.9039 8.08845 17.4182 7.87666C17.9936 7.63975 18.8862 7.38463 19.1567 7.37981L19.3126 7.37703V9.91446ZM22.6448 7.58134C23.4598 7.8174 24.526 8.33143 25.0398 8.73602L25.1816 8.84762L23.3812 10.6498L21.5808 12.4519V9.90715V7.3624L21.8651 7.40011C22.0214 7.42086 22.3723 7.50241 22.6448 7.58134ZM15.9103 12.282L17.6959 14.0682H15.1587H12.6215V13.9337C12.6215 13.7113 12.8817 12.7562 13.0728 12.2772C13.3332 11.6246 13.9761 10.4958 14.0874 10.4958C14.108 10.4958 14.9283 11.2996 15.9103 12.282ZM27.0408 10.7935C27.365 11.2824 27.6303 11.797 27.8447 12.3531C28.0497 12.8848 28.2709 13.7073 28.2716 13.9406L28.272 14.0682H25.7348H23.1976L24.9831 12.282C25.9651 11.2996 26.7855 10.4958 26.806 10.4958C26.8266 10.4958 26.9322 10.6297 27.0408 10.7935ZM19.3126 19.7387V23.141H15.9103H12.508V19.7387V16.3364H15.9103H19.3126V19.7387ZM28.3854 19.7387V23.141H24.9831H21.5808V19.7387V16.3364H24.9831H28.3854V19.7387ZM19.3126 28.5847V31.7602H15.9103H12.508V28.5847V25.4092H15.9103H19.3126V28.5847ZM28.3854 28.5847V31.7602H24.9831H21.5808V28.5847V25.4092H24.9831H28.3854V28.5847Z" fill="white"/>
</svg>
